%TF.GenerationSoftware,KiCad,Pcbnew,(5.1.12)-1*%
%TF.CreationDate,2021-12-20T17:02:31+01:00*%
%TF.ProjectId,PCB_Chair_tracker,5043425f-4368-4616-9972-5f747261636b,rev?*%
%TF.SameCoordinates,Original*%
%TF.FileFunction,AssemblyDrawing,Top*%
%FSLAX46Y46*%
G04 Gerber Fmt 4.6, Leading zero omitted, Abs format (unit mm)*
G04 Created by KiCad (PCBNEW (5.1.12)-1) date 2021-12-20 17:02:31*
%MOMM*%
%LPD*%
G01*
G04 APERTURE LIST*
%ADD10C,0.100000*%
%ADD11C,0.127000*%
%ADD12C,0.200000*%
%ADD13C,0.150000*%
G04 APERTURE END LIST*
D10*
%TO.C,tp2*%
X154940000Y-97155000D02*
X154940000Y-99060000D01*
X154940000Y-99060000D02*
X149860000Y-99060000D01*
X149860000Y-99060000D02*
X149860000Y-96520000D01*
X149860000Y-96520000D02*
X154305000Y-96520000D01*
X154305000Y-96520000D02*
X154940000Y-97155000D01*
D11*
%TO.C,ESP1*%
X120690001Y-110490000D02*
X120690001Y-67310000D01*
X123230001Y-64770000D02*
X143550001Y-64770000D01*
X146090001Y-67310000D02*
X146090001Y-110490000D01*
X143550001Y-113030000D02*
X123230001Y-113030000D01*
D12*
X119680001Y-71120000D02*
G75*
G03*
X119680001Y-71120000I-100000J0D01*
G01*
X147300001Y-71120000D02*
G75*
G03*
X147300001Y-71120000I-100000J0D01*
G01*
D11*
X120690001Y-67310000D02*
G75*
G02*
X123230001Y-64770000I2540000J0D01*
G01*
X120690001Y-110490000D02*
G75*
G03*
X123230001Y-113030000I2540000J0D01*
G01*
X143550001Y-64770000D02*
G75*
G02*
X146090001Y-67310000I0J-2540000D01*
G01*
X146090001Y-110490000D02*
G75*
G02*
X143550001Y-113030000I-2540000J0D01*
G01*
D10*
%TO.C,Prox1*%
X167005000Y-64770000D02*
X168910000Y-64770000D01*
X168910000Y-64770000D02*
X168910000Y-74930000D01*
X168910000Y-74930000D02*
X166370000Y-74930000D01*
X166370000Y-74930000D02*
X166370000Y-65405000D01*
X166370000Y-65405000D02*
X167005000Y-64770000D01*
%TO.C,Vib1*%
X148590000Y-66675000D02*
X148590000Y-64770000D01*
X148590000Y-64770000D02*
X156210000Y-64770000D01*
X156210000Y-64770000D02*
X156210000Y-67310000D01*
X156210000Y-67310000D02*
X149225000Y-67310000D01*
X149225000Y-67310000D02*
X148590000Y-66675000D01*
%TO.C,bat1*%
X161290000Y-92075000D02*
X161290000Y-93980000D01*
X161290000Y-93980000D02*
X156210000Y-93980000D01*
X156210000Y-93980000D02*
X156210000Y-91440000D01*
X156210000Y-91440000D02*
X160655000Y-91440000D01*
X160655000Y-91440000D02*
X161290000Y-92075000D01*
%TO.C,tp1*%
X161925000Y-99060000D02*
X161290000Y-98425000D01*
X166370000Y-99060000D02*
X161925000Y-99060000D01*
X166370000Y-96520000D02*
X166370000Y-99060000D01*
X161290000Y-96520000D02*
X166370000Y-96520000D01*
X161290000Y-98425000D02*
X161290000Y-96520000D01*
%TO.C,led1*%
X165735000Y-81280000D02*
X165100000Y-80645000D01*
X170180000Y-81280000D02*
X165735000Y-81280000D01*
X170180000Y-78740000D02*
X170180000Y-81280000D01*
X165100000Y-78740000D02*
X170180000Y-78740000D01*
X165100000Y-80645000D02*
X165100000Y-78740000D01*
D11*
%TO.C,Alt1*%
X162210000Y-81280000D02*
G75*
G03*
X162210000Y-81280000I-6000000J0D01*
G01*
%TO.C,R1*%
X165170000Y-85090000D02*
X165790000Y-85090000D01*
X165790000Y-85090000D02*
X165790000Y-84090000D01*
X165790000Y-84090000D02*
X169490000Y-84090000D01*
X165790000Y-85090000D02*
X165790000Y-86090000D01*
X165790000Y-86090000D02*
X169490000Y-86090000D01*
X170110000Y-85090000D02*
X169490000Y-85090000D01*
X169490000Y-85090000D02*
X169490000Y-84090000D01*
X169490000Y-85090000D02*
X169490000Y-86090000D01*
%TD*%
%TO.C,H1*%
D13*
X162854285Y-122762380D02*
X162854285Y-121762380D01*
X163187619Y-122476666D01*
X163520952Y-121762380D01*
X163520952Y-122762380D01*
X164140000Y-122762380D02*
X164044761Y-122714761D01*
X163997142Y-122667142D01*
X163949523Y-122571904D01*
X163949523Y-122286190D01*
X163997142Y-122190952D01*
X164044761Y-122143333D01*
X164140000Y-122095714D01*
X164282857Y-122095714D01*
X164378095Y-122143333D01*
X164425714Y-122190952D01*
X164473333Y-122286190D01*
X164473333Y-122571904D01*
X164425714Y-122667142D01*
X164378095Y-122714761D01*
X164282857Y-122762380D01*
X164140000Y-122762380D01*
X165330476Y-122095714D02*
X165330476Y-122762380D01*
X164901904Y-122095714D02*
X164901904Y-122619523D01*
X164949523Y-122714761D01*
X165044761Y-122762380D01*
X165187619Y-122762380D01*
X165282857Y-122714761D01*
X165330476Y-122667142D01*
X165806666Y-122095714D02*
X165806666Y-122762380D01*
X165806666Y-122190952D02*
X165854285Y-122143333D01*
X165949523Y-122095714D01*
X166092380Y-122095714D01*
X166187619Y-122143333D01*
X166235238Y-122238571D01*
X166235238Y-122762380D01*
X166568571Y-122095714D02*
X166949523Y-122095714D01*
X166711428Y-121762380D02*
X166711428Y-122619523D01*
X166759047Y-122714761D01*
X166854285Y-122762380D01*
X166949523Y-122762380D01*
X167282857Y-122762380D02*
X167282857Y-122095714D01*
X167282857Y-121762380D02*
X167235238Y-121810000D01*
X167282857Y-121857619D01*
X167330476Y-121810000D01*
X167282857Y-121762380D01*
X167282857Y-121857619D01*
X167759047Y-122095714D02*
X167759047Y-122762380D01*
X167759047Y-122190952D02*
X167806666Y-122143333D01*
X167901904Y-122095714D01*
X168044761Y-122095714D01*
X168140000Y-122143333D01*
X168187619Y-122238571D01*
X168187619Y-122762380D01*
X169092380Y-122095714D02*
X169092380Y-122905238D01*
X169044761Y-123000476D01*
X168997142Y-123048095D01*
X168901904Y-123095714D01*
X168759047Y-123095714D01*
X168663809Y-123048095D01*
X169092380Y-122714761D02*
X168997142Y-122762380D01*
X168806666Y-122762380D01*
X168711428Y-122714761D01*
X168663809Y-122667142D01*
X168616190Y-122571904D01*
X168616190Y-122286190D01*
X168663809Y-122190952D01*
X168711428Y-122143333D01*
X168806666Y-122095714D01*
X168997142Y-122095714D01*
X169092380Y-122143333D01*
X169568571Y-122762380D02*
X169568571Y-121762380D01*
X169568571Y-122238571D02*
X170140000Y-122238571D01*
X170140000Y-122762380D02*
X170140000Y-121762380D01*
X170759047Y-122762380D02*
X170663809Y-122714761D01*
X170616190Y-122667142D01*
X170568571Y-122571904D01*
X170568571Y-122286190D01*
X170616190Y-122190952D01*
X170663809Y-122143333D01*
X170759047Y-122095714D01*
X170901904Y-122095714D01*
X170997142Y-122143333D01*
X171044761Y-122190952D01*
X171092380Y-122286190D01*
X171092380Y-122571904D01*
X171044761Y-122667142D01*
X170997142Y-122714761D01*
X170901904Y-122762380D01*
X170759047Y-122762380D01*
X171663809Y-122762380D02*
X171568571Y-122714761D01*
X171520952Y-122619523D01*
X171520952Y-121762380D01*
X172425714Y-122714761D02*
X172330476Y-122762380D01*
X172140000Y-122762380D01*
X172044761Y-122714761D01*
X171997142Y-122619523D01*
X171997142Y-122238571D01*
X172044761Y-122143333D01*
X172140000Y-122095714D01*
X172330476Y-122095714D01*
X172425714Y-122143333D01*
X172473333Y-122238571D01*
X172473333Y-122333809D01*
X171997142Y-122429047D01*
X167178095Y-118562380D02*
X167178095Y-117562380D01*
X167178095Y-118038571D02*
X167749523Y-118038571D01*
X167749523Y-118562380D02*
X167749523Y-117562380D01*
X168749523Y-118562380D02*
X168178095Y-118562380D01*
X168463809Y-118562380D02*
X168463809Y-117562380D01*
X168368571Y-117705238D01*
X168273333Y-117800476D01*
X168178095Y-117848095D01*
%TO.C,H2*%
X117134285Y-64342380D02*
X117134285Y-63342380D01*
X117467619Y-64056666D01*
X117800952Y-63342380D01*
X117800952Y-64342380D01*
X118420000Y-64342380D02*
X118324761Y-64294761D01*
X118277142Y-64247142D01*
X118229523Y-64151904D01*
X118229523Y-63866190D01*
X118277142Y-63770952D01*
X118324761Y-63723333D01*
X118420000Y-63675714D01*
X118562857Y-63675714D01*
X118658095Y-63723333D01*
X118705714Y-63770952D01*
X118753333Y-63866190D01*
X118753333Y-64151904D01*
X118705714Y-64247142D01*
X118658095Y-64294761D01*
X118562857Y-64342380D01*
X118420000Y-64342380D01*
X119610476Y-63675714D02*
X119610476Y-64342380D01*
X119181904Y-63675714D02*
X119181904Y-64199523D01*
X119229523Y-64294761D01*
X119324761Y-64342380D01*
X119467619Y-64342380D01*
X119562857Y-64294761D01*
X119610476Y-64247142D01*
X120086666Y-63675714D02*
X120086666Y-64342380D01*
X120086666Y-63770952D02*
X120134285Y-63723333D01*
X120229523Y-63675714D01*
X120372380Y-63675714D01*
X120467619Y-63723333D01*
X120515238Y-63818571D01*
X120515238Y-64342380D01*
X120848571Y-63675714D02*
X121229523Y-63675714D01*
X120991428Y-63342380D02*
X120991428Y-64199523D01*
X121039047Y-64294761D01*
X121134285Y-64342380D01*
X121229523Y-64342380D01*
X121562857Y-64342380D02*
X121562857Y-63675714D01*
X121562857Y-63342380D02*
X121515238Y-63390000D01*
X121562857Y-63437619D01*
X121610476Y-63390000D01*
X121562857Y-63342380D01*
X121562857Y-63437619D01*
X122039047Y-63675714D02*
X122039047Y-64342380D01*
X122039047Y-63770952D02*
X122086666Y-63723333D01*
X122181904Y-63675714D01*
X122324761Y-63675714D01*
X122420000Y-63723333D01*
X122467619Y-63818571D01*
X122467619Y-64342380D01*
X123372380Y-63675714D02*
X123372380Y-64485238D01*
X123324761Y-64580476D01*
X123277142Y-64628095D01*
X123181904Y-64675714D01*
X123039047Y-64675714D01*
X122943809Y-64628095D01*
X123372380Y-64294761D02*
X123277142Y-64342380D01*
X123086666Y-64342380D01*
X122991428Y-64294761D01*
X122943809Y-64247142D01*
X122896190Y-64151904D01*
X122896190Y-63866190D01*
X122943809Y-63770952D01*
X122991428Y-63723333D01*
X123086666Y-63675714D01*
X123277142Y-63675714D01*
X123372380Y-63723333D01*
X123848571Y-64342380D02*
X123848571Y-63342380D01*
X123848571Y-63818571D02*
X124420000Y-63818571D01*
X124420000Y-64342380D02*
X124420000Y-63342380D01*
X125039047Y-64342380D02*
X124943809Y-64294761D01*
X124896190Y-64247142D01*
X124848571Y-64151904D01*
X124848571Y-63866190D01*
X124896190Y-63770952D01*
X124943809Y-63723333D01*
X125039047Y-63675714D01*
X125181904Y-63675714D01*
X125277142Y-63723333D01*
X125324761Y-63770952D01*
X125372380Y-63866190D01*
X125372380Y-64151904D01*
X125324761Y-64247142D01*
X125277142Y-64294761D01*
X125181904Y-64342380D01*
X125039047Y-64342380D01*
X125943809Y-64342380D02*
X125848571Y-64294761D01*
X125800952Y-64199523D01*
X125800952Y-63342380D01*
X126705714Y-64294761D02*
X126610476Y-64342380D01*
X126420000Y-64342380D01*
X126324761Y-64294761D01*
X126277142Y-64199523D01*
X126277142Y-63818571D01*
X126324761Y-63723333D01*
X126420000Y-63675714D01*
X126610476Y-63675714D01*
X126705714Y-63723333D01*
X126753333Y-63818571D01*
X126753333Y-63913809D01*
X126277142Y-64009047D01*
X121458095Y-60142380D02*
X121458095Y-59142380D01*
X121458095Y-59618571D02*
X122029523Y-59618571D01*
X122029523Y-60142380D02*
X122029523Y-59142380D01*
X122458095Y-59237619D02*
X122505714Y-59190000D01*
X122600952Y-59142380D01*
X122839047Y-59142380D01*
X122934285Y-59190000D01*
X122981904Y-59237619D01*
X123029523Y-59332857D01*
X123029523Y-59428095D01*
X122981904Y-59570952D01*
X122410476Y-60142380D01*
X123029523Y-60142380D01*
%TO.C,tp2*%
X149157142Y-103623333D02*
X149204761Y-103670952D01*
X149252380Y-103813809D01*
X149252380Y-103909047D01*
X149204761Y-104051904D01*
X149109523Y-104147142D01*
X149014285Y-104194761D01*
X148823809Y-104242380D01*
X148680952Y-104242380D01*
X148490476Y-104194761D01*
X148395238Y-104147142D01*
X148300000Y-104051904D01*
X148252380Y-103909047D01*
X148252380Y-103813809D01*
X148300000Y-103670952D01*
X148347619Y-103623333D01*
X149252380Y-103051904D02*
X149204761Y-103147142D01*
X149157142Y-103194761D01*
X149061904Y-103242380D01*
X148776190Y-103242380D01*
X148680952Y-103194761D01*
X148633333Y-103147142D01*
X148585714Y-103051904D01*
X148585714Y-102909047D01*
X148633333Y-102813809D01*
X148680952Y-102766190D01*
X148776190Y-102718571D01*
X149061904Y-102718571D01*
X149157142Y-102766190D01*
X149204761Y-102813809D01*
X149252380Y-102909047D01*
X149252380Y-103051904D01*
X148585714Y-102290000D02*
X149252380Y-102290000D01*
X148680952Y-102290000D02*
X148633333Y-102242380D01*
X148585714Y-102147142D01*
X148585714Y-102004285D01*
X148633333Y-101909047D01*
X148728571Y-101861428D01*
X149252380Y-101861428D01*
X148585714Y-101385238D02*
X149252380Y-101385238D01*
X148680952Y-101385238D02*
X148633333Y-101337619D01*
X148585714Y-101242380D01*
X148585714Y-101099523D01*
X148633333Y-101004285D01*
X148728571Y-100956666D01*
X149252380Y-100956666D01*
X149347619Y-100718571D02*
X149347619Y-99956666D01*
X148252380Y-99528095D02*
X148252380Y-99432857D01*
X148300000Y-99337619D01*
X148347619Y-99290000D01*
X148442857Y-99242380D01*
X148633333Y-99194761D01*
X148871428Y-99194761D01*
X149061904Y-99242380D01*
X149157142Y-99290000D01*
X149204761Y-99337619D01*
X149252380Y-99432857D01*
X149252380Y-99528095D01*
X149204761Y-99623333D01*
X149157142Y-99670952D01*
X149061904Y-99718571D01*
X148871428Y-99766190D01*
X148633333Y-99766190D01*
X148442857Y-99718571D01*
X148347619Y-99670952D01*
X148300000Y-99623333D01*
X148252380Y-99528095D01*
X149252380Y-98242380D02*
X149252380Y-98813809D01*
X149252380Y-98528095D02*
X148252380Y-98528095D01*
X148395238Y-98623333D01*
X148490476Y-98718571D01*
X148538095Y-98813809D01*
X149252380Y-97909047D02*
X148585714Y-97385238D01*
X148585714Y-97909047D02*
X149252380Y-97385238D01*
X148252380Y-96813809D02*
X148252380Y-96718571D01*
X148300000Y-96623333D01*
X148347619Y-96575714D01*
X148442857Y-96528095D01*
X148633333Y-96480476D01*
X148871428Y-96480476D01*
X149061904Y-96528095D01*
X149157142Y-96575714D01*
X149204761Y-96623333D01*
X149252380Y-96718571D01*
X149252380Y-96813809D01*
X149204761Y-96909047D01*
X149157142Y-96956666D01*
X149061904Y-97004285D01*
X148871428Y-97051904D01*
X148633333Y-97051904D01*
X148442857Y-97004285D01*
X148347619Y-96956666D01*
X148300000Y-96909047D01*
X148252380Y-96813809D01*
X148347619Y-96099523D02*
X148300000Y-96051904D01*
X148252380Y-95956666D01*
X148252380Y-95718571D01*
X148300000Y-95623333D01*
X148347619Y-95575714D01*
X148442857Y-95528095D01*
X148538095Y-95528095D01*
X148680952Y-95575714D01*
X149252380Y-96147142D01*
X149252380Y-95528095D01*
X149347619Y-95337619D02*
X149347619Y-94575714D01*
X149252380Y-94337619D02*
X148252380Y-94337619D01*
X148966666Y-94004285D01*
X148252380Y-93670952D01*
X149252380Y-93670952D01*
X149252380Y-92766190D02*
X148728571Y-92766190D01*
X148633333Y-92813809D01*
X148585714Y-92909047D01*
X148585714Y-93099523D01*
X148633333Y-93194761D01*
X149204761Y-92766190D02*
X149252380Y-92861428D01*
X149252380Y-93099523D01*
X149204761Y-93194761D01*
X149109523Y-93242380D01*
X149014285Y-93242380D01*
X148919047Y-93194761D01*
X148871428Y-93099523D01*
X148871428Y-92861428D01*
X148823809Y-92766190D01*
X149252380Y-92147142D02*
X149204761Y-92242380D01*
X149109523Y-92290000D01*
X148252380Y-92290000D01*
X149204761Y-91385238D02*
X149252380Y-91480476D01*
X149252380Y-91670952D01*
X149204761Y-91766190D01*
X149109523Y-91813809D01*
X148728571Y-91813809D01*
X148633333Y-91766190D01*
X148585714Y-91670952D01*
X148585714Y-91480476D01*
X148633333Y-91385238D01*
X148728571Y-91337619D01*
X148823809Y-91337619D01*
X148919047Y-91813809D01*
X151280952Y-97575714D02*
X151661904Y-97575714D01*
X151423809Y-97242380D02*
X151423809Y-98099523D01*
X151471428Y-98194761D01*
X151566666Y-98242380D01*
X151661904Y-98242380D01*
X151995238Y-97575714D02*
X151995238Y-98575714D01*
X151995238Y-97623333D02*
X152090476Y-97575714D01*
X152280952Y-97575714D01*
X152376190Y-97623333D01*
X152423809Y-97670952D01*
X152471428Y-97766190D01*
X152471428Y-98051904D01*
X152423809Y-98147142D01*
X152376190Y-98194761D01*
X152280952Y-98242380D01*
X152090476Y-98242380D01*
X151995238Y-98194761D01*
X152852380Y-97337619D02*
X152900000Y-97290000D01*
X152995238Y-97242380D01*
X153233333Y-97242380D01*
X153328571Y-97290000D01*
X153376190Y-97337619D01*
X153423809Y-97432857D01*
X153423809Y-97528095D01*
X153376190Y-97670952D01*
X152804761Y-98242380D01*
X153423809Y-98242380D01*
%TO.C,ESP1*%
X129091667Y-115822333D02*
X128291667Y-115822333D01*
X128691667Y-115822333D02*
X128691667Y-114422333D01*
X128558334Y-114622333D01*
X128425001Y-114755666D01*
X128291667Y-114822333D01*
X130425001Y-115822333D02*
X129625001Y-115822333D01*
X130025001Y-115822333D02*
X130025001Y-114422333D01*
X129891667Y-114622333D01*
X129758334Y-114755666D01*
X129625001Y-114822333D01*
X130891667Y-114422333D02*
X131758334Y-114422333D01*
X131291667Y-114955666D01*
X131491667Y-114955666D01*
X131625001Y-115022333D01*
X131691667Y-115089000D01*
X131758334Y-115222333D01*
X131758334Y-115555666D01*
X131691667Y-115689000D01*
X131625001Y-115755666D01*
X131491667Y-115822333D01*
X131091667Y-115822333D01*
X130958334Y-115755666D01*
X130891667Y-115689000D01*
X132425001Y-115822333D02*
X132691667Y-115822333D01*
X132825001Y-115755666D01*
X132891667Y-115689000D01*
X133025001Y-115489000D01*
X133091667Y-115222333D01*
X133091667Y-114689000D01*
X133025001Y-114555666D01*
X132958334Y-114489000D01*
X132825001Y-114422333D01*
X132558334Y-114422333D01*
X132425001Y-114489000D01*
X132358334Y-114555666D01*
X132291667Y-114689000D01*
X132291667Y-115022333D01*
X132358334Y-115155666D01*
X132425001Y-115222333D01*
X132558334Y-115289000D01*
X132825001Y-115289000D01*
X132958334Y-115222333D01*
X133025001Y-115155666D01*
X133091667Y-115022333D01*
X133758334Y-115822333D02*
X134025001Y-115822333D01*
X134158334Y-115755666D01*
X134225001Y-115689000D01*
X134358334Y-115489000D01*
X134425001Y-115222333D01*
X134425001Y-114689000D01*
X134358334Y-114555666D01*
X134291667Y-114489000D01*
X134158334Y-114422333D01*
X133891667Y-114422333D01*
X133758334Y-114489000D01*
X133691667Y-114555666D01*
X133625001Y-114689000D01*
X133625001Y-115022333D01*
X133691667Y-115155666D01*
X133758334Y-115222333D01*
X133891667Y-115289000D01*
X134158334Y-115289000D01*
X134291667Y-115222333D01*
X134358334Y-115155666D01*
X134425001Y-115022333D01*
X135291667Y-114422333D02*
X135425001Y-114422333D01*
X135558334Y-114489000D01*
X135625001Y-114555666D01*
X135691667Y-114689000D01*
X135758334Y-114955666D01*
X135758334Y-115289000D01*
X135691667Y-115555666D01*
X135625001Y-115689000D01*
X135558334Y-115755666D01*
X135425001Y-115822333D01*
X135291667Y-115822333D01*
X135158334Y-115755666D01*
X135091667Y-115689000D01*
X135025001Y-115555666D01*
X134958334Y-115289000D01*
X134958334Y-114955666D01*
X135025001Y-114689000D01*
X135091667Y-114555666D01*
X135158334Y-114489000D01*
X135291667Y-114422333D01*
X137091667Y-115822333D02*
X136291667Y-115822333D01*
X136691667Y-115822333D02*
X136691667Y-114422333D01*
X136558334Y-114622333D01*
X136425001Y-114755666D01*
X136291667Y-114822333D01*
X137958334Y-114422333D02*
X138091667Y-114422333D01*
X138225001Y-114489000D01*
X138291667Y-114555666D01*
X138358334Y-114689000D01*
X138425001Y-114955666D01*
X138425001Y-115289000D01*
X138358334Y-115555666D01*
X138291667Y-115689000D01*
X138225001Y-115755666D01*
X138091667Y-115822333D01*
X137958334Y-115822333D01*
X137825001Y-115755666D01*
X137758334Y-115689000D01*
X137691667Y-115555666D01*
X137625001Y-115289000D01*
X137625001Y-114955666D01*
X137691667Y-114689000D01*
X137758334Y-114555666D01*
X137825001Y-114489000D01*
X137958334Y-114422333D01*
X139691667Y-114422333D02*
X139025001Y-114422333D01*
X138958334Y-115089000D01*
X139025001Y-115022333D01*
X139158334Y-114955666D01*
X139491667Y-114955666D01*
X139625001Y-115022333D01*
X139691667Y-115089000D01*
X139758334Y-115222333D01*
X139758334Y-115555666D01*
X139691667Y-115689000D01*
X139625001Y-115755666D01*
X139491667Y-115822333D01*
X139158334Y-115822333D01*
X139025001Y-115755666D01*
X138958334Y-115689000D01*
%TO.C,Prox1*%
X161806666Y-76347142D02*
X161759047Y-76394761D01*
X161616190Y-76442380D01*
X161520952Y-76442380D01*
X161378095Y-76394761D01*
X161282857Y-76299523D01*
X161235238Y-76204285D01*
X161187619Y-76013809D01*
X161187619Y-75870952D01*
X161235238Y-75680476D01*
X161282857Y-75585238D01*
X161378095Y-75490000D01*
X161520952Y-75442380D01*
X161616190Y-75442380D01*
X161759047Y-75490000D01*
X161806666Y-75537619D01*
X162378095Y-76442380D02*
X162282857Y-76394761D01*
X162235238Y-76347142D01*
X162187619Y-76251904D01*
X162187619Y-75966190D01*
X162235238Y-75870952D01*
X162282857Y-75823333D01*
X162378095Y-75775714D01*
X162520952Y-75775714D01*
X162616190Y-75823333D01*
X162663809Y-75870952D01*
X162711428Y-75966190D01*
X162711428Y-76251904D01*
X162663809Y-76347142D01*
X162616190Y-76394761D01*
X162520952Y-76442380D01*
X162378095Y-76442380D01*
X163140000Y-75775714D02*
X163140000Y-76442380D01*
X163140000Y-75870952D02*
X163187619Y-75823333D01*
X163282857Y-75775714D01*
X163425714Y-75775714D01*
X163520952Y-75823333D01*
X163568571Y-75918571D01*
X163568571Y-76442380D01*
X164044761Y-75775714D02*
X164044761Y-76442380D01*
X164044761Y-75870952D02*
X164092380Y-75823333D01*
X164187619Y-75775714D01*
X164330476Y-75775714D01*
X164425714Y-75823333D01*
X164473333Y-75918571D01*
X164473333Y-76442380D01*
X164711428Y-76537619D02*
X165473333Y-76537619D01*
X165901904Y-75442380D02*
X165997142Y-75442380D01*
X166092380Y-75490000D01*
X166140000Y-75537619D01*
X166187619Y-75632857D01*
X166235238Y-75823333D01*
X166235238Y-76061428D01*
X166187619Y-76251904D01*
X166140000Y-76347142D01*
X166092380Y-76394761D01*
X165997142Y-76442380D01*
X165901904Y-76442380D01*
X165806666Y-76394761D01*
X165759047Y-76347142D01*
X165711428Y-76251904D01*
X165663809Y-76061428D01*
X165663809Y-75823333D01*
X165711428Y-75632857D01*
X165759047Y-75537619D01*
X165806666Y-75490000D01*
X165901904Y-75442380D01*
X167187619Y-76442380D02*
X166616190Y-76442380D01*
X166901904Y-76442380D02*
X166901904Y-75442380D01*
X166806666Y-75585238D01*
X166711428Y-75680476D01*
X166616190Y-75728095D01*
X167520952Y-76442380D02*
X168044761Y-75775714D01*
X167520952Y-75775714D02*
X168044761Y-76442380D01*
X168616190Y-75442380D02*
X168711428Y-75442380D01*
X168806666Y-75490000D01*
X168854285Y-75537619D01*
X168901904Y-75632857D01*
X168949523Y-75823333D01*
X168949523Y-76061428D01*
X168901904Y-76251904D01*
X168854285Y-76347142D01*
X168806666Y-76394761D01*
X168711428Y-76442380D01*
X168616190Y-76442380D01*
X168520952Y-76394761D01*
X168473333Y-76347142D01*
X168425714Y-76251904D01*
X168378095Y-76061428D01*
X168378095Y-75823333D01*
X168425714Y-75632857D01*
X168473333Y-75537619D01*
X168520952Y-75490000D01*
X168616190Y-75442380D01*
X169806666Y-75775714D02*
X169806666Y-76442380D01*
X169568571Y-75394761D02*
X169330476Y-76109047D01*
X169949523Y-76109047D01*
X170092380Y-76537619D02*
X170854285Y-76537619D01*
X171092380Y-76442380D02*
X171092380Y-75442380D01*
X171425714Y-76156666D01*
X171759047Y-75442380D01*
X171759047Y-76442380D01*
X172663809Y-76442380D02*
X172663809Y-75918571D01*
X172616190Y-75823333D01*
X172520952Y-75775714D01*
X172330476Y-75775714D01*
X172235238Y-75823333D01*
X172663809Y-76394761D02*
X172568571Y-76442380D01*
X172330476Y-76442380D01*
X172235238Y-76394761D01*
X172187619Y-76299523D01*
X172187619Y-76204285D01*
X172235238Y-76109047D01*
X172330476Y-76061428D01*
X172568571Y-76061428D01*
X172663809Y-76013809D01*
X173282857Y-76442380D02*
X173187619Y-76394761D01*
X173140000Y-76299523D01*
X173140000Y-75442380D01*
X174044761Y-76394761D02*
X173949523Y-76442380D01*
X173759047Y-76442380D01*
X173663809Y-76394761D01*
X173616190Y-76299523D01*
X173616190Y-75918571D01*
X173663809Y-75823333D01*
X173759047Y-75775714D01*
X173949523Y-75775714D01*
X174044761Y-75823333D01*
X174092380Y-75918571D01*
X174092380Y-76013809D01*
X173616190Y-76109047D01*
X168092380Y-71754761D02*
X167092380Y-71754761D01*
X167092380Y-71373809D01*
X167140000Y-71278571D01*
X167187619Y-71230952D01*
X167282857Y-71183333D01*
X167425714Y-71183333D01*
X167520952Y-71230952D01*
X167568571Y-71278571D01*
X167616190Y-71373809D01*
X167616190Y-71754761D01*
X168092380Y-70754761D02*
X167425714Y-70754761D01*
X167616190Y-70754761D02*
X167520952Y-70707142D01*
X167473333Y-70659523D01*
X167425714Y-70564285D01*
X167425714Y-70469047D01*
X168092380Y-69992857D02*
X168044761Y-70088095D01*
X167997142Y-70135714D01*
X167901904Y-70183333D01*
X167616190Y-70183333D01*
X167520952Y-70135714D01*
X167473333Y-70088095D01*
X167425714Y-69992857D01*
X167425714Y-69850000D01*
X167473333Y-69754761D01*
X167520952Y-69707142D01*
X167616190Y-69659523D01*
X167901904Y-69659523D01*
X167997142Y-69707142D01*
X168044761Y-69754761D01*
X168092380Y-69850000D01*
X168092380Y-69992857D01*
X168092380Y-69326190D02*
X167425714Y-68802380D01*
X167425714Y-69326190D02*
X168092380Y-68802380D01*
X168092380Y-67897619D02*
X168092380Y-68469047D01*
X168092380Y-68183333D02*
X167092380Y-68183333D01*
X167235238Y-68278571D01*
X167330476Y-68373809D01*
X167378095Y-68469047D01*
%TO.C,Vib1*%
X157627142Y-71873333D02*
X157674761Y-71920952D01*
X157722380Y-72063809D01*
X157722380Y-72159047D01*
X157674761Y-72301904D01*
X157579523Y-72397142D01*
X157484285Y-72444761D01*
X157293809Y-72492380D01*
X157150952Y-72492380D01*
X156960476Y-72444761D01*
X156865238Y-72397142D01*
X156770000Y-72301904D01*
X156722380Y-72159047D01*
X156722380Y-72063809D01*
X156770000Y-71920952D01*
X156817619Y-71873333D01*
X157722380Y-71301904D02*
X157674761Y-71397142D01*
X157627142Y-71444761D01*
X157531904Y-71492380D01*
X157246190Y-71492380D01*
X157150952Y-71444761D01*
X157103333Y-71397142D01*
X157055714Y-71301904D01*
X157055714Y-71159047D01*
X157103333Y-71063809D01*
X157150952Y-71016190D01*
X157246190Y-70968571D01*
X157531904Y-70968571D01*
X157627142Y-71016190D01*
X157674761Y-71063809D01*
X157722380Y-71159047D01*
X157722380Y-71301904D01*
X157055714Y-70540000D02*
X157722380Y-70540000D01*
X157150952Y-70540000D02*
X157103333Y-70492380D01*
X157055714Y-70397142D01*
X157055714Y-70254285D01*
X157103333Y-70159047D01*
X157198571Y-70111428D01*
X157722380Y-70111428D01*
X157055714Y-69635238D02*
X157722380Y-69635238D01*
X157150952Y-69635238D02*
X157103333Y-69587619D01*
X157055714Y-69492380D01*
X157055714Y-69349523D01*
X157103333Y-69254285D01*
X157198571Y-69206666D01*
X157722380Y-69206666D01*
X157817619Y-68968571D02*
X157817619Y-68206666D01*
X156722380Y-67778095D02*
X156722380Y-67682857D01*
X156770000Y-67587619D01*
X156817619Y-67540000D01*
X156912857Y-67492380D01*
X157103333Y-67444761D01*
X157341428Y-67444761D01*
X157531904Y-67492380D01*
X157627142Y-67540000D01*
X157674761Y-67587619D01*
X157722380Y-67682857D01*
X157722380Y-67778095D01*
X157674761Y-67873333D01*
X157627142Y-67920952D01*
X157531904Y-67968571D01*
X157341428Y-68016190D01*
X157103333Y-68016190D01*
X156912857Y-67968571D01*
X156817619Y-67920952D01*
X156770000Y-67873333D01*
X156722380Y-67778095D01*
X157722380Y-66492380D02*
X157722380Y-67063809D01*
X157722380Y-66778095D02*
X156722380Y-66778095D01*
X156865238Y-66873333D01*
X156960476Y-66968571D01*
X157008095Y-67063809D01*
X157722380Y-66159047D02*
X157055714Y-65635238D01*
X157055714Y-66159047D02*
X157722380Y-65635238D01*
X156722380Y-65063809D02*
X156722380Y-64968571D01*
X156770000Y-64873333D01*
X156817619Y-64825714D01*
X156912857Y-64778095D01*
X157103333Y-64730476D01*
X157341428Y-64730476D01*
X157531904Y-64778095D01*
X157627142Y-64825714D01*
X157674761Y-64873333D01*
X157722380Y-64968571D01*
X157722380Y-65063809D01*
X157674761Y-65159047D01*
X157627142Y-65206666D01*
X157531904Y-65254285D01*
X157341428Y-65301904D01*
X157103333Y-65301904D01*
X156912857Y-65254285D01*
X156817619Y-65206666D01*
X156770000Y-65159047D01*
X156722380Y-65063809D01*
X156722380Y-64397142D02*
X156722380Y-63778095D01*
X157103333Y-64111428D01*
X157103333Y-63968571D01*
X157150952Y-63873333D01*
X157198571Y-63825714D01*
X157293809Y-63778095D01*
X157531904Y-63778095D01*
X157627142Y-63825714D01*
X157674761Y-63873333D01*
X157722380Y-63968571D01*
X157722380Y-64254285D01*
X157674761Y-64349523D01*
X157627142Y-64397142D01*
X157817619Y-63587619D02*
X157817619Y-62825714D01*
X157722380Y-62587619D02*
X156722380Y-62587619D01*
X157436666Y-62254285D01*
X156722380Y-61920952D01*
X157722380Y-61920952D01*
X157722380Y-61016190D02*
X157198571Y-61016190D01*
X157103333Y-61063809D01*
X157055714Y-61159047D01*
X157055714Y-61349523D01*
X157103333Y-61444761D01*
X157674761Y-61016190D02*
X157722380Y-61111428D01*
X157722380Y-61349523D01*
X157674761Y-61444761D01*
X157579523Y-61492380D01*
X157484285Y-61492380D01*
X157389047Y-61444761D01*
X157341428Y-61349523D01*
X157341428Y-61111428D01*
X157293809Y-61016190D01*
X157722380Y-60397142D02*
X157674761Y-60492380D01*
X157579523Y-60540000D01*
X156722380Y-60540000D01*
X157674761Y-59635238D02*
X157722380Y-59730476D01*
X157722380Y-59920952D01*
X157674761Y-60016190D01*
X157579523Y-60063809D01*
X157198571Y-60063809D01*
X157103333Y-60016190D01*
X157055714Y-59920952D01*
X157055714Y-59730476D01*
X157103333Y-59635238D01*
X157198571Y-59587619D01*
X157293809Y-59587619D01*
X157389047Y-60063809D01*
X150900000Y-65492380D02*
X151233333Y-66492380D01*
X151566666Y-65492380D01*
X151900000Y-66492380D02*
X151900000Y-65825714D01*
X151900000Y-65492380D02*
X151852380Y-65540000D01*
X151900000Y-65587619D01*
X151947619Y-65540000D01*
X151900000Y-65492380D01*
X151900000Y-65587619D01*
X152376190Y-66492380D02*
X152376190Y-65492380D01*
X152376190Y-65873333D02*
X152471428Y-65825714D01*
X152661904Y-65825714D01*
X152757142Y-65873333D01*
X152804761Y-65920952D01*
X152852380Y-66016190D01*
X152852380Y-66301904D01*
X152804761Y-66397142D01*
X152757142Y-66444761D01*
X152661904Y-66492380D01*
X152471428Y-66492380D01*
X152376190Y-66444761D01*
X153804761Y-66492380D02*
X153233333Y-66492380D01*
X153519047Y-66492380D02*
X153519047Y-65492380D01*
X153423809Y-65635238D01*
X153328571Y-65730476D01*
X153233333Y-65778095D01*
%TO.C,bat1*%
X155507142Y-98543333D02*
X155554761Y-98590952D01*
X155602380Y-98733809D01*
X155602380Y-98829047D01*
X155554761Y-98971904D01*
X155459523Y-99067142D01*
X155364285Y-99114761D01*
X155173809Y-99162380D01*
X155030952Y-99162380D01*
X154840476Y-99114761D01*
X154745238Y-99067142D01*
X154650000Y-98971904D01*
X154602380Y-98829047D01*
X154602380Y-98733809D01*
X154650000Y-98590952D01*
X154697619Y-98543333D01*
X155602380Y-97971904D02*
X155554761Y-98067142D01*
X155507142Y-98114761D01*
X155411904Y-98162380D01*
X155126190Y-98162380D01*
X155030952Y-98114761D01*
X154983333Y-98067142D01*
X154935714Y-97971904D01*
X154935714Y-97829047D01*
X154983333Y-97733809D01*
X155030952Y-97686190D01*
X155126190Y-97638571D01*
X155411904Y-97638571D01*
X155507142Y-97686190D01*
X155554761Y-97733809D01*
X155602380Y-97829047D01*
X155602380Y-97971904D01*
X154935714Y-97210000D02*
X155602380Y-97210000D01*
X155030952Y-97210000D02*
X154983333Y-97162380D01*
X154935714Y-97067142D01*
X154935714Y-96924285D01*
X154983333Y-96829047D01*
X155078571Y-96781428D01*
X155602380Y-96781428D01*
X154935714Y-96305238D02*
X155602380Y-96305238D01*
X155030952Y-96305238D02*
X154983333Y-96257619D01*
X154935714Y-96162380D01*
X154935714Y-96019523D01*
X154983333Y-95924285D01*
X155078571Y-95876666D01*
X155602380Y-95876666D01*
X155697619Y-95638571D02*
X155697619Y-94876666D01*
X154602380Y-94448095D02*
X154602380Y-94352857D01*
X154650000Y-94257619D01*
X154697619Y-94210000D01*
X154792857Y-94162380D01*
X154983333Y-94114761D01*
X155221428Y-94114761D01*
X155411904Y-94162380D01*
X155507142Y-94210000D01*
X155554761Y-94257619D01*
X155602380Y-94352857D01*
X155602380Y-94448095D01*
X155554761Y-94543333D01*
X155507142Y-94590952D01*
X155411904Y-94638571D01*
X155221428Y-94686190D01*
X154983333Y-94686190D01*
X154792857Y-94638571D01*
X154697619Y-94590952D01*
X154650000Y-94543333D01*
X154602380Y-94448095D01*
X155602380Y-93162380D02*
X155602380Y-93733809D01*
X155602380Y-93448095D02*
X154602380Y-93448095D01*
X154745238Y-93543333D01*
X154840476Y-93638571D01*
X154888095Y-93733809D01*
X155602380Y-92829047D02*
X154935714Y-92305238D01*
X154935714Y-92829047D02*
X155602380Y-92305238D01*
X154602380Y-91733809D02*
X154602380Y-91638571D01*
X154650000Y-91543333D01*
X154697619Y-91495714D01*
X154792857Y-91448095D01*
X154983333Y-91400476D01*
X155221428Y-91400476D01*
X155411904Y-91448095D01*
X155507142Y-91495714D01*
X155554761Y-91543333D01*
X155602380Y-91638571D01*
X155602380Y-91733809D01*
X155554761Y-91829047D01*
X155507142Y-91876666D01*
X155411904Y-91924285D01*
X155221428Y-91971904D01*
X154983333Y-91971904D01*
X154792857Y-91924285D01*
X154697619Y-91876666D01*
X154650000Y-91829047D01*
X154602380Y-91733809D01*
X154697619Y-91019523D02*
X154650000Y-90971904D01*
X154602380Y-90876666D01*
X154602380Y-90638571D01*
X154650000Y-90543333D01*
X154697619Y-90495714D01*
X154792857Y-90448095D01*
X154888095Y-90448095D01*
X155030952Y-90495714D01*
X155602380Y-91067142D01*
X155602380Y-90448095D01*
X155697619Y-90257619D02*
X155697619Y-89495714D01*
X155602380Y-89257619D02*
X154602380Y-89257619D01*
X155316666Y-88924285D01*
X154602380Y-88590952D01*
X155602380Y-88590952D01*
X155602380Y-87686190D02*
X155078571Y-87686190D01*
X154983333Y-87733809D01*
X154935714Y-87829047D01*
X154935714Y-88019523D01*
X154983333Y-88114761D01*
X155554761Y-87686190D02*
X155602380Y-87781428D01*
X155602380Y-88019523D01*
X155554761Y-88114761D01*
X155459523Y-88162380D01*
X155364285Y-88162380D01*
X155269047Y-88114761D01*
X155221428Y-88019523D01*
X155221428Y-87781428D01*
X155173809Y-87686190D01*
X155602380Y-87067142D02*
X155554761Y-87162380D01*
X155459523Y-87210000D01*
X154602380Y-87210000D01*
X155554761Y-86305238D02*
X155602380Y-86400476D01*
X155602380Y-86590952D01*
X155554761Y-86686190D01*
X155459523Y-86733809D01*
X155078571Y-86733809D01*
X154983333Y-86686190D01*
X154935714Y-86590952D01*
X154935714Y-86400476D01*
X154983333Y-86305238D01*
X155078571Y-86257619D01*
X155173809Y-86257619D01*
X155269047Y-86733809D01*
X157321428Y-93162380D02*
X157321428Y-92162380D01*
X157321428Y-92543333D02*
X157416666Y-92495714D01*
X157607142Y-92495714D01*
X157702380Y-92543333D01*
X157750000Y-92590952D01*
X157797619Y-92686190D01*
X157797619Y-92971904D01*
X157750000Y-93067142D01*
X157702380Y-93114761D01*
X157607142Y-93162380D01*
X157416666Y-93162380D01*
X157321428Y-93114761D01*
X158654761Y-93162380D02*
X158654761Y-92638571D01*
X158607142Y-92543333D01*
X158511904Y-92495714D01*
X158321428Y-92495714D01*
X158226190Y-92543333D01*
X158654761Y-93114761D02*
X158559523Y-93162380D01*
X158321428Y-93162380D01*
X158226190Y-93114761D01*
X158178571Y-93019523D01*
X158178571Y-92924285D01*
X158226190Y-92829047D01*
X158321428Y-92781428D01*
X158559523Y-92781428D01*
X158654761Y-92733809D01*
X158988095Y-92495714D02*
X159369047Y-92495714D01*
X159130952Y-92162380D02*
X159130952Y-93019523D01*
X159178571Y-93114761D01*
X159273809Y-93162380D01*
X159369047Y-93162380D01*
X160226190Y-93162380D02*
X159654761Y-93162380D01*
X159940476Y-93162380D02*
X159940476Y-92162380D01*
X159845238Y-92305238D01*
X159750000Y-92400476D01*
X159654761Y-92448095D01*
%TO.C,tp1*%
X167787142Y-103623333D02*
X167834761Y-103670952D01*
X167882380Y-103813809D01*
X167882380Y-103909047D01*
X167834761Y-104051904D01*
X167739523Y-104147142D01*
X167644285Y-104194761D01*
X167453809Y-104242380D01*
X167310952Y-104242380D01*
X167120476Y-104194761D01*
X167025238Y-104147142D01*
X166930000Y-104051904D01*
X166882380Y-103909047D01*
X166882380Y-103813809D01*
X166930000Y-103670952D01*
X166977619Y-103623333D01*
X167882380Y-103051904D02*
X167834761Y-103147142D01*
X167787142Y-103194761D01*
X167691904Y-103242380D01*
X167406190Y-103242380D01*
X167310952Y-103194761D01*
X167263333Y-103147142D01*
X167215714Y-103051904D01*
X167215714Y-102909047D01*
X167263333Y-102813809D01*
X167310952Y-102766190D01*
X167406190Y-102718571D01*
X167691904Y-102718571D01*
X167787142Y-102766190D01*
X167834761Y-102813809D01*
X167882380Y-102909047D01*
X167882380Y-103051904D01*
X167215714Y-102290000D02*
X167882380Y-102290000D01*
X167310952Y-102290000D02*
X167263333Y-102242380D01*
X167215714Y-102147142D01*
X167215714Y-102004285D01*
X167263333Y-101909047D01*
X167358571Y-101861428D01*
X167882380Y-101861428D01*
X167215714Y-101385238D02*
X167882380Y-101385238D01*
X167310952Y-101385238D02*
X167263333Y-101337619D01*
X167215714Y-101242380D01*
X167215714Y-101099523D01*
X167263333Y-101004285D01*
X167358571Y-100956666D01*
X167882380Y-100956666D01*
X167977619Y-100718571D02*
X167977619Y-99956666D01*
X166882380Y-99528095D02*
X166882380Y-99432857D01*
X166930000Y-99337619D01*
X166977619Y-99290000D01*
X167072857Y-99242380D01*
X167263333Y-99194761D01*
X167501428Y-99194761D01*
X167691904Y-99242380D01*
X167787142Y-99290000D01*
X167834761Y-99337619D01*
X167882380Y-99432857D01*
X167882380Y-99528095D01*
X167834761Y-99623333D01*
X167787142Y-99670952D01*
X167691904Y-99718571D01*
X167501428Y-99766190D01*
X167263333Y-99766190D01*
X167072857Y-99718571D01*
X166977619Y-99670952D01*
X166930000Y-99623333D01*
X166882380Y-99528095D01*
X167882380Y-98242380D02*
X167882380Y-98813809D01*
X167882380Y-98528095D02*
X166882380Y-98528095D01*
X167025238Y-98623333D01*
X167120476Y-98718571D01*
X167168095Y-98813809D01*
X167882380Y-97909047D02*
X167215714Y-97385238D01*
X167215714Y-97909047D02*
X167882380Y-97385238D01*
X166882380Y-96813809D02*
X166882380Y-96718571D01*
X166930000Y-96623333D01*
X166977619Y-96575714D01*
X167072857Y-96528095D01*
X167263333Y-96480476D01*
X167501428Y-96480476D01*
X167691904Y-96528095D01*
X167787142Y-96575714D01*
X167834761Y-96623333D01*
X167882380Y-96718571D01*
X167882380Y-96813809D01*
X167834761Y-96909047D01*
X167787142Y-96956666D01*
X167691904Y-97004285D01*
X167501428Y-97051904D01*
X167263333Y-97051904D01*
X167072857Y-97004285D01*
X166977619Y-96956666D01*
X166930000Y-96909047D01*
X166882380Y-96813809D01*
X166977619Y-96099523D02*
X166930000Y-96051904D01*
X166882380Y-95956666D01*
X166882380Y-95718571D01*
X166930000Y-95623333D01*
X166977619Y-95575714D01*
X167072857Y-95528095D01*
X167168095Y-95528095D01*
X167310952Y-95575714D01*
X167882380Y-96147142D01*
X167882380Y-95528095D01*
X167977619Y-95337619D02*
X167977619Y-94575714D01*
X167882380Y-94337619D02*
X166882380Y-94337619D01*
X167596666Y-94004285D01*
X166882380Y-93670952D01*
X167882380Y-93670952D01*
X167882380Y-92766190D02*
X167358571Y-92766190D01*
X167263333Y-92813809D01*
X167215714Y-92909047D01*
X167215714Y-93099523D01*
X167263333Y-93194761D01*
X167834761Y-92766190D02*
X167882380Y-92861428D01*
X167882380Y-93099523D01*
X167834761Y-93194761D01*
X167739523Y-93242380D01*
X167644285Y-93242380D01*
X167549047Y-93194761D01*
X167501428Y-93099523D01*
X167501428Y-92861428D01*
X167453809Y-92766190D01*
X167882380Y-92147142D02*
X167834761Y-92242380D01*
X167739523Y-92290000D01*
X166882380Y-92290000D01*
X167834761Y-91385238D02*
X167882380Y-91480476D01*
X167882380Y-91670952D01*
X167834761Y-91766190D01*
X167739523Y-91813809D01*
X167358571Y-91813809D01*
X167263333Y-91766190D01*
X167215714Y-91670952D01*
X167215714Y-91480476D01*
X167263333Y-91385238D01*
X167358571Y-91337619D01*
X167453809Y-91337619D01*
X167549047Y-91813809D01*
X162710952Y-97575714D02*
X163091904Y-97575714D01*
X162853809Y-97242380D02*
X162853809Y-98099523D01*
X162901428Y-98194761D01*
X162996666Y-98242380D01*
X163091904Y-98242380D01*
X163425238Y-97575714D02*
X163425238Y-98575714D01*
X163425238Y-97623333D02*
X163520476Y-97575714D01*
X163710952Y-97575714D01*
X163806190Y-97623333D01*
X163853809Y-97670952D01*
X163901428Y-97766190D01*
X163901428Y-98051904D01*
X163853809Y-98147142D01*
X163806190Y-98194761D01*
X163710952Y-98242380D01*
X163520476Y-98242380D01*
X163425238Y-98194761D01*
X164853809Y-98242380D02*
X164282380Y-98242380D01*
X164568095Y-98242380D02*
X164568095Y-97242380D01*
X164472857Y-97385238D01*
X164377619Y-97480476D01*
X164282380Y-97528095D01*
%TO.C,led1*%
X171597142Y-85843333D02*
X171644761Y-85890952D01*
X171692380Y-86033809D01*
X171692380Y-86129047D01*
X171644761Y-86271904D01*
X171549523Y-86367142D01*
X171454285Y-86414761D01*
X171263809Y-86462380D01*
X171120952Y-86462380D01*
X170930476Y-86414761D01*
X170835238Y-86367142D01*
X170740000Y-86271904D01*
X170692380Y-86129047D01*
X170692380Y-86033809D01*
X170740000Y-85890952D01*
X170787619Y-85843333D01*
X171692380Y-85271904D02*
X171644761Y-85367142D01*
X171597142Y-85414761D01*
X171501904Y-85462380D01*
X171216190Y-85462380D01*
X171120952Y-85414761D01*
X171073333Y-85367142D01*
X171025714Y-85271904D01*
X171025714Y-85129047D01*
X171073333Y-85033809D01*
X171120952Y-84986190D01*
X171216190Y-84938571D01*
X171501904Y-84938571D01*
X171597142Y-84986190D01*
X171644761Y-85033809D01*
X171692380Y-85129047D01*
X171692380Y-85271904D01*
X171025714Y-84510000D02*
X171692380Y-84510000D01*
X171120952Y-84510000D02*
X171073333Y-84462380D01*
X171025714Y-84367142D01*
X171025714Y-84224285D01*
X171073333Y-84129047D01*
X171168571Y-84081428D01*
X171692380Y-84081428D01*
X171025714Y-83605238D02*
X171692380Y-83605238D01*
X171120952Y-83605238D02*
X171073333Y-83557619D01*
X171025714Y-83462380D01*
X171025714Y-83319523D01*
X171073333Y-83224285D01*
X171168571Y-83176666D01*
X171692380Y-83176666D01*
X171787619Y-82938571D02*
X171787619Y-82176666D01*
X170692380Y-81748095D02*
X170692380Y-81652857D01*
X170740000Y-81557619D01*
X170787619Y-81510000D01*
X170882857Y-81462380D01*
X171073333Y-81414761D01*
X171311428Y-81414761D01*
X171501904Y-81462380D01*
X171597142Y-81510000D01*
X171644761Y-81557619D01*
X171692380Y-81652857D01*
X171692380Y-81748095D01*
X171644761Y-81843333D01*
X171597142Y-81890952D01*
X171501904Y-81938571D01*
X171311428Y-81986190D01*
X171073333Y-81986190D01*
X170882857Y-81938571D01*
X170787619Y-81890952D01*
X170740000Y-81843333D01*
X170692380Y-81748095D01*
X171692380Y-80462380D02*
X171692380Y-81033809D01*
X171692380Y-80748095D02*
X170692380Y-80748095D01*
X170835238Y-80843333D01*
X170930476Y-80938571D01*
X170978095Y-81033809D01*
X171692380Y-80129047D02*
X171025714Y-79605238D01*
X171025714Y-80129047D02*
X171692380Y-79605238D01*
X170692380Y-79033809D02*
X170692380Y-78938571D01*
X170740000Y-78843333D01*
X170787619Y-78795714D01*
X170882857Y-78748095D01*
X171073333Y-78700476D01*
X171311428Y-78700476D01*
X171501904Y-78748095D01*
X171597142Y-78795714D01*
X171644761Y-78843333D01*
X171692380Y-78938571D01*
X171692380Y-79033809D01*
X171644761Y-79129047D01*
X171597142Y-79176666D01*
X171501904Y-79224285D01*
X171311428Y-79271904D01*
X171073333Y-79271904D01*
X170882857Y-79224285D01*
X170787619Y-79176666D01*
X170740000Y-79129047D01*
X170692380Y-79033809D01*
X170787619Y-78319523D02*
X170740000Y-78271904D01*
X170692380Y-78176666D01*
X170692380Y-77938571D01*
X170740000Y-77843333D01*
X170787619Y-77795714D01*
X170882857Y-77748095D01*
X170978095Y-77748095D01*
X171120952Y-77795714D01*
X171692380Y-78367142D01*
X171692380Y-77748095D01*
X171787619Y-77557619D02*
X171787619Y-76795714D01*
X171692380Y-76557619D02*
X170692380Y-76557619D01*
X171406666Y-76224285D01*
X170692380Y-75890952D01*
X171692380Y-75890952D01*
X171692380Y-74986190D02*
X171168571Y-74986190D01*
X171073333Y-75033809D01*
X171025714Y-75129047D01*
X171025714Y-75319523D01*
X171073333Y-75414761D01*
X171644761Y-74986190D02*
X171692380Y-75081428D01*
X171692380Y-75319523D01*
X171644761Y-75414761D01*
X171549523Y-75462380D01*
X171454285Y-75462380D01*
X171359047Y-75414761D01*
X171311428Y-75319523D01*
X171311428Y-75081428D01*
X171263809Y-74986190D01*
X171692380Y-74367142D02*
X171644761Y-74462380D01*
X171549523Y-74510000D01*
X170692380Y-74510000D01*
X171644761Y-73605238D02*
X171692380Y-73700476D01*
X171692380Y-73890952D01*
X171644761Y-73986190D01*
X171549523Y-74033809D01*
X171168571Y-74033809D01*
X171073333Y-73986190D01*
X171025714Y-73890952D01*
X171025714Y-73700476D01*
X171073333Y-73605238D01*
X171168571Y-73557619D01*
X171263809Y-73557619D01*
X171359047Y-74033809D01*
X166401904Y-80462380D02*
X166306666Y-80414761D01*
X166259047Y-80319523D01*
X166259047Y-79462380D01*
X167163809Y-80414761D02*
X167068571Y-80462380D01*
X166878095Y-80462380D01*
X166782857Y-80414761D01*
X166735238Y-80319523D01*
X166735238Y-79938571D01*
X166782857Y-79843333D01*
X166878095Y-79795714D01*
X167068571Y-79795714D01*
X167163809Y-79843333D01*
X167211428Y-79938571D01*
X167211428Y-80033809D01*
X166735238Y-80129047D01*
X168068571Y-80462380D02*
X168068571Y-79462380D01*
X168068571Y-80414761D02*
X167973333Y-80462380D01*
X167782857Y-80462380D01*
X167687619Y-80414761D01*
X167640000Y-80367142D01*
X167592380Y-80271904D01*
X167592380Y-79986190D01*
X167640000Y-79890952D01*
X167687619Y-79843333D01*
X167782857Y-79795714D01*
X167973333Y-79795714D01*
X168068571Y-79843333D01*
X169068571Y-80462380D02*
X168497142Y-80462380D01*
X168782857Y-80462380D02*
X168782857Y-79462380D01*
X168687619Y-79605238D01*
X168592380Y-79700476D01*
X168497142Y-79748095D01*
%TO.C,Alt1*%
X158219538Y-88927497D02*
X158171760Y-88975275D01*
X158028427Y-89023052D01*
X157932872Y-89023052D01*
X157789539Y-88975275D01*
X157693983Y-88879719D01*
X157646206Y-88784164D01*
X157598428Y-88593053D01*
X157598428Y-88449720D01*
X157646206Y-88258610D01*
X157693983Y-88163054D01*
X157789539Y-88067499D01*
X157932872Y-88019721D01*
X158028427Y-88019721D01*
X158171760Y-88067499D01*
X158219538Y-88115277D01*
X158649537Y-88497498D02*
X158983980Y-88497498D01*
X159127313Y-89023052D02*
X158649537Y-89023052D01*
X158649537Y-88019721D01*
X159127313Y-88019721D01*
X159557312Y-89023052D02*
X159557312Y-88019721D01*
X159891756Y-88736386D01*
X160226200Y-88019721D01*
X160226200Y-89023052D01*
X160703976Y-88640831D02*
X161468419Y-88640831D01*
X162471750Y-89023052D02*
X161898418Y-89023052D01*
X162185084Y-89023052D02*
X162185084Y-88019721D01*
X162089529Y-88163054D01*
X161993973Y-88258610D01*
X161898418Y-88306387D01*
X162853971Y-88115277D02*
X162901749Y-88067499D01*
X162997304Y-88019721D01*
X163236193Y-88019721D01*
X163331748Y-88067499D01*
X163379526Y-88115277D01*
X163427303Y-88210832D01*
X163427303Y-88306387D01*
X163379526Y-88449720D01*
X162806194Y-89023052D01*
X163427303Y-89023052D01*
X164048413Y-88019721D02*
X164143968Y-88019721D01*
X164239524Y-88067499D01*
X164287301Y-88115277D01*
X164335079Y-88210832D01*
X164382857Y-88401943D01*
X164382857Y-88640831D01*
X164335079Y-88831942D01*
X164287301Y-88927497D01*
X164239524Y-88975275D01*
X164143968Y-89023052D01*
X164048413Y-89023052D01*
X163952858Y-88975275D01*
X163905080Y-88927497D01*
X163857302Y-88831942D01*
X163809525Y-88640831D01*
X163809525Y-88401943D01*
X163857302Y-88210832D01*
X163905080Y-88115277D01*
X163952858Y-88067499D01*
X164048413Y-88019721D01*
X164717300Y-88019721D02*
X165338410Y-88019721D01*
X165003966Y-88401943D01*
X165147299Y-88401943D01*
X165242855Y-88449720D01*
X165290632Y-88497498D01*
X165338410Y-88593053D01*
X165338410Y-88831942D01*
X165290632Y-88927497D01*
X165242855Y-88975275D01*
X165147299Y-89023052D01*
X164860633Y-89023052D01*
X164765078Y-88975275D01*
X164717300Y-88927497D01*
X166055075Y-89405274D02*
X166007297Y-89357496D01*
X165911742Y-89214163D01*
X165863964Y-89118608D01*
X165816187Y-88975275D01*
X165768409Y-88736386D01*
X165768409Y-88545276D01*
X165816187Y-88306387D01*
X165863964Y-88163054D01*
X165911742Y-88067499D01*
X166007297Y-87924166D01*
X166055075Y-87876388D01*
X166867295Y-88354165D02*
X166867295Y-89023052D01*
X166628407Y-87971944D02*
X166389519Y-88688609D01*
X167010628Y-88688609D01*
X167345072Y-88115277D02*
X167392850Y-88067499D01*
X167488405Y-88019721D01*
X167727293Y-88019721D01*
X167822849Y-88067499D01*
X167870626Y-88115277D01*
X167918404Y-88210832D01*
X167918404Y-88306387D01*
X167870626Y-88449720D01*
X167297294Y-89023052D01*
X167918404Y-89023052D01*
X168252848Y-89405274D02*
X168300625Y-89357496D01*
X168396181Y-89214163D01*
X168443958Y-89118608D01*
X168491736Y-88975275D01*
X168539514Y-88736386D01*
X168539514Y-88545276D01*
X168491736Y-88306387D01*
X168443958Y-88163054D01*
X168396181Y-88067499D01*
X168300625Y-87924166D01*
X168252848Y-87876388D01*
%TO.C,R1*%
X163968398Y-88722284D02*
X163396200Y-88722284D01*
X163682299Y-88722284D02*
X163682299Y-87720938D01*
X163586932Y-87863988D01*
X163491566Y-87959354D01*
X163396200Y-88007037D01*
X164826694Y-87720938D02*
X164635962Y-87720938D01*
X164540595Y-87768622D01*
X164492912Y-87816305D01*
X164397546Y-87959354D01*
X164349863Y-88150087D01*
X164349863Y-88531552D01*
X164397546Y-88626918D01*
X164445229Y-88674601D01*
X164540595Y-88722284D01*
X164731328Y-88722284D01*
X164826694Y-88674601D01*
X164874377Y-88626918D01*
X164922060Y-88531552D01*
X164922060Y-88293136D01*
X164874377Y-88197770D01*
X164826694Y-88150087D01*
X164731328Y-88102404D01*
X164540595Y-88102404D01*
X164445229Y-88150087D01*
X164397546Y-88197770D01*
X164349863Y-88293136D01*
X165875723Y-88722284D02*
X165303526Y-88722284D01*
X165589624Y-88722284D02*
X165589624Y-87720938D01*
X165494258Y-87863988D01*
X165398892Y-87959354D01*
X165303526Y-88007037D01*
X166734020Y-88054720D02*
X166734020Y-88722284D01*
X166495604Y-87673255D02*
X166257188Y-88388502D01*
X166877069Y-88388502D01*
X167306218Y-88722284D02*
X167496950Y-88722284D01*
X167592316Y-88674601D01*
X167640000Y-88626918D01*
X167735366Y-88483869D01*
X167783049Y-88293136D01*
X167783049Y-87911671D01*
X167735366Y-87816305D01*
X167687683Y-87768622D01*
X167592316Y-87720938D01*
X167401584Y-87720938D01*
X167306218Y-87768622D01*
X167258534Y-87816305D01*
X167210851Y-87911671D01*
X167210851Y-88150087D01*
X167258534Y-88245453D01*
X167306218Y-88293136D01*
X167401584Y-88340819D01*
X167592316Y-88340819D01*
X167687683Y-88293136D01*
X167735366Y-88245453D01*
X167783049Y-88150087D01*
X168116831Y-87720938D02*
X168784395Y-87720938D01*
X168355247Y-88722284D01*
X169070494Y-87720938D02*
X169738058Y-87720938D01*
X169308910Y-88722284D01*
X170119523Y-88340819D02*
X170882453Y-88340819D01*
X171883799Y-88722284D02*
X171311602Y-88722284D01*
X171597700Y-88722284D02*
X171597700Y-87720938D01*
X171502334Y-87863988D01*
X171406968Y-87959354D01*
X171311602Y-88007037D01*
%TO.C,H1*%
X162854285Y-64342380D02*
X162854285Y-63342380D01*
X163187619Y-64056666D01*
X163520952Y-63342380D01*
X163520952Y-64342380D01*
X164140000Y-64342380D02*
X164044761Y-64294761D01*
X163997142Y-64247142D01*
X163949523Y-64151904D01*
X163949523Y-63866190D01*
X163997142Y-63770952D01*
X164044761Y-63723333D01*
X164140000Y-63675714D01*
X164282857Y-63675714D01*
X164378095Y-63723333D01*
X164425714Y-63770952D01*
X164473333Y-63866190D01*
X164473333Y-64151904D01*
X164425714Y-64247142D01*
X164378095Y-64294761D01*
X164282857Y-64342380D01*
X164140000Y-64342380D01*
X165330476Y-63675714D02*
X165330476Y-64342380D01*
X164901904Y-63675714D02*
X164901904Y-64199523D01*
X164949523Y-64294761D01*
X165044761Y-64342380D01*
X165187619Y-64342380D01*
X165282857Y-64294761D01*
X165330476Y-64247142D01*
X165806666Y-63675714D02*
X165806666Y-64342380D01*
X165806666Y-63770952D02*
X165854285Y-63723333D01*
X165949523Y-63675714D01*
X166092380Y-63675714D01*
X166187619Y-63723333D01*
X166235238Y-63818571D01*
X166235238Y-64342380D01*
X166568571Y-63675714D02*
X166949523Y-63675714D01*
X166711428Y-63342380D02*
X166711428Y-64199523D01*
X166759047Y-64294761D01*
X166854285Y-64342380D01*
X166949523Y-64342380D01*
X167282857Y-64342380D02*
X167282857Y-63675714D01*
X167282857Y-63342380D02*
X167235238Y-63390000D01*
X167282857Y-63437619D01*
X167330476Y-63390000D01*
X167282857Y-63342380D01*
X167282857Y-63437619D01*
X167759047Y-63675714D02*
X167759047Y-64342380D01*
X167759047Y-63770952D02*
X167806666Y-63723333D01*
X167901904Y-63675714D01*
X168044761Y-63675714D01*
X168140000Y-63723333D01*
X168187619Y-63818571D01*
X168187619Y-64342380D01*
X169092380Y-63675714D02*
X169092380Y-64485238D01*
X169044761Y-64580476D01*
X168997142Y-64628095D01*
X168901904Y-64675714D01*
X168759047Y-64675714D01*
X168663809Y-64628095D01*
X169092380Y-64294761D02*
X168997142Y-64342380D01*
X168806666Y-64342380D01*
X168711428Y-64294761D01*
X168663809Y-64247142D01*
X168616190Y-64151904D01*
X168616190Y-63866190D01*
X168663809Y-63770952D01*
X168711428Y-63723333D01*
X168806666Y-63675714D01*
X168997142Y-63675714D01*
X169092380Y-63723333D01*
X169568571Y-64342380D02*
X169568571Y-63342380D01*
X169568571Y-63818571D02*
X170140000Y-63818571D01*
X170140000Y-64342380D02*
X170140000Y-63342380D01*
X170759047Y-64342380D02*
X170663809Y-64294761D01*
X170616190Y-64247142D01*
X170568571Y-64151904D01*
X170568571Y-63866190D01*
X170616190Y-63770952D01*
X170663809Y-63723333D01*
X170759047Y-63675714D01*
X170901904Y-63675714D01*
X170997142Y-63723333D01*
X171044761Y-63770952D01*
X171092380Y-63866190D01*
X171092380Y-64151904D01*
X171044761Y-64247142D01*
X170997142Y-64294761D01*
X170901904Y-64342380D01*
X170759047Y-64342380D01*
X171663809Y-64342380D02*
X171568571Y-64294761D01*
X171520952Y-64199523D01*
X171520952Y-63342380D01*
X172425714Y-64294761D02*
X172330476Y-64342380D01*
X172140000Y-64342380D01*
X172044761Y-64294761D01*
X171997142Y-64199523D01*
X171997142Y-63818571D01*
X172044761Y-63723333D01*
X172140000Y-63675714D01*
X172330476Y-63675714D01*
X172425714Y-63723333D01*
X172473333Y-63818571D01*
X172473333Y-63913809D01*
X171997142Y-64009047D01*
X167178095Y-60142380D02*
X167178095Y-59142380D01*
X167178095Y-59618571D02*
X167749523Y-59618571D01*
X167749523Y-60142380D02*
X167749523Y-59142380D01*
X168749523Y-60142380D02*
X168178095Y-60142380D01*
X168463809Y-60142380D02*
X168463809Y-59142380D01*
X168368571Y-59285238D01*
X168273333Y-59380476D01*
X168178095Y-59428095D01*
%TO.C,H2*%
X117134285Y-122762380D02*
X117134285Y-121762380D01*
X117467619Y-122476666D01*
X117800952Y-121762380D01*
X117800952Y-122762380D01*
X118420000Y-122762380D02*
X118324761Y-122714761D01*
X118277142Y-122667142D01*
X118229523Y-122571904D01*
X118229523Y-122286190D01*
X118277142Y-122190952D01*
X118324761Y-122143333D01*
X118420000Y-122095714D01*
X118562857Y-122095714D01*
X118658095Y-122143333D01*
X118705714Y-122190952D01*
X118753333Y-122286190D01*
X118753333Y-122571904D01*
X118705714Y-122667142D01*
X118658095Y-122714761D01*
X118562857Y-122762380D01*
X118420000Y-122762380D01*
X119610476Y-122095714D02*
X119610476Y-122762380D01*
X119181904Y-122095714D02*
X119181904Y-122619523D01*
X119229523Y-122714761D01*
X119324761Y-122762380D01*
X119467619Y-122762380D01*
X119562857Y-122714761D01*
X119610476Y-122667142D01*
X120086666Y-122095714D02*
X120086666Y-122762380D01*
X120086666Y-122190952D02*
X120134285Y-122143333D01*
X120229523Y-122095714D01*
X120372380Y-122095714D01*
X120467619Y-122143333D01*
X120515238Y-122238571D01*
X120515238Y-122762380D01*
X120848571Y-122095714D02*
X121229523Y-122095714D01*
X120991428Y-121762380D02*
X120991428Y-122619523D01*
X121039047Y-122714761D01*
X121134285Y-122762380D01*
X121229523Y-122762380D01*
X121562857Y-122762380D02*
X121562857Y-122095714D01*
X121562857Y-121762380D02*
X121515238Y-121810000D01*
X121562857Y-121857619D01*
X121610476Y-121810000D01*
X121562857Y-121762380D01*
X121562857Y-121857619D01*
X122039047Y-122095714D02*
X122039047Y-122762380D01*
X122039047Y-122190952D02*
X122086666Y-122143333D01*
X122181904Y-122095714D01*
X122324761Y-122095714D01*
X122420000Y-122143333D01*
X122467619Y-122238571D01*
X122467619Y-122762380D01*
X123372380Y-122095714D02*
X123372380Y-122905238D01*
X123324761Y-123000476D01*
X123277142Y-123048095D01*
X123181904Y-123095714D01*
X123039047Y-123095714D01*
X122943809Y-123048095D01*
X123372380Y-122714761D02*
X123277142Y-122762380D01*
X123086666Y-122762380D01*
X122991428Y-122714761D01*
X122943809Y-122667142D01*
X122896190Y-122571904D01*
X122896190Y-122286190D01*
X122943809Y-122190952D01*
X122991428Y-122143333D01*
X123086666Y-122095714D01*
X123277142Y-122095714D01*
X123372380Y-122143333D01*
X123848571Y-122762380D02*
X123848571Y-121762380D01*
X123848571Y-122238571D02*
X124420000Y-122238571D01*
X124420000Y-122762380D02*
X124420000Y-121762380D01*
X125039047Y-122762380D02*
X124943809Y-122714761D01*
X124896190Y-122667142D01*
X124848571Y-122571904D01*
X124848571Y-122286190D01*
X124896190Y-122190952D01*
X124943809Y-122143333D01*
X125039047Y-122095714D01*
X125181904Y-122095714D01*
X125277142Y-122143333D01*
X125324761Y-122190952D01*
X125372380Y-122286190D01*
X125372380Y-122571904D01*
X125324761Y-122667142D01*
X125277142Y-122714761D01*
X125181904Y-122762380D01*
X125039047Y-122762380D01*
X125943809Y-122762380D02*
X125848571Y-122714761D01*
X125800952Y-122619523D01*
X125800952Y-121762380D01*
X126705714Y-122714761D02*
X126610476Y-122762380D01*
X126420000Y-122762380D01*
X126324761Y-122714761D01*
X126277142Y-122619523D01*
X126277142Y-122238571D01*
X126324761Y-122143333D01*
X126420000Y-122095714D01*
X126610476Y-122095714D01*
X126705714Y-122143333D01*
X126753333Y-122238571D01*
X126753333Y-122333809D01*
X126277142Y-122429047D01*
X121458095Y-118562380D02*
X121458095Y-117562380D01*
X121458095Y-118038571D02*
X122029523Y-118038571D01*
X122029523Y-118562380D02*
X122029523Y-117562380D01*
X122458095Y-117657619D02*
X122505714Y-117610000D01*
X122600952Y-117562380D01*
X122839047Y-117562380D01*
X122934285Y-117610000D01*
X122981904Y-117657619D01*
X123029523Y-117752857D01*
X123029523Y-117848095D01*
X122981904Y-117990952D01*
X122410476Y-118562380D01*
X123029523Y-118562380D01*
%TD*%
M02*
