%TF.GenerationSoftware,KiCad,Pcbnew,(5.1.12)-1*%
%TF.CreationDate,2021-12-20T17:02:31+01:00*%
%TF.ProjectId,PCB_Chair_tracker,5043425f-4368-4616-9972-5f747261636b,rev?*%
%TF.SameCoordinates,Original*%
%TF.FileFunction,Other,User*%
%FSLAX46Y46*%
G04 Gerber Fmt 4.6, Leading zero omitted, Abs format (unit mm)*
G04 Created by KiCad (PCBNEW (5.1.12)-1) date 2021-12-20 17:02:31*
%MOMM*%
%LPD*%
G01*
G04 APERTURE LIST*
%ADD10C,0.050000*%
G04 APERTURE END LIST*
D10*
%TO.C,H1*%
X171090000Y-118110000D02*
G75*
G03*
X171090000Y-118110000I-3450000J0D01*
G01*
%TO.C,H2*%
X125370000Y-59690000D02*
G75*
G03*
X125370000Y-59690000I-3450000J0D01*
G01*
%TO.C,tp2*%
X155470000Y-95990000D02*
X149320000Y-95990000D01*
X149320000Y-95990000D02*
X149320000Y-99590000D01*
X149320000Y-99590000D02*
X155470000Y-99590000D01*
X155470000Y-99590000D02*
X155470000Y-95990000D01*
%TO.C,ESP1*%
X143550001Y-113280000D02*
X123230001Y-113280000D01*
X120440001Y-110490000D02*
X120440001Y-67310000D01*
X123230001Y-64520000D02*
X143550001Y-64520000D01*
X146340001Y-67310000D02*
X146340001Y-110490000D01*
X123230001Y-113280000D02*
G75*
G02*
X120440001Y-110490000I0J2790000D01*
G01*
X120440001Y-67310000D02*
G75*
G02*
X123230001Y-64520000I2790000J0D01*
G01*
X143550001Y-64520000D02*
G75*
G02*
X146340001Y-67310000I0J-2790000D01*
G01*
X146340001Y-110490000D02*
G75*
G02*
X143550001Y-113280000I-2790000J0D01*
G01*
%TO.C,Prox1*%
X165840000Y-64240000D02*
X165840000Y-75440000D01*
X165840000Y-75440000D02*
X169440000Y-75440000D01*
X169440000Y-75440000D02*
X169440000Y-64240000D01*
X169440000Y-64240000D02*
X165840000Y-64240000D01*
%TO.C,Vib1*%
X148060000Y-67840000D02*
X156710000Y-67840000D01*
X156710000Y-67840000D02*
X156710000Y-64240000D01*
X156710000Y-64240000D02*
X148060000Y-64240000D01*
X148060000Y-64240000D02*
X148060000Y-67840000D01*
%TO.C,bat1*%
X161820000Y-90910000D02*
X155670000Y-90910000D01*
X155670000Y-90910000D02*
X155670000Y-94510000D01*
X155670000Y-94510000D02*
X161820000Y-94510000D01*
X161820000Y-94510000D02*
X161820000Y-90910000D01*
%TO.C,tp1*%
X160760000Y-95990000D02*
X160760000Y-99590000D01*
X166910000Y-95990000D02*
X160760000Y-95990000D01*
X166910000Y-99590000D02*
X166910000Y-95990000D01*
X160760000Y-99590000D02*
X166910000Y-99590000D01*
%TO.C,led1*%
X164570000Y-78210000D02*
X164570000Y-81810000D01*
X170720000Y-78210000D02*
X164570000Y-78210000D01*
X170720000Y-81810000D02*
X170720000Y-78210000D01*
X164570000Y-81810000D02*
X170720000Y-81810000D01*
%TO.C,Alt1*%
X162460000Y-81280000D02*
G75*
G03*
X162460000Y-81280000I-6250000J0D01*
G01*
%TO.C,R1*%
X165540000Y-85890000D02*
X163640000Y-85890000D01*
X163640000Y-85890000D02*
X163640000Y-84290000D01*
X163640000Y-84290000D02*
X165540000Y-84290000D01*
X165540000Y-84290000D02*
X165540000Y-83840000D01*
X165540000Y-83840000D02*
X169740000Y-83840000D01*
X169740000Y-83840000D02*
X169740000Y-84290000D01*
X169740000Y-84290000D02*
X171640000Y-84290000D01*
X171640000Y-84290000D02*
X171640000Y-85890000D01*
X171640000Y-85890000D02*
X169740000Y-85890000D01*
X169740000Y-85890000D02*
X169740000Y-86340000D01*
X169740000Y-86340000D02*
X165540000Y-86340000D01*
X165540000Y-86340000D02*
X165540000Y-85890000D01*
%TO.C,H1*%
X171090000Y-59690000D02*
G75*
G03*
X171090000Y-59690000I-3450000J0D01*
G01*
%TO.C,H2*%
X125370000Y-118110000D02*
G75*
G03*
X125370000Y-118110000I-3450000J0D01*
G01*
%TD*%
M02*
