M48
; DRILL file {KiCad (5.1.12)-1} date 12/20/21 17:02:02
; FORMAT={-:-/ absolute / metric / decimal}
; #@! TF.CreationDate,2021-12-20T17:02:02+01:00
; #@! TF.GenerationSoftware,Kicad,Pcbnew,(5.1.12)-1
; #@! TF.FileFunction,Plated,1,2,PTH
FMAT,2
METRIC
T1C0.700
T2C0.800
T3C0.889
T4C1.000
%
G90
G05
T1
X164.44Y-85.09
X170.84Y-85.09
T2
X152.96Y-81.28
X159.46Y-81.28
T3
X121.96Y-71.12
X121.96Y-73.66
X121.96Y-76.2
X121.96Y-78.74
X121.96Y-81.28
X121.96Y-83.82
X121.96Y-86.36
X121.96Y-88.9
X121.96Y-91.44
X121.96Y-93.98
X121.96Y-96.52
X121.96Y-99.06
X121.96Y-101.6
X121.96Y-104.14
X121.96Y-106.68
X144.82Y-71.12
X144.82Y-73.66
X144.82Y-76.2
X144.82Y-78.74
X144.82Y-81.28
X144.82Y-83.82
X144.82Y-86.36
X144.82Y-88.9
X144.82Y-91.44
X144.82Y-93.98
X144.82Y-96.52
X144.82Y-99.06
X144.82Y-101.6
X144.82Y-104.14
X144.82Y-106.68
T4
X149.86Y-66.04
X151.13Y-97.79
X152.4Y-66.04
X153.67Y-97.79
X154.94Y-66.04
X157.48Y-92.71
X160.02Y-92.71
X162.56Y-97.79
X165.1Y-97.79
X166.37Y-80.01
X167.64Y-66.04
X167.64Y-68.58
X167.64Y-71.12
X167.64Y-73.66
X168.91Y-80.01
T0
M30
