%TF.GenerationSoftware,KiCad,Pcbnew,(5.1.12)-1*%
%TF.CreationDate,2021-12-20T17:02:30+01:00*%
%TF.ProjectId,PCB_Chair_tracker,5043425f-4368-4616-9972-5f747261636b,rev?*%
%TF.SameCoordinates,Original*%
%TF.FileFunction,Copper,L2,Bot*%
%TF.FilePolarity,Positive*%
%FSLAX46Y46*%
G04 Gerber Fmt 4.6, Leading zero omitted, Abs format (unit mm)*
G04 Created by KiCad (PCBNEW (5.1.12)-1) date 2021-12-20 17:02:30*
%MOMM*%
%LPD*%
G01*
G04 APERTURE LIST*
%TA.AperFunction,NonConductor*%
%ADD10C,0.300000*%
%TD*%
%TA.AperFunction,ComponentPad*%
%ADD11R,1.700000X1.700000*%
%TD*%
%TA.AperFunction,ComponentPad*%
%ADD12O,1.700000X1.700000*%
%TD*%
%TA.AperFunction,ComponentPad*%
%ADD13R,1.930000X1.930000*%
%TD*%
%TA.AperFunction,ComponentPad*%
%ADD14C,1.930000*%
%TD*%
%TA.AperFunction,ComponentPad*%
%ADD15C,1.308000*%
%TD*%
%TA.AperFunction,ComponentPad*%
%ADD16C,1.100000*%
%TD*%
%TA.AperFunction,Conductor*%
%ADD17C,0.406400*%
%TD*%
%TA.AperFunction,Conductor*%
%ADD18C,0.254000*%
%TD*%
%TA.AperFunction,Conductor*%
%ADD19C,0.100000*%
%TD*%
G04 APERTURE END LIST*
D10*
X153871428Y-118558571D02*
X153871428Y-119630000D01*
X153942857Y-119844285D01*
X154085714Y-119987142D01*
X154300000Y-120058571D01*
X154442857Y-120058571D01*
X153157142Y-119915714D02*
X153085714Y-119987142D01*
X153157142Y-120058571D01*
X153228571Y-119987142D01*
X153157142Y-119915714D01*
X153157142Y-120058571D01*
X152514285Y-119630000D02*
X151800000Y-119630000D01*
X152657142Y-120058571D02*
X152157142Y-118558571D01*
X151657142Y-120058571D01*
X151157142Y-119915714D02*
X151085714Y-119987142D01*
X151157142Y-120058571D01*
X151228571Y-119987142D01*
X151157142Y-119915714D01*
X151157142Y-120058571D01*
X150514285Y-119987142D02*
X150300000Y-120058571D01*
X149942857Y-120058571D01*
X149800000Y-119987142D01*
X149728571Y-119915714D01*
X149657142Y-119772857D01*
X149657142Y-119630000D01*
X149728571Y-119487142D01*
X149800000Y-119415714D01*
X149942857Y-119344285D01*
X150228571Y-119272857D01*
X150371428Y-119201428D01*
X150442857Y-119130000D01*
X150514285Y-118987142D01*
X150514285Y-118844285D01*
X150442857Y-118701428D01*
X150371428Y-118630000D01*
X150228571Y-118558571D01*
X149871428Y-118558571D01*
X149657142Y-118630000D01*
X146657142Y-120058571D02*
X146728571Y-120058571D01*
X146871428Y-119987142D01*
X147085714Y-119772857D01*
X147442857Y-119344285D01*
X147585714Y-119130000D01*
X147657142Y-118915714D01*
X147657142Y-118772857D01*
X147585714Y-118630000D01*
X147442857Y-118558571D01*
X147371428Y-118558571D01*
X147228571Y-118630000D01*
X147157142Y-118772857D01*
X147157142Y-118844285D01*
X147228571Y-118987142D01*
X147300000Y-119058571D01*
X147728571Y-119344285D01*
X147800000Y-119415714D01*
X147871428Y-119558571D01*
X147871428Y-119772857D01*
X147800000Y-119915714D01*
X147728571Y-119987142D01*
X147585714Y-120058571D01*
X147371428Y-120058571D01*
X147228571Y-119987142D01*
X147157142Y-119915714D01*
X146942857Y-119630000D01*
X146871428Y-119415714D01*
X146871428Y-119272857D01*
X144442857Y-118558571D02*
X144442857Y-119630000D01*
X144514285Y-119844285D01*
X144657142Y-119987142D01*
X144871428Y-120058571D01*
X145014285Y-120058571D01*
X143728571Y-119915714D02*
X143657142Y-119987142D01*
X143728571Y-120058571D01*
X143800000Y-119987142D01*
X143728571Y-119915714D01*
X143728571Y-120058571D01*
X143085714Y-119630000D02*
X142371428Y-119630000D01*
X143228571Y-120058571D02*
X142728571Y-118558571D01*
X142228571Y-120058571D01*
X141728571Y-119915714D02*
X141657142Y-119987142D01*
X141728571Y-120058571D01*
X141800000Y-119987142D01*
X141728571Y-119915714D01*
X141728571Y-120058571D01*
X140228571Y-118630000D02*
X140371428Y-118558571D01*
X140585714Y-118558571D01*
X140800000Y-118630000D01*
X140942857Y-118772857D01*
X141014285Y-118915714D01*
X141085714Y-119201428D01*
X141085714Y-119415714D01*
X141014285Y-119701428D01*
X140942857Y-119844285D01*
X140800000Y-119987142D01*
X140585714Y-120058571D01*
X140442857Y-120058571D01*
X140228571Y-119987142D01*
X140157142Y-119915714D01*
X140157142Y-119415714D01*
X140442857Y-119415714D01*
X139514285Y-119915714D02*
X139442857Y-119987142D01*
X139514285Y-120058571D01*
X139585714Y-119987142D01*
X139514285Y-119915714D01*
X139514285Y-120058571D01*
X138800000Y-120058571D02*
X138800000Y-118558571D01*
X138300000Y-119630000D01*
X137800000Y-118558571D01*
X137800000Y-120058571D01*
X152315714Y-60225714D02*
X152387142Y-60297142D01*
X152601428Y-60368571D01*
X152744285Y-60368571D01*
X152958571Y-60297142D01*
X153101428Y-60154285D01*
X153172857Y-60011428D01*
X153244285Y-59725714D01*
X153244285Y-59511428D01*
X153172857Y-59225714D01*
X153101428Y-59082857D01*
X152958571Y-58940000D01*
X152744285Y-58868571D01*
X152601428Y-58868571D01*
X152387142Y-58940000D01*
X152315714Y-59011428D01*
X151672857Y-60368571D02*
X151672857Y-58868571D01*
X151672857Y-59582857D02*
X150815714Y-59582857D01*
X150815714Y-60368571D02*
X150815714Y-58868571D01*
X150172857Y-59940000D02*
X149458571Y-59940000D01*
X150315714Y-60368571D02*
X149815714Y-58868571D01*
X149315714Y-60368571D01*
X148815714Y-60368571D02*
X148815714Y-58868571D01*
X147244285Y-60368571D02*
X147744285Y-59654285D01*
X148101428Y-60368571D02*
X148101428Y-58868571D01*
X147530000Y-58868571D01*
X147387142Y-58940000D01*
X147315714Y-59011428D01*
X147244285Y-59154285D01*
X147244285Y-59368571D01*
X147315714Y-59511428D01*
X147387142Y-59582857D01*
X147530000Y-59654285D01*
X148101428Y-59654285D01*
X145672857Y-58868571D02*
X144815714Y-58868571D01*
X145244285Y-60368571D02*
X145244285Y-58868571D01*
X143458571Y-60368571D02*
X143958571Y-59654285D01*
X144315714Y-60368571D02*
X144315714Y-58868571D01*
X143744285Y-58868571D01*
X143601428Y-58940000D01*
X143530000Y-59011428D01*
X143458571Y-59154285D01*
X143458571Y-59368571D01*
X143530000Y-59511428D01*
X143601428Y-59582857D01*
X143744285Y-59654285D01*
X144315714Y-59654285D01*
X142887142Y-59940000D02*
X142172857Y-59940000D01*
X143030000Y-60368571D02*
X142530000Y-58868571D01*
X142030000Y-60368571D01*
X140672857Y-60225714D02*
X140744285Y-60297142D01*
X140958571Y-60368571D01*
X141101428Y-60368571D01*
X141315714Y-60297142D01*
X141458571Y-60154285D01*
X141530000Y-60011428D01*
X141601428Y-59725714D01*
X141601428Y-59511428D01*
X141530000Y-59225714D01*
X141458571Y-59082857D01*
X141315714Y-58940000D01*
X141101428Y-58868571D01*
X140958571Y-58868571D01*
X140744285Y-58940000D01*
X140672857Y-59011428D01*
X140030000Y-60368571D02*
X140030000Y-58868571D01*
X139172857Y-60368571D02*
X139815714Y-59511428D01*
X139172857Y-58868571D02*
X140030000Y-59725714D01*
X138530000Y-59582857D02*
X138030000Y-59582857D01*
X137815714Y-60368571D02*
X138530000Y-60368571D01*
X138530000Y-58868571D01*
X137815714Y-58868571D01*
X136315714Y-60368571D02*
X136815714Y-59654285D01*
X137172857Y-60368571D02*
X137172857Y-58868571D01*
X136601428Y-58868571D01*
X136458571Y-58940000D01*
X136387142Y-59011428D01*
X136315714Y-59154285D01*
X136315714Y-59368571D01*
X136387142Y-59511428D01*
X136458571Y-59582857D01*
X136601428Y-59654285D01*
X137172857Y-59654285D01*
D11*
%TO.P,tp2,1*%
%TO.N,/VIN*%
X153670000Y-97790000D03*
D12*
%TO.P,tp2,2*%
%TO.N,/B+*%
X151130000Y-97790000D03*
%TD*%
D13*
%TO.P,ESP1,J1_1*%
%TO.N,N/C*%
X121960001Y-71120000D03*
D14*
%TO.P,ESP1,J1_2*%
X121960001Y-73660000D03*
%TO.P,ESP1,J1_3*%
X121960001Y-76200000D03*
%TO.P,ESP1,J1_4*%
X121960001Y-78740000D03*
%TO.P,ESP1,J1_5*%
X121960001Y-81280000D03*
%TO.P,ESP1,J1_6*%
X121960001Y-83820000D03*
%TO.P,ESP1,J1_7*%
X121960001Y-86360000D03*
%TO.P,ESP1,J1_8*%
X121960001Y-88900000D03*
%TO.P,ESP1,J1_9*%
X121960001Y-91440000D03*
%TO.P,ESP1,J1_10*%
X121960001Y-93980000D03*
%TO.P,ESP1,J1_11*%
X121960001Y-96520000D03*
%TO.P,ESP1,J1_12*%
X121960001Y-99060000D03*
%TO.P,ESP1,J1_13*%
X121960001Y-101600000D03*
%TO.P,ESP1,J1_14*%
X121960001Y-104140000D03*
%TO.P,ESP1,J1_15*%
%TO.N,/VIN*%
X121960001Y-106680000D03*
D13*
%TO.P,ESP1,J2_1*%
%TO.N,/VIBRADOR_PIN*%
X144820001Y-71120000D03*
D14*
%TO.P,ESP1,J2_2*%
%TO.N,/TRIGGER_PIN*%
X144820001Y-73660000D03*
%TO.P,ESP1,J2_3*%
%TO.N,/ECHO_PIN*%
X144820001Y-76200000D03*
%TO.P,ESP1,J2_4*%
%TO.N,/ALARMA_PIN*%
X144820001Y-78740000D03*
%TO.P,ESP1,J2_5*%
%TO.N,N/C*%
X144820001Y-81280000D03*
%TO.P,ESP1,J2_6*%
X144820001Y-83820000D03*
%TO.P,ESP1,J2_7*%
X144820001Y-86360000D03*
%TO.P,ESP1,J2_8*%
X144820001Y-88900000D03*
%TO.P,ESP1,J2_9*%
X144820001Y-91440000D03*
%TO.P,ESP1,J2_10*%
X144820001Y-93980000D03*
%TO.P,ESP1,J2_11*%
X144820001Y-96520000D03*
%TO.P,ESP1,J2_12*%
X144820001Y-99060000D03*
%TO.P,ESP1,J2_13*%
X144820001Y-101600000D03*
%TO.P,ESP1,J2_14*%
%TO.N,/GND*%
X144820001Y-104140000D03*
%TO.P,ESP1,J2_15*%
%TO.N,/3V3*%
X144820001Y-106680000D03*
%TD*%
D11*
%TO.P,Prox1,1*%
%TO.N,/VIN*%
X167640000Y-66040000D03*
D12*
%TO.P,Prox1,2*%
%TO.N,/TRIGGER_PIN*%
X167640000Y-68580000D03*
%TO.P,Prox1,3*%
%TO.N,/ECHO_PIN*%
X167640000Y-71120000D03*
%TO.P,Prox1,4*%
%TO.N,/GND*%
X167640000Y-73660000D03*
%TD*%
D11*
%TO.P,Vib1,1*%
%TO.N,/VIBRADOR_PIN*%
X149860000Y-66040000D03*
D12*
%TO.P,Vib1,2*%
%TO.N,/VIN*%
X152400000Y-66040000D03*
%TO.P,Vib1,3*%
%TO.N,/GND*%
X154940000Y-66040000D03*
%TD*%
D11*
%TO.P,bat1,1*%
%TO.N,/B-*%
X160020000Y-92710000D03*
D12*
%TO.P,bat1,2*%
%TO.N,/B+*%
X157480000Y-92710000D03*
%TD*%
%TO.P,tp1,2*%
%TO.N,/GND*%
X165100000Y-97790000D03*
D11*
%TO.P,tp1,1*%
%TO.N,/B-*%
X162560000Y-97790000D03*
%TD*%
D12*
%TO.P,led1,2*%
%TO.N,Net-(R1-Pad2)*%
X168910000Y-80010000D03*
D11*
%TO.P,led1,1*%
%TO.N,/GND*%
X166370000Y-80010000D03*
%TD*%
D15*
%TO.P,Alt1,P*%
%TO.N,/ALARMA_PIN*%
X152960000Y-81280000D03*
%TO.P,Alt1,N*%
%TO.N,/GND*%
X159460000Y-81280000D03*
%TD*%
D16*
%TO.P,R1,1*%
%TO.N,/3V3*%
X164440000Y-85090000D03*
%TO.P,R1,2*%
%TO.N,Net-(R1-Pad2)*%
X170840000Y-85090000D03*
%TD*%
D17*
%TO.N,/VIN*%
X156210000Y-78740000D02*
X156210000Y-86360000D01*
X157480000Y-77470000D02*
X156210000Y-78740000D01*
X168910000Y-77470000D02*
X157480000Y-77470000D01*
X171450000Y-74930000D02*
X168910000Y-77470000D01*
X171450000Y-64770000D02*
X171450000Y-74930000D01*
X156210000Y-86360000D02*
X153670000Y-88900000D01*
X170180000Y-63500000D02*
X171450000Y-64770000D01*
X118110000Y-64770000D02*
X119380000Y-63500000D01*
X153670000Y-88900000D02*
X153670000Y-97790000D01*
X118110000Y-105410000D02*
X118110000Y-64770000D01*
X119380000Y-106680000D02*
X118110000Y-105410000D01*
X121960001Y-106680000D02*
X119380000Y-106680000D01*
X157480000Y-63500000D02*
X158750000Y-64770000D01*
X119380000Y-63500000D02*
X157480000Y-63500000D01*
X158750000Y-64770000D02*
X158750000Y-68580000D01*
X158750000Y-68580000D02*
X157480000Y-69850000D01*
X157480000Y-69850000D02*
X153670000Y-69850000D01*
X153670000Y-69850000D02*
X152400000Y-68580000D01*
X152400000Y-68580000D02*
X152400000Y-66040000D01*
X157480000Y-63500000D02*
X161290000Y-63500000D01*
X161290000Y-63500000D02*
X170180000Y-63500000D01*
X163830000Y-66040000D02*
X167640000Y-66040000D01*
X161290000Y-63500000D02*
X163830000Y-66040000D01*
%TO.N,/VIBRADOR_PIN*%
X144820001Y-71079999D02*
X149860000Y-66040000D01*
X144820001Y-71120000D02*
X144820001Y-71079999D01*
%TO.N,/TRIGGER_PIN*%
X144820001Y-73660000D02*
X147320000Y-73660000D01*
X147320000Y-73660000D02*
X149860000Y-71120000D01*
X149860000Y-71120000D02*
X160020000Y-71120000D01*
X162560000Y-68580000D02*
X167640000Y-68580000D01*
X160020000Y-71120000D02*
X162560000Y-68580000D01*
%TO.N,/ECHO_PIN*%
X163830000Y-71120000D02*
X167640000Y-71120000D01*
X161290000Y-73660000D02*
X163830000Y-71120000D01*
X151130000Y-73660000D02*
X161290000Y-73660000D01*
X148590000Y-76200000D02*
X151130000Y-73660000D01*
X144820001Y-76200000D02*
X148590000Y-76200000D01*
%TO.N,/ALARMA_PIN*%
X147360001Y-81280000D02*
X144820001Y-78740000D01*
X152960000Y-81280000D02*
X147360001Y-81280000D01*
%TO.N,/3V3*%
X167640000Y-106680000D02*
X144820001Y-106680000D01*
X170180000Y-104140000D02*
X167640000Y-106680000D01*
X170180000Y-92710000D02*
X170180000Y-104140000D01*
X164440000Y-86970000D02*
X170180000Y-92710000D01*
X164440000Y-85090000D02*
X164440000Y-86970000D01*
%TO.N,/B-*%
X160020000Y-95250000D02*
X162560000Y-97790000D01*
X160020000Y-92710000D02*
X160020000Y-95250000D01*
%TO.N,/B+*%
X151130000Y-97790000D02*
X151130000Y-100330000D01*
X151130000Y-100330000D02*
X152400000Y-101600000D01*
X152400000Y-101600000D02*
X156210000Y-101600000D01*
X156210000Y-101600000D02*
X157480000Y-100330000D01*
X157480000Y-100330000D02*
X157480000Y-92710000D01*
%TO.N,Net-(R1-Pad2)*%
X168910000Y-80620000D02*
X168910000Y-80010000D01*
X170840000Y-81940000D02*
X168910000Y-80010000D01*
X170840000Y-85090000D02*
X170840000Y-81940000D01*
%TD*%
D18*
%TO.N,/GND*%
X157911800Y-65117194D02*
X157911801Y-68232805D01*
X157132807Y-69011800D01*
X154017194Y-69011800D01*
X153238200Y-68232807D01*
X153238200Y-67265927D01*
X153346632Y-67193475D01*
X153553475Y-66986632D01*
X153675195Y-66804466D01*
X153744822Y-66921355D01*
X153939731Y-67137588D01*
X154173080Y-67311641D01*
X154435901Y-67436825D01*
X154583110Y-67481476D01*
X154813000Y-67360155D01*
X154813000Y-66167000D01*
X155067000Y-66167000D01*
X155067000Y-67360155D01*
X155296890Y-67481476D01*
X155444099Y-67436825D01*
X155706920Y-67311641D01*
X155940269Y-67137588D01*
X156135178Y-66921355D01*
X156284157Y-66671252D01*
X156381481Y-66396891D01*
X156260814Y-66167000D01*
X155067000Y-66167000D01*
X154813000Y-66167000D01*
X154793000Y-66167000D01*
X154793000Y-65913000D01*
X154813000Y-65913000D01*
X154813000Y-64719845D01*
X155067000Y-64719845D01*
X155067000Y-65913000D01*
X156260814Y-65913000D01*
X156381481Y-65683109D01*
X156284157Y-65408748D01*
X156135178Y-65158645D01*
X155940269Y-64942412D01*
X155706920Y-64768359D01*
X155444099Y-64643175D01*
X155296890Y-64598524D01*
X155067000Y-64719845D01*
X154813000Y-64719845D01*
X154583110Y-64598524D01*
X154435901Y-64643175D01*
X154173080Y-64768359D01*
X153939731Y-64942412D01*
X153744822Y-65158645D01*
X153675195Y-65275534D01*
X153553475Y-65093368D01*
X153346632Y-64886525D01*
X153103411Y-64724010D01*
X152833158Y-64612068D01*
X152546260Y-64555000D01*
X152253740Y-64555000D01*
X151966842Y-64612068D01*
X151696589Y-64724010D01*
X151453368Y-64886525D01*
X151321513Y-65018380D01*
X151299502Y-64945820D01*
X151240537Y-64835506D01*
X151161185Y-64738815D01*
X151064494Y-64659463D01*
X150954180Y-64600498D01*
X150834482Y-64564188D01*
X150710000Y-64551928D01*
X149010000Y-64551928D01*
X148885518Y-64564188D01*
X148765820Y-64600498D01*
X148655506Y-64659463D01*
X148558815Y-64738815D01*
X148479463Y-64835506D01*
X148420498Y-64945820D01*
X148384188Y-65065518D01*
X148371928Y-65190000D01*
X148371928Y-66342678D01*
X145197679Y-69516928D01*
X143911256Y-69516928D01*
X144201926Y-69459110D01*
X144608670Y-69290631D01*
X144974730Y-69046038D01*
X145286039Y-68734729D01*
X145530632Y-68368669D01*
X145699111Y-67961925D01*
X145785001Y-67530128D01*
X145785001Y-67089872D01*
X145699111Y-66658075D01*
X145530632Y-66251331D01*
X145286039Y-65885271D01*
X144974730Y-65573962D01*
X144608670Y-65329369D01*
X144201926Y-65160890D01*
X143770129Y-65075000D01*
X143329873Y-65075000D01*
X142898076Y-65160890D01*
X142491332Y-65329369D01*
X142125272Y-65573962D01*
X141813963Y-65885271D01*
X141569370Y-66251331D01*
X141400891Y-66658075D01*
X141315001Y-67089872D01*
X141315001Y-67530128D01*
X141400891Y-67961925D01*
X141569370Y-68368669D01*
X141813963Y-68734729D01*
X142125272Y-69046038D01*
X142491332Y-69290631D01*
X142898076Y-69459110D01*
X143329873Y-69545000D01*
X143678394Y-69545000D01*
X143610821Y-69565498D01*
X143500507Y-69624463D01*
X143403816Y-69703815D01*
X143324464Y-69800506D01*
X143265499Y-69910820D01*
X143229189Y-70030518D01*
X143216929Y-70155000D01*
X143216929Y-72085000D01*
X143229189Y-72209482D01*
X143265499Y-72329180D01*
X143324464Y-72439494D01*
X143403816Y-72536185D01*
X143500507Y-72615537D01*
X143569090Y-72652196D01*
X143402099Y-72902116D01*
X143281488Y-73193297D01*
X143220001Y-73502414D01*
X143220001Y-73817586D01*
X143281488Y-74126703D01*
X143402099Y-74417884D01*
X143577200Y-74679941D01*
X143800060Y-74902801D01*
X143840766Y-74930000D01*
X143800060Y-74957199D01*
X143577200Y-75180059D01*
X143402099Y-75442116D01*
X143281488Y-75733297D01*
X143220001Y-76042414D01*
X143220001Y-76357586D01*
X143281488Y-76666703D01*
X143402099Y-76957884D01*
X143577200Y-77219941D01*
X143800060Y-77442801D01*
X143840766Y-77470000D01*
X143800060Y-77497199D01*
X143577200Y-77720059D01*
X143402099Y-77982116D01*
X143281488Y-78273297D01*
X143220001Y-78582414D01*
X143220001Y-78897586D01*
X143281488Y-79206703D01*
X143402099Y-79497884D01*
X143577200Y-79759941D01*
X143800060Y-79982801D01*
X143840766Y-80010000D01*
X143800060Y-80037199D01*
X143577200Y-80260059D01*
X143402099Y-80522116D01*
X143281488Y-80813297D01*
X143220001Y-81122414D01*
X143220001Y-81437586D01*
X143281488Y-81746703D01*
X143402099Y-82037884D01*
X143577200Y-82299941D01*
X143800060Y-82522801D01*
X143840766Y-82550000D01*
X143800060Y-82577199D01*
X143577200Y-82800059D01*
X143402099Y-83062116D01*
X143281488Y-83353297D01*
X143220001Y-83662414D01*
X143220001Y-83977586D01*
X143281488Y-84286703D01*
X143402099Y-84577884D01*
X143577200Y-84839941D01*
X143800060Y-85062801D01*
X143840766Y-85090000D01*
X143800060Y-85117199D01*
X143577200Y-85340059D01*
X143402099Y-85602116D01*
X143281488Y-85893297D01*
X143220001Y-86202414D01*
X143220001Y-86517586D01*
X143281488Y-86826703D01*
X143402099Y-87117884D01*
X143577200Y-87379941D01*
X143800060Y-87602801D01*
X143840766Y-87630000D01*
X143800060Y-87657199D01*
X143577200Y-87880059D01*
X143402099Y-88142116D01*
X143281488Y-88433297D01*
X143220001Y-88742414D01*
X143220001Y-89057586D01*
X143281488Y-89366703D01*
X143402099Y-89657884D01*
X143577200Y-89919941D01*
X143800060Y-90142801D01*
X143840766Y-90170000D01*
X143800060Y-90197199D01*
X143577200Y-90420059D01*
X143402099Y-90682116D01*
X143281488Y-90973297D01*
X143220001Y-91282414D01*
X143220001Y-91597586D01*
X143281488Y-91906703D01*
X143402099Y-92197884D01*
X143577200Y-92459941D01*
X143800060Y-92682801D01*
X143840766Y-92710000D01*
X143800060Y-92737199D01*
X143577200Y-92960059D01*
X143402099Y-93222116D01*
X143281488Y-93513297D01*
X143220001Y-93822414D01*
X143220001Y-94137586D01*
X143281488Y-94446703D01*
X143402099Y-94737884D01*
X143577200Y-94999941D01*
X143800060Y-95222801D01*
X143840766Y-95250000D01*
X143800060Y-95277199D01*
X143577200Y-95500059D01*
X143402099Y-95762116D01*
X143281488Y-96053297D01*
X143220001Y-96362414D01*
X143220001Y-96677586D01*
X143281488Y-96986703D01*
X143402099Y-97277884D01*
X143577200Y-97539941D01*
X143800060Y-97762801D01*
X143840766Y-97790000D01*
X143800060Y-97817199D01*
X143577200Y-98040059D01*
X143402099Y-98302116D01*
X143281488Y-98593297D01*
X143220001Y-98902414D01*
X143220001Y-99217586D01*
X143281488Y-99526703D01*
X143402099Y-99817884D01*
X143577200Y-100079941D01*
X143800060Y-100302801D01*
X143840766Y-100330000D01*
X143800060Y-100357199D01*
X143577200Y-100580059D01*
X143402099Y-100842116D01*
X143281488Y-101133297D01*
X143220001Y-101442414D01*
X143220001Y-101757586D01*
X143281488Y-102066703D01*
X143402099Y-102357884D01*
X143577200Y-102619941D01*
X143800060Y-102842801D01*
X143925320Y-102926497D01*
X143889154Y-103029548D01*
X144820001Y-103960395D01*
X145750848Y-103029548D01*
X145714682Y-102926497D01*
X145839942Y-102842801D01*
X146062802Y-102619941D01*
X146237903Y-102357884D01*
X146358514Y-102066703D01*
X146420001Y-101757586D01*
X146420001Y-101442414D01*
X146358514Y-101133297D01*
X146237903Y-100842116D01*
X146062802Y-100580059D01*
X145839942Y-100357199D01*
X145799236Y-100330000D01*
X145839942Y-100302801D01*
X146062802Y-100079941D01*
X146237903Y-99817884D01*
X146358514Y-99526703D01*
X146420001Y-99217586D01*
X146420001Y-98902414D01*
X146358514Y-98593297D01*
X146237903Y-98302116D01*
X146062802Y-98040059D01*
X145839942Y-97817199D01*
X145799236Y-97790000D01*
X145839942Y-97762801D01*
X146062802Y-97539941D01*
X146237903Y-97277884D01*
X146358514Y-96986703D01*
X146420001Y-96677586D01*
X146420001Y-96362414D01*
X146358514Y-96053297D01*
X146237903Y-95762116D01*
X146062802Y-95500059D01*
X145839942Y-95277199D01*
X145799236Y-95250000D01*
X145839942Y-95222801D01*
X146062802Y-94999941D01*
X146237903Y-94737884D01*
X146358514Y-94446703D01*
X146420001Y-94137586D01*
X146420001Y-93822414D01*
X146358514Y-93513297D01*
X146237903Y-93222116D01*
X146062802Y-92960059D01*
X145839942Y-92737199D01*
X145799236Y-92710000D01*
X145839942Y-92682801D01*
X146062802Y-92459941D01*
X146237903Y-92197884D01*
X146358514Y-91906703D01*
X146420001Y-91597586D01*
X146420001Y-91282414D01*
X146358514Y-90973297D01*
X146237903Y-90682116D01*
X146062802Y-90420059D01*
X145839942Y-90197199D01*
X145799236Y-90170000D01*
X145839942Y-90142801D01*
X146062802Y-89919941D01*
X146237903Y-89657884D01*
X146358514Y-89366703D01*
X146420001Y-89057586D01*
X146420001Y-88742414D01*
X146358514Y-88433297D01*
X146237903Y-88142116D01*
X146062802Y-87880059D01*
X145839942Y-87657199D01*
X145799236Y-87630000D01*
X145839942Y-87602801D01*
X146062802Y-87379941D01*
X146237903Y-87117884D01*
X146358514Y-86826703D01*
X146420001Y-86517586D01*
X146420001Y-86202414D01*
X146358514Y-85893297D01*
X146237903Y-85602116D01*
X146062802Y-85340059D01*
X145839942Y-85117199D01*
X145799236Y-85090000D01*
X145839942Y-85062801D01*
X146062802Y-84839941D01*
X146237903Y-84577884D01*
X146358514Y-84286703D01*
X146420001Y-83977586D01*
X146420001Y-83662414D01*
X146358514Y-83353297D01*
X146237903Y-83062116D01*
X146062802Y-82800059D01*
X145839942Y-82577199D01*
X145799236Y-82550000D01*
X145839942Y-82522801D01*
X146062802Y-82299941D01*
X146237903Y-82037884D01*
X146358514Y-81746703D01*
X146405433Y-81510826D01*
X146738195Y-81843588D01*
X146764437Y-81875564D01*
X146796413Y-81901806D01*
X146796415Y-81901808D01*
X146842951Y-81939999D01*
X146892069Y-81980309D01*
X147037684Y-82058142D01*
X147195685Y-82106071D01*
X147318831Y-82118200D01*
X147318840Y-82118200D01*
X147360000Y-82122254D01*
X147401160Y-82118200D01*
X151975278Y-82118200D01*
X152138310Y-82281232D01*
X152349430Y-82422297D01*
X152584013Y-82519465D01*
X152833045Y-82569000D01*
X153086955Y-82569000D01*
X153335987Y-82519465D01*
X153570570Y-82422297D01*
X153781690Y-82281232D01*
X153961232Y-82101690D01*
X154102297Y-81890570D01*
X154199465Y-81655987D01*
X154249000Y-81406955D01*
X154249000Y-81153045D01*
X154199465Y-80904013D01*
X154102297Y-80669430D01*
X153961232Y-80458310D01*
X153781690Y-80278768D01*
X153570570Y-80137703D01*
X153335987Y-80040535D01*
X153086955Y-79991000D01*
X152833045Y-79991000D01*
X152584013Y-80040535D01*
X152349430Y-80137703D01*
X152138310Y-80278768D01*
X151975278Y-80441800D01*
X147707195Y-80441800D01*
X146377359Y-79111964D01*
X146420001Y-78897586D01*
X146420001Y-78582414D01*
X146358514Y-78273297D01*
X146237903Y-77982116D01*
X146062802Y-77720059D01*
X145839942Y-77497199D01*
X145799236Y-77470000D01*
X145839942Y-77442801D01*
X146062802Y-77219941D01*
X146184238Y-77038200D01*
X148548837Y-77038200D01*
X148590000Y-77042254D01*
X148631163Y-77038200D01*
X148631170Y-77038200D01*
X148754316Y-77026071D01*
X148912317Y-76978142D01*
X149057932Y-76900309D01*
X149185564Y-76795564D01*
X149211811Y-76763582D01*
X151477194Y-74498200D01*
X161248837Y-74498200D01*
X161290000Y-74502254D01*
X161331163Y-74498200D01*
X161331170Y-74498200D01*
X161454316Y-74486071D01*
X161612317Y-74438142D01*
X161757932Y-74360309D01*
X161885564Y-74255564D01*
X161911811Y-74223582D01*
X162118503Y-74016890D01*
X166198524Y-74016890D01*
X166243175Y-74164099D01*
X166368359Y-74426920D01*
X166542412Y-74660269D01*
X166758645Y-74855178D01*
X167008748Y-75004157D01*
X167283109Y-75101481D01*
X167513000Y-74980814D01*
X167513000Y-73787000D01*
X167767000Y-73787000D01*
X167767000Y-74980814D01*
X167996891Y-75101481D01*
X168271252Y-75004157D01*
X168521355Y-74855178D01*
X168737588Y-74660269D01*
X168911641Y-74426920D01*
X169036825Y-74164099D01*
X169081476Y-74016890D01*
X168960155Y-73787000D01*
X167767000Y-73787000D01*
X167513000Y-73787000D01*
X166319845Y-73787000D01*
X166198524Y-74016890D01*
X162118503Y-74016890D01*
X164177194Y-71958200D01*
X166414073Y-71958200D01*
X166486525Y-72066632D01*
X166693368Y-72273475D01*
X166875534Y-72395195D01*
X166758645Y-72464822D01*
X166542412Y-72659731D01*
X166368359Y-72893080D01*
X166243175Y-73155901D01*
X166198524Y-73303110D01*
X166319845Y-73533000D01*
X167513000Y-73533000D01*
X167513000Y-73513000D01*
X167767000Y-73513000D01*
X167767000Y-73533000D01*
X168960155Y-73533000D01*
X169081476Y-73303110D01*
X169036825Y-73155901D01*
X168911641Y-72893080D01*
X168737588Y-72659731D01*
X168521355Y-72464822D01*
X168404466Y-72395195D01*
X168586632Y-72273475D01*
X168793475Y-72066632D01*
X168955990Y-71823411D01*
X169067932Y-71553158D01*
X169125000Y-71266260D01*
X169125000Y-70973740D01*
X169067932Y-70686842D01*
X168955990Y-70416589D01*
X168793475Y-70173368D01*
X168586632Y-69966525D01*
X168412240Y-69850000D01*
X168586632Y-69733475D01*
X168793475Y-69526632D01*
X168955990Y-69283411D01*
X169067932Y-69013158D01*
X169125000Y-68726260D01*
X169125000Y-68433740D01*
X169067932Y-68146842D01*
X168955990Y-67876589D01*
X168793475Y-67633368D01*
X168661620Y-67501513D01*
X168734180Y-67479502D01*
X168844494Y-67420537D01*
X168941185Y-67341185D01*
X169020537Y-67244494D01*
X169079502Y-67134180D01*
X169115812Y-67014482D01*
X169128072Y-66890000D01*
X169128072Y-65190000D01*
X169115812Y-65065518D01*
X169079502Y-64945820D01*
X169020537Y-64835506D01*
X168941185Y-64738815D01*
X168844494Y-64659463D01*
X168734180Y-64600498D01*
X168614482Y-64564188D01*
X168490000Y-64551928D01*
X166790000Y-64551928D01*
X166665518Y-64564188D01*
X166545820Y-64600498D01*
X166435506Y-64659463D01*
X166338815Y-64738815D01*
X166259463Y-64835506D01*
X166200498Y-64945820D01*
X166164188Y-65065518D01*
X166151928Y-65190000D01*
X166151928Y-65201800D01*
X164177194Y-65201800D01*
X163313594Y-64338200D01*
X169832807Y-64338200D01*
X170611800Y-65117194D01*
X170611801Y-74582805D01*
X168562807Y-76631800D01*
X157521159Y-76631800D01*
X157479999Y-76627746D01*
X157438839Y-76631800D01*
X157438830Y-76631800D01*
X157315684Y-76643929D01*
X157157683Y-76691858D01*
X157012068Y-76769691D01*
X156884436Y-76874436D01*
X156858193Y-76906413D01*
X155646418Y-78118189D01*
X155614436Y-78144436D01*
X155509691Y-78272069D01*
X155431858Y-78417684D01*
X155383929Y-78575685D01*
X155371800Y-78698831D01*
X155371800Y-78698837D01*
X155367746Y-78740000D01*
X155371800Y-78781163D01*
X155371801Y-86012805D01*
X153106418Y-88278189D01*
X153074436Y-88304436D01*
X152969691Y-88432069D01*
X152891858Y-88577684D01*
X152843929Y-88735685D01*
X152831800Y-88858831D01*
X152831800Y-88858837D01*
X152827746Y-88900000D01*
X152831800Y-88941163D01*
X152831801Y-96301928D01*
X152820000Y-96301928D01*
X152695518Y-96314188D01*
X152575820Y-96350498D01*
X152465506Y-96409463D01*
X152368815Y-96488815D01*
X152289463Y-96585506D01*
X152230498Y-96695820D01*
X152208487Y-96768380D01*
X152076632Y-96636525D01*
X151833411Y-96474010D01*
X151563158Y-96362068D01*
X151276260Y-96305000D01*
X150983740Y-96305000D01*
X150696842Y-96362068D01*
X150426589Y-96474010D01*
X150183368Y-96636525D01*
X149976525Y-96843368D01*
X149814010Y-97086589D01*
X149702068Y-97356842D01*
X149645000Y-97643740D01*
X149645000Y-97936260D01*
X149702068Y-98223158D01*
X149814010Y-98493411D01*
X149976525Y-98736632D01*
X150183368Y-98943475D01*
X150291800Y-99015927D01*
X150291801Y-100288828D01*
X150287746Y-100330000D01*
X150303929Y-100494315D01*
X150351858Y-100652316D01*
X150429691Y-100797931D01*
X150449328Y-100821858D01*
X150534437Y-100925564D01*
X150566413Y-100951806D01*
X151778193Y-102163587D01*
X151804436Y-102195564D01*
X151932068Y-102300309D01*
X152077683Y-102378142D01*
X152235684Y-102426071D01*
X152358830Y-102438200D01*
X152358839Y-102438200D01*
X152399999Y-102442254D01*
X152441159Y-102438200D01*
X156168837Y-102438200D01*
X156210000Y-102442254D01*
X156251163Y-102438200D01*
X156251170Y-102438200D01*
X156374316Y-102426071D01*
X156532317Y-102378142D01*
X156677932Y-102300309D01*
X156805564Y-102195564D01*
X156831811Y-102163582D01*
X158043589Y-100951805D01*
X158075564Y-100925564D01*
X158180309Y-100797932D01*
X158258142Y-100652317D01*
X158306071Y-100494316D01*
X158318200Y-100371170D01*
X158318200Y-100371161D01*
X158322254Y-100330001D01*
X158318200Y-100288841D01*
X158318200Y-93935927D01*
X158426632Y-93863475D01*
X158558487Y-93731620D01*
X158580498Y-93804180D01*
X158639463Y-93914494D01*
X158718815Y-94011185D01*
X158815506Y-94090537D01*
X158925820Y-94149502D01*
X159045518Y-94185812D01*
X159170000Y-94198072D01*
X159181801Y-94198072D01*
X159181801Y-95208828D01*
X159177746Y-95250000D01*
X159193929Y-95414315D01*
X159241858Y-95572316D01*
X159319691Y-95717931D01*
X159319692Y-95717932D01*
X159424437Y-95845564D01*
X159456413Y-95871806D01*
X161071928Y-97487322D01*
X161071928Y-98640000D01*
X161084188Y-98764482D01*
X161120498Y-98884180D01*
X161179463Y-98994494D01*
X161258815Y-99091185D01*
X161355506Y-99170537D01*
X161465820Y-99229502D01*
X161585518Y-99265812D01*
X161710000Y-99278072D01*
X163410000Y-99278072D01*
X163534482Y-99265812D01*
X163654180Y-99229502D01*
X163764494Y-99170537D01*
X163861185Y-99091185D01*
X163940537Y-98994494D01*
X163999502Y-98884180D01*
X164023966Y-98803534D01*
X164099731Y-98887588D01*
X164333080Y-99061641D01*
X164595901Y-99186825D01*
X164743110Y-99231476D01*
X164973000Y-99110155D01*
X164973000Y-97917000D01*
X165227000Y-97917000D01*
X165227000Y-99110155D01*
X165456890Y-99231476D01*
X165604099Y-99186825D01*
X165866920Y-99061641D01*
X166100269Y-98887588D01*
X166295178Y-98671355D01*
X166444157Y-98421252D01*
X166541481Y-98146891D01*
X166420814Y-97917000D01*
X165227000Y-97917000D01*
X164973000Y-97917000D01*
X164953000Y-97917000D01*
X164953000Y-97663000D01*
X164973000Y-97663000D01*
X164973000Y-96469845D01*
X165227000Y-96469845D01*
X165227000Y-97663000D01*
X166420814Y-97663000D01*
X166541481Y-97433109D01*
X166444157Y-97158748D01*
X166295178Y-96908645D01*
X166100269Y-96692412D01*
X165866920Y-96518359D01*
X165604099Y-96393175D01*
X165456890Y-96348524D01*
X165227000Y-96469845D01*
X164973000Y-96469845D01*
X164743110Y-96348524D01*
X164595901Y-96393175D01*
X164333080Y-96518359D01*
X164099731Y-96692412D01*
X164023966Y-96776466D01*
X163999502Y-96695820D01*
X163940537Y-96585506D01*
X163861185Y-96488815D01*
X163764494Y-96409463D01*
X163654180Y-96350498D01*
X163534482Y-96314188D01*
X163410000Y-96301928D01*
X162257322Y-96301928D01*
X160858200Y-94902807D01*
X160858200Y-94198072D01*
X160870000Y-94198072D01*
X160994482Y-94185812D01*
X161114180Y-94149502D01*
X161224494Y-94090537D01*
X161321185Y-94011185D01*
X161400537Y-93914494D01*
X161459502Y-93804180D01*
X161495812Y-93684482D01*
X161508072Y-93560000D01*
X161508072Y-91860000D01*
X161495812Y-91735518D01*
X161459502Y-91615820D01*
X161400537Y-91505506D01*
X161321185Y-91408815D01*
X161224494Y-91329463D01*
X161114180Y-91270498D01*
X160994482Y-91234188D01*
X160870000Y-91221928D01*
X159170000Y-91221928D01*
X159045518Y-91234188D01*
X158925820Y-91270498D01*
X158815506Y-91329463D01*
X158718815Y-91408815D01*
X158639463Y-91505506D01*
X158580498Y-91615820D01*
X158558487Y-91688380D01*
X158426632Y-91556525D01*
X158183411Y-91394010D01*
X157913158Y-91282068D01*
X157626260Y-91225000D01*
X157333740Y-91225000D01*
X157046842Y-91282068D01*
X156776589Y-91394010D01*
X156533368Y-91556525D01*
X156326525Y-91763368D01*
X156164010Y-92006589D01*
X156052068Y-92276842D01*
X155995000Y-92563740D01*
X155995000Y-92856260D01*
X156052068Y-93143158D01*
X156164010Y-93413411D01*
X156326525Y-93656632D01*
X156533368Y-93863475D01*
X156641801Y-93935927D01*
X156641800Y-99982806D01*
X155862807Y-100761800D01*
X152747194Y-100761800D01*
X151968200Y-99982807D01*
X151968200Y-99015927D01*
X152076632Y-98943475D01*
X152208487Y-98811620D01*
X152230498Y-98884180D01*
X152289463Y-98994494D01*
X152368815Y-99091185D01*
X152465506Y-99170537D01*
X152575820Y-99229502D01*
X152695518Y-99265812D01*
X152820000Y-99278072D01*
X154520000Y-99278072D01*
X154644482Y-99265812D01*
X154764180Y-99229502D01*
X154874494Y-99170537D01*
X154971185Y-99091185D01*
X155050537Y-98994494D01*
X155109502Y-98884180D01*
X155145812Y-98764482D01*
X155158072Y-98640000D01*
X155158072Y-96940000D01*
X155145812Y-96815518D01*
X155109502Y-96695820D01*
X155050537Y-96585506D01*
X154971185Y-96488815D01*
X154874494Y-96409463D01*
X154764180Y-96350498D01*
X154644482Y-96314188D01*
X154520000Y-96301928D01*
X154508200Y-96301928D01*
X154508200Y-89247193D01*
X156773588Y-86981806D01*
X156805564Y-86955564D01*
X156910309Y-86827932D01*
X156988142Y-86682317D01*
X157036071Y-86524316D01*
X157048200Y-86401170D01*
X157048200Y-86401161D01*
X157052254Y-86360001D01*
X157048200Y-86318841D01*
X157048200Y-82168387D01*
X158751218Y-82168387D01*
X158805093Y-82397468D01*
X159035684Y-82503763D01*
X159282581Y-82563028D01*
X159536296Y-82572988D01*
X159787079Y-82533259D01*
X160025293Y-82445368D01*
X160114907Y-82397468D01*
X160168782Y-82168387D01*
X159460000Y-81459605D01*
X158751218Y-82168387D01*
X157048200Y-82168387D01*
X157048200Y-81356296D01*
X158167012Y-81356296D01*
X158206741Y-81607079D01*
X158294632Y-81845293D01*
X158342532Y-81934907D01*
X158571613Y-81988782D01*
X159280395Y-81280000D01*
X159639605Y-81280000D01*
X160348387Y-81988782D01*
X160577468Y-81934907D01*
X160683763Y-81704316D01*
X160743028Y-81457419D01*
X160752988Y-81203704D01*
X160713259Y-80952921D01*
X160678976Y-80860000D01*
X164881928Y-80860000D01*
X164894188Y-80984482D01*
X164930498Y-81104180D01*
X164989463Y-81214494D01*
X165068815Y-81311185D01*
X165165506Y-81390537D01*
X165275820Y-81449502D01*
X165395518Y-81485812D01*
X165520000Y-81498072D01*
X166084250Y-81495000D01*
X166243000Y-81336250D01*
X166243000Y-80137000D01*
X165043750Y-80137000D01*
X164885000Y-80295750D01*
X164881928Y-80860000D01*
X160678976Y-80860000D01*
X160625368Y-80714707D01*
X160577468Y-80625093D01*
X160348387Y-80571218D01*
X159639605Y-81280000D01*
X159280395Y-81280000D01*
X158571613Y-80571218D01*
X158342532Y-80625093D01*
X158236237Y-80855684D01*
X158176972Y-81102581D01*
X158167012Y-81356296D01*
X157048200Y-81356296D01*
X157048200Y-80391613D01*
X158751218Y-80391613D01*
X159460000Y-81100395D01*
X160168782Y-80391613D01*
X160114907Y-80162532D01*
X159884316Y-80056237D01*
X159637419Y-79996972D01*
X159383704Y-79987012D01*
X159132921Y-80026741D01*
X158894707Y-80114632D01*
X158805093Y-80162532D01*
X158751218Y-80391613D01*
X157048200Y-80391613D01*
X157048200Y-79160000D01*
X164881928Y-79160000D01*
X164885000Y-79724250D01*
X165043750Y-79883000D01*
X166243000Y-79883000D01*
X166243000Y-78683750D01*
X166497000Y-78683750D01*
X166497000Y-79883000D01*
X166517000Y-79883000D01*
X166517000Y-80137000D01*
X166497000Y-80137000D01*
X166497000Y-81336250D01*
X166655750Y-81495000D01*
X167220000Y-81498072D01*
X167344482Y-81485812D01*
X167464180Y-81449502D01*
X167574494Y-81390537D01*
X167671185Y-81311185D01*
X167750537Y-81214494D01*
X167809502Y-81104180D01*
X167831513Y-81031620D01*
X167963368Y-81163475D01*
X168206589Y-81325990D01*
X168476842Y-81437932D01*
X168763740Y-81495000D01*
X169056260Y-81495000D01*
X169184165Y-81469558D01*
X170001801Y-82287195D01*
X170001800Y-84252356D01*
X169919550Y-84334606D01*
X169789866Y-84528692D01*
X169700539Y-84744348D01*
X169655000Y-84973288D01*
X169655000Y-85206712D01*
X169700539Y-85435652D01*
X169789866Y-85651308D01*
X169919550Y-85845394D01*
X170084606Y-86010450D01*
X170278692Y-86140134D01*
X170494348Y-86229461D01*
X170723288Y-86275000D01*
X170956712Y-86275000D01*
X171185652Y-86229461D01*
X171401308Y-86140134D01*
X171595394Y-86010450D01*
X171760450Y-85845394D01*
X171890134Y-85651308D01*
X171979461Y-85435652D01*
X172025000Y-85206712D01*
X172025000Y-84973288D01*
X171979461Y-84744348D01*
X171890134Y-84528692D01*
X171760450Y-84334606D01*
X171678200Y-84252356D01*
X171678200Y-81981162D01*
X171682254Y-81939999D01*
X171678200Y-81898836D01*
X171678200Y-81898830D01*
X171666071Y-81775684D01*
X171618142Y-81617683D01*
X171540309Y-81472068D01*
X171518974Y-81446071D01*
X171461808Y-81376414D01*
X171461806Y-81376412D01*
X171435564Y-81344436D01*
X171403588Y-81318194D01*
X170369558Y-80284165D01*
X170395000Y-80156260D01*
X170395000Y-79863740D01*
X170337932Y-79576842D01*
X170225990Y-79306589D01*
X170063475Y-79063368D01*
X169856632Y-78856525D01*
X169613411Y-78694010D01*
X169343158Y-78582068D01*
X169056260Y-78525000D01*
X168763740Y-78525000D01*
X168476842Y-78582068D01*
X168206589Y-78694010D01*
X167963368Y-78856525D01*
X167831513Y-78988380D01*
X167809502Y-78915820D01*
X167750537Y-78805506D01*
X167671185Y-78708815D01*
X167574494Y-78629463D01*
X167464180Y-78570498D01*
X167344482Y-78534188D01*
X167220000Y-78521928D01*
X166655750Y-78525000D01*
X166497000Y-78683750D01*
X166243000Y-78683750D01*
X166084250Y-78525000D01*
X165520000Y-78521928D01*
X165395518Y-78534188D01*
X165275820Y-78570498D01*
X165165506Y-78629463D01*
X165068815Y-78708815D01*
X164989463Y-78805506D01*
X164930498Y-78915820D01*
X164894188Y-79035518D01*
X164881928Y-79160000D01*
X157048200Y-79160000D01*
X157048200Y-79087193D01*
X157827194Y-78308200D01*
X168868837Y-78308200D01*
X168910000Y-78312254D01*
X168951163Y-78308200D01*
X168951170Y-78308200D01*
X169074316Y-78296071D01*
X169232317Y-78248142D01*
X169377932Y-78170309D01*
X169505564Y-78065564D01*
X169531811Y-78033582D01*
X172013588Y-75551806D01*
X172045564Y-75525564D01*
X172060000Y-75507973D01*
X172060001Y-122530000D01*
X117500000Y-122530000D01*
X117500000Y-117889872D01*
X119685000Y-117889872D01*
X119685000Y-118330128D01*
X119770890Y-118761925D01*
X119939369Y-119168669D01*
X120183962Y-119534729D01*
X120495271Y-119846038D01*
X120861331Y-120090631D01*
X121268075Y-120259110D01*
X121699872Y-120345000D01*
X122140128Y-120345000D01*
X122571925Y-120259110D01*
X122978669Y-120090631D01*
X123344729Y-119846038D01*
X123656038Y-119534729D01*
X123900631Y-119168669D01*
X124069110Y-118761925D01*
X124155000Y-118330128D01*
X124155000Y-117889872D01*
X124095352Y-117590000D01*
X136657857Y-117590000D01*
X136657857Y-121410000D01*
X155442143Y-121410000D01*
X155442143Y-117889872D01*
X165405000Y-117889872D01*
X165405000Y-118330128D01*
X165490890Y-118761925D01*
X165659369Y-119168669D01*
X165903962Y-119534729D01*
X166215271Y-119846038D01*
X166581331Y-120090631D01*
X166988075Y-120259110D01*
X167419872Y-120345000D01*
X167860128Y-120345000D01*
X168291925Y-120259110D01*
X168698669Y-120090631D01*
X169064729Y-119846038D01*
X169376038Y-119534729D01*
X169620631Y-119168669D01*
X169789110Y-118761925D01*
X169875000Y-118330128D01*
X169875000Y-117889872D01*
X169789110Y-117458075D01*
X169620631Y-117051331D01*
X169376038Y-116685271D01*
X169064729Y-116373962D01*
X168698669Y-116129369D01*
X168291925Y-115960890D01*
X167860128Y-115875000D01*
X167419872Y-115875000D01*
X166988075Y-115960890D01*
X166581331Y-116129369D01*
X166215271Y-116373962D01*
X165903962Y-116685271D01*
X165659369Y-117051331D01*
X165490890Y-117458075D01*
X165405000Y-117889872D01*
X155442143Y-117889872D01*
X155442143Y-117590000D01*
X136657857Y-117590000D01*
X124095352Y-117590000D01*
X124069110Y-117458075D01*
X123900631Y-117051331D01*
X123656038Y-116685271D01*
X123344729Y-116373962D01*
X122978669Y-116129369D01*
X122571925Y-115960890D01*
X122140128Y-115875000D01*
X121699872Y-115875000D01*
X121268075Y-115960890D01*
X120861331Y-116129369D01*
X120495271Y-116373962D01*
X120183962Y-116685271D01*
X119939369Y-117051331D01*
X119770890Y-117458075D01*
X119685000Y-117889872D01*
X117500000Y-117889872D01*
X117500000Y-110269872D01*
X120995001Y-110269872D01*
X120995001Y-110710128D01*
X121080891Y-111141925D01*
X121249370Y-111548669D01*
X121493963Y-111914729D01*
X121805272Y-112226038D01*
X122171332Y-112470631D01*
X122578076Y-112639110D01*
X123009873Y-112725000D01*
X123450129Y-112725000D01*
X123881926Y-112639110D01*
X124288670Y-112470631D01*
X124654730Y-112226038D01*
X124966039Y-111914729D01*
X125210632Y-111548669D01*
X125379111Y-111141925D01*
X125465001Y-110710128D01*
X125465001Y-110269872D01*
X141315001Y-110269872D01*
X141315001Y-110710128D01*
X141400891Y-111141925D01*
X141569370Y-111548669D01*
X141813963Y-111914729D01*
X142125272Y-112226038D01*
X142491332Y-112470631D01*
X142898076Y-112639110D01*
X143329873Y-112725000D01*
X143770129Y-112725000D01*
X144201926Y-112639110D01*
X144608670Y-112470631D01*
X144974730Y-112226038D01*
X145286039Y-111914729D01*
X145530632Y-111548669D01*
X145699111Y-111141925D01*
X145785001Y-110710128D01*
X145785001Y-110269872D01*
X145699111Y-109838075D01*
X145530632Y-109431331D01*
X145286039Y-109065271D01*
X144974730Y-108753962D01*
X144608670Y-108509369D01*
X144201926Y-108340890D01*
X143770129Y-108255000D01*
X143329873Y-108255000D01*
X142898076Y-108340890D01*
X142491332Y-108509369D01*
X142125272Y-108753962D01*
X141813963Y-109065271D01*
X141569370Y-109431331D01*
X141400891Y-109838075D01*
X141315001Y-110269872D01*
X125465001Y-110269872D01*
X125379111Y-109838075D01*
X125210632Y-109431331D01*
X124966039Y-109065271D01*
X124654730Y-108753962D01*
X124288670Y-108509369D01*
X123881926Y-108340890D01*
X123450129Y-108255000D01*
X123009873Y-108255000D01*
X122578076Y-108340890D01*
X122171332Y-108509369D01*
X121805272Y-108753962D01*
X121493963Y-109065271D01*
X121249370Y-109431331D01*
X121080891Y-109838075D01*
X120995001Y-110269872D01*
X117500000Y-110269872D01*
X117500000Y-105987974D01*
X117514436Y-106005564D01*
X117546418Y-106031811D01*
X118758193Y-107243587D01*
X118784436Y-107275564D01*
X118912068Y-107380309D01*
X119057683Y-107458142D01*
X119215684Y-107506071D01*
X119338830Y-107518200D01*
X119338839Y-107518200D01*
X119379999Y-107522254D01*
X119421159Y-107518200D01*
X120595764Y-107518200D01*
X120717200Y-107699941D01*
X120940060Y-107922801D01*
X121202117Y-108097902D01*
X121493298Y-108218513D01*
X121802415Y-108280000D01*
X122117587Y-108280000D01*
X122426704Y-108218513D01*
X122717885Y-108097902D01*
X122979942Y-107922801D01*
X123202802Y-107699941D01*
X123377903Y-107437884D01*
X123498514Y-107146703D01*
X123560001Y-106837586D01*
X123560001Y-106522414D01*
X143220001Y-106522414D01*
X143220001Y-106837586D01*
X143281488Y-107146703D01*
X143402099Y-107437884D01*
X143577200Y-107699941D01*
X143800060Y-107922801D01*
X144062117Y-108097902D01*
X144353298Y-108218513D01*
X144662415Y-108280000D01*
X144977587Y-108280000D01*
X145286704Y-108218513D01*
X145577885Y-108097902D01*
X145839942Y-107922801D01*
X146062802Y-107699941D01*
X146184238Y-107518200D01*
X167598837Y-107518200D01*
X167640000Y-107522254D01*
X167681163Y-107518200D01*
X167681170Y-107518200D01*
X167804316Y-107506071D01*
X167962317Y-107458142D01*
X168107932Y-107380309D01*
X168235564Y-107275564D01*
X168261811Y-107243582D01*
X170743588Y-104761806D01*
X170775564Y-104735564D01*
X170808314Y-104695659D01*
X170880309Y-104607932D01*
X170958141Y-104462318D01*
X170958142Y-104462317D01*
X171006071Y-104304316D01*
X171018200Y-104181170D01*
X171018200Y-104181161D01*
X171022254Y-104140001D01*
X171018200Y-104098841D01*
X171018200Y-92751163D01*
X171022254Y-92710000D01*
X171018200Y-92668837D01*
X171018200Y-92668830D01*
X171006071Y-92545684D01*
X170958142Y-92387683D01*
X170880309Y-92242068D01*
X170775564Y-92114436D01*
X170743589Y-92088195D01*
X165278200Y-86622807D01*
X165278200Y-85927644D01*
X165360450Y-85845394D01*
X165490134Y-85651308D01*
X165579461Y-85435652D01*
X165625000Y-85206712D01*
X165625000Y-84973288D01*
X165579461Y-84744348D01*
X165490134Y-84528692D01*
X165360450Y-84334606D01*
X165195394Y-84169550D01*
X165001308Y-84039866D01*
X164785652Y-83950539D01*
X164556712Y-83905000D01*
X164323288Y-83905000D01*
X164094348Y-83950539D01*
X163878692Y-84039866D01*
X163684606Y-84169550D01*
X163519550Y-84334606D01*
X163389866Y-84528692D01*
X163300539Y-84744348D01*
X163255000Y-84973288D01*
X163255000Y-85206712D01*
X163300539Y-85435652D01*
X163389866Y-85651308D01*
X163519550Y-85845394D01*
X163601800Y-85927644D01*
X163601801Y-86928828D01*
X163597746Y-86970000D01*
X163613929Y-87134315D01*
X163661858Y-87292316D01*
X163698831Y-87361487D01*
X163739692Y-87437932D01*
X163844437Y-87565564D01*
X163876413Y-87591806D01*
X169341800Y-93057194D01*
X169341801Y-103792805D01*
X167292807Y-105841800D01*
X146184238Y-105841800D01*
X146062802Y-105660059D01*
X145839942Y-105437199D01*
X145714682Y-105353503D01*
X145750848Y-105250452D01*
X144820001Y-104319605D01*
X143889154Y-105250452D01*
X143925320Y-105353503D01*
X143800060Y-105437199D01*
X143577200Y-105660059D01*
X143402099Y-105922116D01*
X143281488Y-106213297D01*
X143220001Y-106522414D01*
X123560001Y-106522414D01*
X123498514Y-106213297D01*
X123377903Y-105922116D01*
X123202802Y-105660059D01*
X122979942Y-105437199D01*
X122939236Y-105410000D01*
X122979942Y-105382801D01*
X123202802Y-105159941D01*
X123377903Y-104897884D01*
X123498514Y-104606703D01*
X123560001Y-104297586D01*
X123560001Y-104203980D01*
X143213531Y-104203980D01*
X143256881Y-104516157D01*
X143360301Y-104813879D01*
X143448726Y-104979309D01*
X143709549Y-105070847D01*
X144640396Y-104140000D01*
X144999606Y-104140000D01*
X145930453Y-105070847D01*
X146191276Y-104979309D01*
X146328669Y-104695659D01*
X146408084Y-104390656D01*
X146426471Y-104076020D01*
X146383121Y-103763843D01*
X146279701Y-103466121D01*
X146191276Y-103300691D01*
X145930453Y-103209153D01*
X144999606Y-104140000D01*
X144640396Y-104140000D01*
X143709549Y-103209153D01*
X143448726Y-103300691D01*
X143311333Y-103584341D01*
X143231918Y-103889344D01*
X143213531Y-104203980D01*
X123560001Y-104203980D01*
X123560001Y-103982414D01*
X123498514Y-103673297D01*
X123377903Y-103382116D01*
X123202802Y-103120059D01*
X122979942Y-102897199D01*
X122939236Y-102870000D01*
X122979942Y-102842801D01*
X123202802Y-102619941D01*
X123377903Y-102357884D01*
X123498514Y-102066703D01*
X123560001Y-101757586D01*
X123560001Y-101442414D01*
X123498514Y-101133297D01*
X123377903Y-100842116D01*
X123202802Y-100580059D01*
X122979942Y-100357199D01*
X122939236Y-100330000D01*
X122979942Y-100302801D01*
X123202802Y-100079941D01*
X123377903Y-99817884D01*
X123498514Y-99526703D01*
X123560001Y-99217586D01*
X123560001Y-98902414D01*
X123498514Y-98593297D01*
X123377903Y-98302116D01*
X123202802Y-98040059D01*
X122979942Y-97817199D01*
X122939236Y-97790000D01*
X122979942Y-97762801D01*
X123202802Y-97539941D01*
X123377903Y-97277884D01*
X123498514Y-96986703D01*
X123560001Y-96677586D01*
X123560001Y-96362414D01*
X123498514Y-96053297D01*
X123377903Y-95762116D01*
X123202802Y-95500059D01*
X122979942Y-95277199D01*
X122939236Y-95250000D01*
X122979942Y-95222801D01*
X123202802Y-94999941D01*
X123377903Y-94737884D01*
X123498514Y-94446703D01*
X123560001Y-94137586D01*
X123560001Y-93822414D01*
X123498514Y-93513297D01*
X123377903Y-93222116D01*
X123202802Y-92960059D01*
X122979942Y-92737199D01*
X122939236Y-92710000D01*
X122979942Y-92682801D01*
X123202802Y-92459941D01*
X123377903Y-92197884D01*
X123498514Y-91906703D01*
X123560001Y-91597586D01*
X123560001Y-91282414D01*
X123498514Y-90973297D01*
X123377903Y-90682116D01*
X123202802Y-90420059D01*
X122979942Y-90197199D01*
X122939236Y-90170000D01*
X122979942Y-90142801D01*
X123202802Y-89919941D01*
X123377903Y-89657884D01*
X123498514Y-89366703D01*
X123560001Y-89057586D01*
X123560001Y-88742414D01*
X123498514Y-88433297D01*
X123377903Y-88142116D01*
X123202802Y-87880059D01*
X122979942Y-87657199D01*
X122939236Y-87630000D01*
X122979942Y-87602801D01*
X123202802Y-87379941D01*
X123377903Y-87117884D01*
X123498514Y-86826703D01*
X123560001Y-86517586D01*
X123560001Y-86202414D01*
X123498514Y-85893297D01*
X123377903Y-85602116D01*
X123202802Y-85340059D01*
X122979942Y-85117199D01*
X122939236Y-85090000D01*
X122979942Y-85062801D01*
X123202802Y-84839941D01*
X123377903Y-84577884D01*
X123498514Y-84286703D01*
X123560001Y-83977586D01*
X123560001Y-83662414D01*
X123498514Y-83353297D01*
X123377903Y-83062116D01*
X123202802Y-82800059D01*
X122979942Y-82577199D01*
X122939236Y-82550000D01*
X122979942Y-82522801D01*
X123202802Y-82299941D01*
X123377903Y-82037884D01*
X123498514Y-81746703D01*
X123560001Y-81437586D01*
X123560001Y-81122414D01*
X123498514Y-80813297D01*
X123377903Y-80522116D01*
X123202802Y-80260059D01*
X122979942Y-80037199D01*
X122939236Y-80010000D01*
X122979942Y-79982801D01*
X123202802Y-79759941D01*
X123377903Y-79497884D01*
X123498514Y-79206703D01*
X123560001Y-78897586D01*
X123560001Y-78582414D01*
X123498514Y-78273297D01*
X123377903Y-77982116D01*
X123202802Y-77720059D01*
X122979942Y-77497199D01*
X122939236Y-77470000D01*
X122979942Y-77442801D01*
X123202802Y-77219941D01*
X123377903Y-76957884D01*
X123498514Y-76666703D01*
X123560001Y-76357586D01*
X123560001Y-76042414D01*
X123498514Y-75733297D01*
X123377903Y-75442116D01*
X123202802Y-75180059D01*
X122979942Y-74957199D01*
X122939236Y-74930000D01*
X122979942Y-74902801D01*
X123202802Y-74679941D01*
X123377903Y-74417884D01*
X123498514Y-74126703D01*
X123560001Y-73817586D01*
X123560001Y-73502414D01*
X123498514Y-73193297D01*
X123377903Y-72902116D01*
X123210912Y-72652196D01*
X123279495Y-72615537D01*
X123376186Y-72536185D01*
X123455538Y-72439494D01*
X123514503Y-72329180D01*
X123550813Y-72209482D01*
X123563073Y-72085000D01*
X123563073Y-70155000D01*
X123550813Y-70030518D01*
X123514503Y-69910820D01*
X123455538Y-69800506D01*
X123376186Y-69703815D01*
X123279495Y-69624463D01*
X123169181Y-69565498D01*
X123101608Y-69545000D01*
X123450129Y-69545000D01*
X123881926Y-69459110D01*
X124288670Y-69290631D01*
X124654730Y-69046038D01*
X124966039Y-68734729D01*
X125210632Y-68368669D01*
X125379111Y-67961925D01*
X125465001Y-67530128D01*
X125465001Y-67089872D01*
X125379111Y-66658075D01*
X125210632Y-66251331D01*
X124966039Y-65885271D01*
X124654730Y-65573962D01*
X124288670Y-65329369D01*
X123881926Y-65160890D01*
X123450129Y-65075000D01*
X123009873Y-65075000D01*
X122578076Y-65160890D01*
X122171332Y-65329369D01*
X121805272Y-65573962D01*
X121493963Y-65885271D01*
X121249370Y-66251331D01*
X121080891Y-66658075D01*
X120995001Y-67089872D01*
X120995001Y-67530128D01*
X121080891Y-67961925D01*
X121249370Y-68368669D01*
X121493963Y-68734729D01*
X121805272Y-69046038D01*
X122171332Y-69290631D01*
X122578076Y-69459110D01*
X122868746Y-69516928D01*
X120995001Y-69516928D01*
X120870519Y-69529188D01*
X120750821Y-69565498D01*
X120640507Y-69624463D01*
X120543816Y-69703815D01*
X120464464Y-69800506D01*
X120405499Y-69910820D01*
X120369189Y-70030518D01*
X120356929Y-70155000D01*
X120356929Y-72085000D01*
X120369189Y-72209482D01*
X120405499Y-72329180D01*
X120464464Y-72439494D01*
X120543816Y-72536185D01*
X120640507Y-72615537D01*
X120709090Y-72652196D01*
X120542099Y-72902116D01*
X120421488Y-73193297D01*
X120360001Y-73502414D01*
X120360001Y-73817586D01*
X120421488Y-74126703D01*
X120542099Y-74417884D01*
X120717200Y-74679941D01*
X120940060Y-74902801D01*
X120980766Y-74930000D01*
X120940060Y-74957199D01*
X120717200Y-75180059D01*
X120542099Y-75442116D01*
X120421488Y-75733297D01*
X120360001Y-76042414D01*
X120360001Y-76357586D01*
X120421488Y-76666703D01*
X120542099Y-76957884D01*
X120717200Y-77219941D01*
X120940060Y-77442801D01*
X120980766Y-77470000D01*
X120940060Y-77497199D01*
X120717200Y-77720059D01*
X120542099Y-77982116D01*
X120421488Y-78273297D01*
X120360001Y-78582414D01*
X120360001Y-78897586D01*
X120421488Y-79206703D01*
X120542099Y-79497884D01*
X120717200Y-79759941D01*
X120940060Y-79982801D01*
X120980766Y-80010000D01*
X120940060Y-80037199D01*
X120717200Y-80260059D01*
X120542099Y-80522116D01*
X120421488Y-80813297D01*
X120360001Y-81122414D01*
X120360001Y-81437586D01*
X120421488Y-81746703D01*
X120542099Y-82037884D01*
X120717200Y-82299941D01*
X120940060Y-82522801D01*
X120980766Y-82550000D01*
X120940060Y-82577199D01*
X120717200Y-82800059D01*
X120542099Y-83062116D01*
X120421488Y-83353297D01*
X120360001Y-83662414D01*
X120360001Y-83977586D01*
X120421488Y-84286703D01*
X120542099Y-84577884D01*
X120717200Y-84839941D01*
X120940060Y-85062801D01*
X120980766Y-85090000D01*
X120940060Y-85117199D01*
X120717200Y-85340059D01*
X120542099Y-85602116D01*
X120421488Y-85893297D01*
X120360001Y-86202414D01*
X120360001Y-86517586D01*
X120421488Y-86826703D01*
X120542099Y-87117884D01*
X120717200Y-87379941D01*
X120940060Y-87602801D01*
X120980766Y-87630000D01*
X120940060Y-87657199D01*
X120717200Y-87880059D01*
X120542099Y-88142116D01*
X120421488Y-88433297D01*
X120360001Y-88742414D01*
X120360001Y-89057586D01*
X120421488Y-89366703D01*
X120542099Y-89657884D01*
X120717200Y-89919941D01*
X120940060Y-90142801D01*
X120980766Y-90170000D01*
X120940060Y-90197199D01*
X120717200Y-90420059D01*
X120542099Y-90682116D01*
X120421488Y-90973297D01*
X120360001Y-91282414D01*
X120360001Y-91597586D01*
X120421488Y-91906703D01*
X120542099Y-92197884D01*
X120717200Y-92459941D01*
X120940060Y-92682801D01*
X120980766Y-92710000D01*
X120940060Y-92737199D01*
X120717200Y-92960059D01*
X120542099Y-93222116D01*
X120421488Y-93513297D01*
X120360001Y-93822414D01*
X120360001Y-94137586D01*
X120421488Y-94446703D01*
X120542099Y-94737884D01*
X120717200Y-94999941D01*
X120940060Y-95222801D01*
X120980766Y-95250000D01*
X120940060Y-95277199D01*
X120717200Y-95500059D01*
X120542099Y-95762116D01*
X120421488Y-96053297D01*
X120360001Y-96362414D01*
X120360001Y-96677586D01*
X120421488Y-96986703D01*
X120542099Y-97277884D01*
X120717200Y-97539941D01*
X120940060Y-97762801D01*
X120980766Y-97790000D01*
X120940060Y-97817199D01*
X120717200Y-98040059D01*
X120542099Y-98302116D01*
X120421488Y-98593297D01*
X120360001Y-98902414D01*
X120360001Y-99217586D01*
X120421488Y-99526703D01*
X120542099Y-99817884D01*
X120717200Y-100079941D01*
X120940060Y-100302801D01*
X120980766Y-100330000D01*
X120940060Y-100357199D01*
X120717200Y-100580059D01*
X120542099Y-100842116D01*
X120421488Y-101133297D01*
X120360001Y-101442414D01*
X120360001Y-101757586D01*
X120421488Y-102066703D01*
X120542099Y-102357884D01*
X120717200Y-102619941D01*
X120940060Y-102842801D01*
X120980766Y-102870000D01*
X120940060Y-102897199D01*
X120717200Y-103120059D01*
X120542099Y-103382116D01*
X120421488Y-103673297D01*
X120360001Y-103982414D01*
X120360001Y-104297586D01*
X120421488Y-104606703D01*
X120542099Y-104897884D01*
X120717200Y-105159941D01*
X120940060Y-105382801D01*
X120980766Y-105410000D01*
X120940060Y-105437199D01*
X120717200Y-105660059D01*
X120595764Y-105841800D01*
X119727194Y-105841800D01*
X118948200Y-105062807D01*
X118948200Y-65117193D01*
X119727194Y-64338200D01*
X157132807Y-64338200D01*
X157911800Y-65117194D01*
%TA.AperFunction,Conductor*%
D19*
G36*
X157911800Y-65117194D02*
G01*
X157911801Y-68232805D01*
X157132807Y-69011800D01*
X154017194Y-69011800D01*
X153238200Y-68232807D01*
X153238200Y-67265927D01*
X153346632Y-67193475D01*
X153553475Y-66986632D01*
X153675195Y-66804466D01*
X153744822Y-66921355D01*
X153939731Y-67137588D01*
X154173080Y-67311641D01*
X154435901Y-67436825D01*
X154583110Y-67481476D01*
X154813000Y-67360155D01*
X154813000Y-66167000D01*
X155067000Y-66167000D01*
X155067000Y-67360155D01*
X155296890Y-67481476D01*
X155444099Y-67436825D01*
X155706920Y-67311641D01*
X155940269Y-67137588D01*
X156135178Y-66921355D01*
X156284157Y-66671252D01*
X156381481Y-66396891D01*
X156260814Y-66167000D01*
X155067000Y-66167000D01*
X154813000Y-66167000D01*
X154793000Y-66167000D01*
X154793000Y-65913000D01*
X154813000Y-65913000D01*
X154813000Y-64719845D01*
X155067000Y-64719845D01*
X155067000Y-65913000D01*
X156260814Y-65913000D01*
X156381481Y-65683109D01*
X156284157Y-65408748D01*
X156135178Y-65158645D01*
X155940269Y-64942412D01*
X155706920Y-64768359D01*
X155444099Y-64643175D01*
X155296890Y-64598524D01*
X155067000Y-64719845D01*
X154813000Y-64719845D01*
X154583110Y-64598524D01*
X154435901Y-64643175D01*
X154173080Y-64768359D01*
X153939731Y-64942412D01*
X153744822Y-65158645D01*
X153675195Y-65275534D01*
X153553475Y-65093368D01*
X153346632Y-64886525D01*
X153103411Y-64724010D01*
X152833158Y-64612068D01*
X152546260Y-64555000D01*
X152253740Y-64555000D01*
X151966842Y-64612068D01*
X151696589Y-64724010D01*
X151453368Y-64886525D01*
X151321513Y-65018380D01*
X151299502Y-64945820D01*
X151240537Y-64835506D01*
X151161185Y-64738815D01*
X151064494Y-64659463D01*
X150954180Y-64600498D01*
X150834482Y-64564188D01*
X150710000Y-64551928D01*
X149010000Y-64551928D01*
X148885518Y-64564188D01*
X148765820Y-64600498D01*
X148655506Y-64659463D01*
X148558815Y-64738815D01*
X148479463Y-64835506D01*
X148420498Y-64945820D01*
X148384188Y-65065518D01*
X148371928Y-65190000D01*
X148371928Y-66342678D01*
X145197679Y-69516928D01*
X143911256Y-69516928D01*
X144201926Y-69459110D01*
X144608670Y-69290631D01*
X144974730Y-69046038D01*
X145286039Y-68734729D01*
X145530632Y-68368669D01*
X145699111Y-67961925D01*
X145785001Y-67530128D01*
X145785001Y-67089872D01*
X145699111Y-66658075D01*
X145530632Y-66251331D01*
X145286039Y-65885271D01*
X144974730Y-65573962D01*
X144608670Y-65329369D01*
X144201926Y-65160890D01*
X143770129Y-65075000D01*
X143329873Y-65075000D01*
X142898076Y-65160890D01*
X142491332Y-65329369D01*
X142125272Y-65573962D01*
X141813963Y-65885271D01*
X141569370Y-66251331D01*
X141400891Y-66658075D01*
X141315001Y-67089872D01*
X141315001Y-67530128D01*
X141400891Y-67961925D01*
X141569370Y-68368669D01*
X141813963Y-68734729D01*
X142125272Y-69046038D01*
X142491332Y-69290631D01*
X142898076Y-69459110D01*
X143329873Y-69545000D01*
X143678394Y-69545000D01*
X143610821Y-69565498D01*
X143500507Y-69624463D01*
X143403816Y-69703815D01*
X143324464Y-69800506D01*
X143265499Y-69910820D01*
X143229189Y-70030518D01*
X143216929Y-70155000D01*
X143216929Y-72085000D01*
X143229189Y-72209482D01*
X143265499Y-72329180D01*
X143324464Y-72439494D01*
X143403816Y-72536185D01*
X143500507Y-72615537D01*
X143569090Y-72652196D01*
X143402099Y-72902116D01*
X143281488Y-73193297D01*
X143220001Y-73502414D01*
X143220001Y-73817586D01*
X143281488Y-74126703D01*
X143402099Y-74417884D01*
X143577200Y-74679941D01*
X143800060Y-74902801D01*
X143840766Y-74930000D01*
X143800060Y-74957199D01*
X143577200Y-75180059D01*
X143402099Y-75442116D01*
X143281488Y-75733297D01*
X143220001Y-76042414D01*
X143220001Y-76357586D01*
X143281488Y-76666703D01*
X143402099Y-76957884D01*
X143577200Y-77219941D01*
X143800060Y-77442801D01*
X143840766Y-77470000D01*
X143800060Y-77497199D01*
X143577200Y-77720059D01*
X143402099Y-77982116D01*
X143281488Y-78273297D01*
X143220001Y-78582414D01*
X143220001Y-78897586D01*
X143281488Y-79206703D01*
X143402099Y-79497884D01*
X143577200Y-79759941D01*
X143800060Y-79982801D01*
X143840766Y-80010000D01*
X143800060Y-80037199D01*
X143577200Y-80260059D01*
X143402099Y-80522116D01*
X143281488Y-80813297D01*
X143220001Y-81122414D01*
X143220001Y-81437586D01*
X143281488Y-81746703D01*
X143402099Y-82037884D01*
X143577200Y-82299941D01*
X143800060Y-82522801D01*
X143840766Y-82550000D01*
X143800060Y-82577199D01*
X143577200Y-82800059D01*
X143402099Y-83062116D01*
X143281488Y-83353297D01*
X143220001Y-83662414D01*
X143220001Y-83977586D01*
X143281488Y-84286703D01*
X143402099Y-84577884D01*
X143577200Y-84839941D01*
X143800060Y-85062801D01*
X143840766Y-85090000D01*
X143800060Y-85117199D01*
X143577200Y-85340059D01*
X143402099Y-85602116D01*
X143281488Y-85893297D01*
X143220001Y-86202414D01*
X143220001Y-86517586D01*
X143281488Y-86826703D01*
X143402099Y-87117884D01*
X143577200Y-87379941D01*
X143800060Y-87602801D01*
X143840766Y-87630000D01*
X143800060Y-87657199D01*
X143577200Y-87880059D01*
X143402099Y-88142116D01*
X143281488Y-88433297D01*
X143220001Y-88742414D01*
X143220001Y-89057586D01*
X143281488Y-89366703D01*
X143402099Y-89657884D01*
X143577200Y-89919941D01*
X143800060Y-90142801D01*
X143840766Y-90170000D01*
X143800060Y-90197199D01*
X143577200Y-90420059D01*
X143402099Y-90682116D01*
X143281488Y-90973297D01*
X143220001Y-91282414D01*
X143220001Y-91597586D01*
X143281488Y-91906703D01*
X143402099Y-92197884D01*
X143577200Y-92459941D01*
X143800060Y-92682801D01*
X143840766Y-92710000D01*
X143800060Y-92737199D01*
X143577200Y-92960059D01*
X143402099Y-93222116D01*
X143281488Y-93513297D01*
X143220001Y-93822414D01*
X143220001Y-94137586D01*
X143281488Y-94446703D01*
X143402099Y-94737884D01*
X143577200Y-94999941D01*
X143800060Y-95222801D01*
X143840766Y-95250000D01*
X143800060Y-95277199D01*
X143577200Y-95500059D01*
X143402099Y-95762116D01*
X143281488Y-96053297D01*
X143220001Y-96362414D01*
X143220001Y-96677586D01*
X143281488Y-96986703D01*
X143402099Y-97277884D01*
X143577200Y-97539941D01*
X143800060Y-97762801D01*
X143840766Y-97790000D01*
X143800060Y-97817199D01*
X143577200Y-98040059D01*
X143402099Y-98302116D01*
X143281488Y-98593297D01*
X143220001Y-98902414D01*
X143220001Y-99217586D01*
X143281488Y-99526703D01*
X143402099Y-99817884D01*
X143577200Y-100079941D01*
X143800060Y-100302801D01*
X143840766Y-100330000D01*
X143800060Y-100357199D01*
X143577200Y-100580059D01*
X143402099Y-100842116D01*
X143281488Y-101133297D01*
X143220001Y-101442414D01*
X143220001Y-101757586D01*
X143281488Y-102066703D01*
X143402099Y-102357884D01*
X143577200Y-102619941D01*
X143800060Y-102842801D01*
X143925320Y-102926497D01*
X143889154Y-103029548D01*
X144820001Y-103960395D01*
X145750848Y-103029548D01*
X145714682Y-102926497D01*
X145839942Y-102842801D01*
X146062802Y-102619941D01*
X146237903Y-102357884D01*
X146358514Y-102066703D01*
X146420001Y-101757586D01*
X146420001Y-101442414D01*
X146358514Y-101133297D01*
X146237903Y-100842116D01*
X146062802Y-100580059D01*
X145839942Y-100357199D01*
X145799236Y-100330000D01*
X145839942Y-100302801D01*
X146062802Y-100079941D01*
X146237903Y-99817884D01*
X146358514Y-99526703D01*
X146420001Y-99217586D01*
X146420001Y-98902414D01*
X146358514Y-98593297D01*
X146237903Y-98302116D01*
X146062802Y-98040059D01*
X145839942Y-97817199D01*
X145799236Y-97790000D01*
X145839942Y-97762801D01*
X146062802Y-97539941D01*
X146237903Y-97277884D01*
X146358514Y-96986703D01*
X146420001Y-96677586D01*
X146420001Y-96362414D01*
X146358514Y-96053297D01*
X146237903Y-95762116D01*
X146062802Y-95500059D01*
X145839942Y-95277199D01*
X145799236Y-95250000D01*
X145839942Y-95222801D01*
X146062802Y-94999941D01*
X146237903Y-94737884D01*
X146358514Y-94446703D01*
X146420001Y-94137586D01*
X146420001Y-93822414D01*
X146358514Y-93513297D01*
X146237903Y-93222116D01*
X146062802Y-92960059D01*
X145839942Y-92737199D01*
X145799236Y-92710000D01*
X145839942Y-92682801D01*
X146062802Y-92459941D01*
X146237903Y-92197884D01*
X146358514Y-91906703D01*
X146420001Y-91597586D01*
X146420001Y-91282414D01*
X146358514Y-90973297D01*
X146237903Y-90682116D01*
X146062802Y-90420059D01*
X145839942Y-90197199D01*
X145799236Y-90170000D01*
X145839942Y-90142801D01*
X146062802Y-89919941D01*
X146237903Y-89657884D01*
X146358514Y-89366703D01*
X146420001Y-89057586D01*
X146420001Y-88742414D01*
X146358514Y-88433297D01*
X146237903Y-88142116D01*
X146062802Y-87880059D01*
X145839942Y-87657199D01*
X145799236Y-87630000D01*
X145839942Y-87602801D01*
X146062802Y-87379941D01*
X146237903Y-87117884D01*
X146358514Y-86826703D01*
X146420001Y-86517586D01*
X146420001Y-86202414D01*
X146358514Y-85893297D01*
X146237903Y-85602116D01*
X146062802Y-85340059D01*
X145839942Y-85117199D01*
X145799236Y-85090000D01*
X145839942Y-85062801D01*
X146062802Y-84839941D01*
X146237903Y-84577884D01*
X146358514Y-84286703D01*
X146420001Y-83977586D01*
X146420001Y-83662414D01*
X146358514Y-83353297D01*
X146237903Y-83062116D01*
X146062802Y-82800059D01*
X145839942Y-82577199D01*
X145799236Y-82550000D01*
X145839942Y-82522801D01*
X146062802Y-82299941D01*
X146237903Y-82037884D01*
X146358514Y-81746703D01*
X146405433Y-81510826D01*
X146738195Y-81843588D01*
X146764437Y-81875564D01*
X146796413Y-81901806D01*
X146796415Y-81901808D01*
X146842951Y-81939999D01*
X146892069Y-81980309D01*
X147037684Y-82058142D01*
X147195685Y-82106071D01*
X147318831Y-82118200D01*
X147318840Y-82118200D01*
X147360000Y-82122254D01*
X147401160Y-82118200D01*
X151975278Y-82118200D01*
X152138310Y-82281232D01*
X152349430Y-82422297D01*
X152584013Y-82519465D01*
X152833045Y-82569000D01*
X153086955Y-82569000D01*
X153335987Y-82519465D01*
X153570570Y-82422297D01*
X153781690Y-82281232D01*
X153961232Y-82101690D01*
X154102297Y-81890570D01*
X154199465Y-81655987D01*
X154249000Y-81406955D01*
X154249000Y-81153045D01*
X154199465Y-80904013D01*
X154102297Y-80669430D01*
X153961232Y-80458310D01*
X153781690Y-80278768D01*
X153570570Y-80137703D01*
X153335987Y-80040535D01*
X153086955Y-79991000D01*
X152833045Y-79991000D01*
X152584013Y-80040535D01*
X152349430Y-80137703D01*
X152138310Y-80278768D01*
X151975278Y-80441800D01*
X147707195Y-80441800D01*
X146377359Y-79111964D01*
X146420001Y-78897586D01*
X146420001Y-78582414D01*
X146358514Y-78273297D01*
X146237903Y-77982116D01*
X146062802Y-77720059D01*
X145839942Y-77497199D01*
X145799236Y-77470000D01*
X145839942Y-77442801D01*
X146062802Y-77219941D01*
X146184238Y-77038200D01*
X148548837Y-77038200D01*
X148590000Y-77042254D01*
X148631163Y-77038200D01*
X148631170Y-77038200D01*
X148754316Y-77026071D01*
X148912317Y-76978142D01*
X149057932Y-76900309D01*
X149185564Y-76795564D01*
X149211811Y-76763582D01*
X151477194Y-74498200D01*
X161248837Y-74498200D01*
X161290000Y-74502254D01*
X161331163Y-74498200D01*
X161331170Y-74498200D01*
X161454316Y-74486071D01*
X161612317Y-74438142D01*
X161757932Y-74360309D01*
X161885564Y-74255564D01*
X161911811Y-74223582D01*
X162118503Y-74016890D01*
X166198524Y-74016890D01*
X166243175Y-74164099D01*
X166368359Y-74426920D01*
X166542412Y-74660269D01*
X166758645Y-74855178D01*
X167008748Y-75004157D01*
X167283109Y-75101481D01*
X167513000Y-74980814D01*
X167513000Y-73787000D01*
X167767000Y-73787000D01*
X167767000Y-74980814D01*
X167996891Y-75101481D01*
X168271252Y-75004157D01*
X168521355Y-74855178D01*
X168737588Y-74660269D01*
X168911641Y-74426920D01*
X169036825Y-74164099D01*
X169081476Y-74016890D01*
X168960155Y-73787000D01*
X167767000Y-73787000D01*
X167513000Y-73787000D01*
X166319845Y-73787000D01*
X166198524Y-74016890D01*
X162118503Y-74016890D01*
X164177194Y-71958200D01*
X166414073Y-71958200D01*
X166486525Y-72066632D01*
X166693368Y-72273475D01*
X166875534Y-72395195D01*
X166758645Y-72464822D01*
X166542412Y-72659731D01*
X166368359Y-72893080D01*
X166243175Y-73155901D01*
X166198524Y-73303110D01*
X166319845Y-73533000D01*
X167513000Y-73533000D01*
X167513000Y-73513000D01*
X167767000Y-73513000D01*
X167767000Y-73533000D01*
X168960155Y-73533000D01*
X169081476Y-73303110D01*
X169036825Y-73155901D01*
X168911641Y-72893080D01*
X168737588Y-72659731D01*
X168521355Y-72464822D01*
X168404466Y-72395195D01*
X168586632Y-72273475D01*
X168793475Y-72066632D01*
X168955990Y-71823411D01*
X169067932Y-71553158D01*
X169125000Y-71266260D01*
X169125000Y-70973740D01*
X169067932Y-70686842D01*
X168955990Y-70416589D01*
X168793475Y-70173368D01*
X168586632Y-69966525D01*
X168412240Y-69850000D01*
X168586632Y-69733475D01*
X168793475Y-69526632D01*
X168955990Y-69283411D01*
X169067932Y-69013158D01*
X169125000Y-68726260D01*
X169125000Y-68433740D01*
X169067932Y-68146842D01*
X168955990Y-67876589D01*
X168793475Y-67633368D01*
X168661620Y-67501513D01*
X168734180Y-67479502D01*
X168844494Y-67420537D01*
X168941185Y-67341185D01*
X169020537Y-67244494D01*
X169079502Y-67134180D01*
X169115812Y-67014482D01*
X169128072Y-66890000D01*
X169128072Y-65190000D01*
X169115812Y-65065518D01*
X169079502Y-64945820D01*
X169020537Y-64835506D01*
X168941185Y-64738815D01*
X168844494Y-64659463D01*
X168734180Y-64600498D01*
X168614482Y-64564188D01*
X168490000Y-64551928D01*
X166790000Y-64551928D01*
X166665518Y-64564188D01*
X166545820Y-64600498D01*
X166435506Y-64659463D01*
X166338815Y-64738815D01*
X166259463Y-64835506D01*
X166200498Y-64945820D01*
X166164188Y-65065518D01*
X166151928Y-65190000D01*
X166151928Y-65201800D01*
X164177194Y-65201800D01*
X163313594Y-64338200D01*
X169832807Y-64338200D01*
X170611800Y-65117194D01*
X170611801Y-74582805D01*
X168562807Y-76631800D01*
X157521159Y-76631800D01*
X157479999Y-76627746D01*
X157438839Y-76631800D01*
X157438830Y-76631800D01*
X157315684Y-76643929D01*
X157157683Y-76691858D01*
X157012068Y-76769691D01*
X156884436Y-76874436D01*
X156858193Y-76906413D01*
X155646418Y-78118189D01*
X155614436Y-78144436D01*
X155509691Y-78272069D01*
X155431858Y-78417684D01*
X155383929Y-78575685D01*
X155371800Y-78698831D01*
X155371800Y-78698837D01*
X155367746Y-78740000D01*
X155371800Y-78781163D01*
X155371801Y-86012805D01*
X153106418Y-88278189D01*
X153074436Y-88304436D01*
X152969691Y-88432069D01*
X152891858Y-88577684D01*
X152843929Y-88735685D01*
X152831800Y-88858831D01*
X152831800Y-88858837D01*
X152827746Y-88900000D01*
X152831800Y-88941163D01*
X152831801Y-96301928D01*
X152820000Y-96301928D01*
X152695518Y-96314188D01*
X152575820Y-96350498D01*
X152465506Y-96409463D01*
X152368815Y-96488815D01*
X152289463Y-96585506D01*
X152230498Y-96695820D01*
X152208487Y-96768380D01*
X152076632Y-96636525D01*
X151833411Y-96474010D01*
X151563158Y-96362068D01*
X151276260Y-96305000D01*
X150983740Y-96305000D01*
X150696842Y-96362068D01*
X150426589Y-96474010D01*
X150183368Y-96636525D01*
X149976525Y-96843368D01*
X149814010Y-97086589D01*
X149702068Y-97356842D01*
X149645000Y-97643740D01*
X149645000Y-97936260D01*
X149702068Y-98223158D01*
X149814010Y-98493411D01*
X149976525Y-98736632D01*
X150183368Y-98943475D01*
X150291800Y-99015927D01*
X150291801Y-100288828D01*
X150287746Y-100330000D01*
X150303929Y-100494315D01*
X150351858Y-100652316D01*
X150429691Y-100797931D01*
X150449328Y-100821858D01*
X150534437Y-100925564D01*
X150566413Y-100951806D01*
X151778193Y-102163587D01*
X151804436Y-102195564D01*
X151932068Y-102300309D01*
X152077683Y-102378142D01*
X152235684Y-102426071D01*
X152358830Y-102438200D01*
X152358839Y-102438200D01*
X152399999Y-102442254D01*
X152441159Y-102438200D01*
X156168837Y-102438200D01*
X156210000Y-102442254D01*
X156251163Y-102438200D01*
X156251170Y-102438200D01*
X156374316Y-102426071D01*
X156532317Y-102378142D01*
X156677932Y-102300309D01*
X156805564Y-102195564D01*
X156831811Y-102163582D01*
X158043589Y-100951805D01*
X158075564Y-100925564D01*
X158180309Y-100797932D01*
X158258142Y-100652317D01*
X158306071Y-100494316D01*
X158318200Y-100371170D01*
X158318200Y-100371161D01*
X158322254Y-100330001D01*
X158318200Y-100288841D01*
X158318200Y-93935927D01*
X158426632Y-93863475D01*
X158558487Y-93731620D01*
X158580498Y-93804180D01*
X158639463Y-93914494D01*
X158718815Y-94011185D01*
X158815506Y-94090537D01*
X158925820Y-94149502D01*
X159045518Y-94185812D01*
X159170000Y-94198072D01*
X159181801Y-94198072D01*
X159181801Y-95208828D01*
X159177746Y-95250000D01*
X159193929Y-95414315D01*
X159241858Y-95572316D01*
X159319691Y-95717931D01*
X159319692Y-95717932D01*
X159424437Y-95845564D01*
X159456413Y-95871806D01*
X161071928Y-97487322D01*
X161071928Y-98640000D01*
X161084188Y-98764482D01*
X161120498Y-98884180D01*
X161179463Y-98994494D01*
X161258815Y-99091185D01*
X161355506Y-99170537D01*
X161465820Y-99229502D01*
X161585518Y-99265812D01*
X161710000Y-99278072D01*
X163410000Y-99278072D01*
X163534482Y-99265812D01*
X163654180Y-99229502D01*
X163764494Y-99170537D01*
X163861185Y-99091185D01*
X163940537Y-98994494D01*
X163999502Y-98884180D01*
X164023966Y-98803534D01*
X164099731Y-98887588D01*
X164333080Y-99061641D01*
X164595901Y-99186825D01*
X164743110Y-99231476D01*
X164973000Y-99110155D01*
X164973000Y-97917000D01*
X165227000Y-97917000D01*
X165227000Y-99110155D01*
X165456890Y-99231476D01*
X165604099Y-99186825D01*
X165866920Y-99061641D01*
X166100269Y-98887588D01*
X166295178Y-98671355D01*
X166444157Y-98421252D01*
X166541481Y-98146891D01*
X166420814Y-97917000D01*
X165227000Y-97917000D01*
X164973000Y-97917000D01*
X164953000Y-97917000D01*
X164953000Y-97663000D01*
X164973000Y-97663000D01*
X164973000Y-96469845D01*
X165227000Y-96469845D01*
X165227000Y-97663000D01*
X166420814Y-97663000D01*
X166541481Y-97433109D01*
X166444157Y-97158748D01*
X166295178Y-96908645D01*
X166100269Y-96692412D01*
X165866920Y-96518359D01*
X165604099Y-96393175D01*
X165456890Y-96348524D01*
X165227000Y-96469845D01*
X164973000Y-96469845D01*
X164743110Y-96348524D01*
X164595901Y-96393175D01*
X164333080Y-96518359D01*
X164099731Y-96692412D01*
X164023966Y-96776466D01*
X163999502Y-96695820D01*
X163940537Y-96585506D01*
X163861185Y-96488815D01*
X163764494Y-96409463D01*
X163654180Y-96350498D01*
X163534482Y-96314188D01*
X163410000Y-96301928D01*
X162257322Y-96301928D01*
X160858200Y-94902807D01*
X160858200Y-94198072D01*
X160870000Y-94198072D01*
X160994482Y-94185812D01*
X161114180Y-94149502D01*
X161224494Y-94090537D01*
X161321185Y-94011185D01*
X161400537Y-93914494D01*
X161459502Y-93804180D01*
X161495812Y-93684482D01*
X161508072Y-93560000D01*
X161508072Y-91860000D01*
X161495812Y-91735518D01*
X161459502Y-91615820D01*
X161400537Y-91505506D01*
X161321185Y-91408815D01*
X161224494Y-91329463D01*
X161114180Y-91270498D01*
X160994482Y-91234188D01*
X160870000Y-91221928D01*
X159170000Y-91221928D01*
X159045518Y-91234188D01*
X158925820Y-91270498D01*
X158815506Y-91329463D01*
X158718815Y-91408815D01*
X158639463Y-91505506D01*
X158580498Y-91615820D01*
X158558487Y-91688380D01*
X158426632Y-91556525D01*
X158183411Y-91394010D01*
X157913158Y-91282068D01*
X157626260Y-91225000D01*
X157333740Y-91225000D01*
X157046842Y-91282068D01*
X156776589Y-91394010D01*
X156533368Y-91556525D01*
X156326525Y-91763368D01*
X156164010Y-92006589D01*
X156052068Y-92276842D01*
X155995000Y-92563740D01*
X155995000Y-92856260D01*
X156052068Y-93143158D01*
X156164010Y-93413411D01*
X156326525Y-93656632D01*
X156533368Y-93863475D01*
X156641801Y-93935927D01*
X156641800Y-99982806D01*
X155862807Y-100761800D01*
X152747194Y-100761800D01*
X151968200Y-99982807D01*
X151968200Y-99015927D01*
X152076632Y-98943475D01*
X152208487Y-98811620D01*
X152230498Y-98884180D01*
X152289463Y-98994494D01*
X152368815Y-99091185D01*
X152465506Y-99170537D01*
X152575820Y-99229502D01*
X152695518Y-99265812D01*
X152820000Y-99278072D01*
X154520000Y-99278072D01*
X154644482Y-99265812D01*
X154764180Y-99229502D01*
X154874494Y-99170537D01*
X154971185Y-99091185D01*
X155050537Y-98994494D01*
X155109502Y-98884180D01*
X155145812Y-98764482D01*
X155158072Y-98640000D01*
X155158072Y-96940000D01*
X155145812Y-96815518D01*
X155109502Y-96695820D01*
X155050537Y-96585506D01*
X154971185Y-96488815D01*
X154874494Y-96409463D01*
X154764180Y-96350498D01*
X154644482Y-96314188D01*
X154520000Y-96301928D01*
X154508200Y-96301928D01*
X154508200Y-89247193D01*
X156773588Y-86981806D01*
X156805564Y-86955564D01*
X156910309Y-86827932D01*
X156988142Y-86682317D01*
X157036071Y-86524316D01*
X157048200Y-86401170D01*
X157048200Y-86401161D01*
X157052254Y-86360001D01*
X157048200Y-86318841D01*
X157048200Y-82168387D01*
X158751218Y-82168387D01*
X158805093Y-82397468D01*
X159035684Y-82503763D01*
X159282581Y-82563028D01*
X159536296Y-82572988D01*
X159787079Y-82533259D01*
X160025293Y-82445368D01*
X160114907Y-82397468D01*
X160168782Y-82168387D01*
X159460000Y-81459605D01*
X158751218Y-82168387D01*
X157048200Y-82168387D01*
X157048200Y-81356296D01*
X158167012Y-81356296D01*
X158206741Y-81607079D01*
X158294632Y-81845293D01*
X158342532Y-81934907D01*
X158571613Y-81988782D01*
X159280395Y-81280000D01*
X159639605Y-81280000D01*
X160348387Y-81988782D01*
X160577468Y-81934907D01*
X160683763Y-81704316D01*
X160743028Y-81457419D01*
X160752988Y-81203704D01*
X160713259Y-80952921D01*
X160678976Y-80860000D01*
X164881928Y-80860000D01*
X164894188Y-80984482D01*
X164930498Y-81104180D01*
X164989463Y-81214494D01*
X165068815Y-81311185D01*
X165165506Y-81390537D01*
X165275820Y-81449502D01*
X165395518Y-81485812D01*
X165520000Y-81498072D01*
X166084250Y-81495000D01*
X166243000Y-81336250D01*
X166243000Y-80137000D01*
X165043750Y-80137000D01*
X164885000Y-80295750D01*
X164881928Y-80860000D01*
X160678976Y-80860000D01*
X160625368Y-80714707D01*
X160577468Y-80625093D01*
X160348387Y-80571218D01*
X159639605Y-81280000D01*
X159280395Y-81280000D01*
X158571613Y-80571218D01*
X158342532Y-80625093D01*
X158236237Y-80855684D01*
X158176972Y-81102581D01*
X158167012Y-81356296D01*
X157048200Y-81356296D01*
X157048200Y-80391613D01*
X158751218Y-80391613D01*
X159460000Y-81100395D01*
X160168782Y-80391613D01*
X160114907Y-80162532D01*
X159884316Y-80056237D01*
X159637419Y-79996972D01*
X159383704Y-79987012D01*
X159132921Y-80026741D01*
X158894707Y-80114632D01*
X158805093Y-80162532D01*
X158751218Y-80391613D01*
X157048200Y-80391613D01*
X157048200Y-79160000D01*
X164881928Y-79160000D01*
X164885000Y-79724250D01*
X165043750Y-79883000D01*
X166243000Y-79883000D01*
X166243000Y-78683750D01*
X166497000Y-78683750D01*
X166497000Y-79883000D01*
X166517000Y-79883000D01*
X166517000Y-80137000D01*
X166497000Y-80137000D01*
X166497000Y-81336250D01*
X166655750Y-81495000D01*
X167220000Y-81498072D01*
X167344482Y-81485812D01*
X167464180Y-81449502D01*
X167574494Y-81390537D01*
X167671185Y-81311185D01*
X167750537Y-81214494D01*
X167809502Y-81104180D01*
X167831513Y-81031620D01*
X167963368Y-81163475D01*
X168206589Y-81325990D01*
X168476842Y-81437932D01*
X168763740Y-81495000D01*
X169056260Y-81495000D01*
X169184165Y-81469558D01*
X170001801Y-82287195D01*
X170001800Y-84252356D01*
X169919550Y-84334606D01*
X169789866Y-84528692D01*
X169700539Y-84744348D01*
X169655000Y-84973288D01*
X169655000Y-85206712D01*
X169700539Y-85435652D01*
X169789866Y-85651308D01*
X169919550Y-85845394D01*
X170084606Y-86010450D01*
X170278692Y-86140134D01*
X170494348Y-86229461D01*
X170723288Y-86275000D01*
X170956712Y-86275000D01*
X171185652Y-86229461D01*
X171401308Y-86140134D01*
X171595394Y-86010450D01*
X171760450Y-85845394D01*
X171890134Y-85651308D01*
X171979461Y-85435652D01*
X172025000Y-85206712D01*
X172025000Y-84973288D01*
X171979461Y-84744348D01*
X171890134Y-84528692D01*
X171760450Y-84334606D01*
X171678200Y-84252356D01*
X171678200Y-81981162D01*
X171682254Y-81939999D01*
X171678200Y-81898836D01*
X171678200Y-81898830D01*
X171666071Y-81775684D01*
X171618142Y-81617683D01*
X171540309Y-81472068D01*
X171518974Y-81446071D01*
X171461808Y-81376414D01*
X171461806Y-81376412D01*
X171435564Y-81344436D01*
X171403588Y-81318194D01*
X170369558Y-80284165D01*
X170395000Y-80156260D01*
X170395000Y-79863740D01*
X170337932Y-79576842D01*
X170225990Y-79306589D01*
X170063475Y-79063368D01*
X169856632Y-78856525D01*
X169613411Y-78694010D01*
X169343158Y-78582068D01*
X169056260Y-78525000D01*
X168763740Y-78525000D01*
X168476842Y-78582068D01*
X168206589Y-78694010D01*
X167963368Y-78856525D01*
X167831513Y-78988380D01*
X167809502Y-78915820D01*
X167750537Y-78805506D01*
X167671185Y-78708815D01*
X167574494Y-78629463D01*
X167464180Y-78570498D01*
X167344482Y-78534188D01*
X167220000Y-78521928D01*
X166655750Y-78525000D01*
X166497000Y-78683750D01*
X166243000Y-78683750D01*
X166084250Y-78525000D01*
X165520000Y-78521928D01*
X165395518Y-78534188D01*
X165275820Y-78570498D01*
X165165506Y-78629463D01*
X165068815Y-78708815D01*
X164989463Y-78805506D01*
X164930498Y-78915820D01*
X164894188Y-79035518D01*
X164881928Y-79160000D01*
X157048200Y-79160000D01*
X157048200Y-79087193D01*
X157827194Y-78308200D01*
X168868837Y-78308200D01*
X168910000Y-78312254D01*
X168951163Y-78308200D01*
X168951170Y-78308200D01*
X169074316Y-78296071D01*
X169232317Y-78248142D01*
X169377932Y-78170309D01*
X169505564Y-78065564D01*
X169531811Y-78033582D01*
X172013588Y-75551806D01*
X172045564Y-75525564D01*
X172060000Y-75507973D01*
X172060001Y-122530000D01*
X117500000Y-122530000D01*
X117500000Y-117889872D01*
X119685000Y-117889872D01*
X119685000Y-118330128D01*
X119770890Y-118761925D01*
X119939369Y-119168669D01*
X120183962Y-119534729D01*
X120495271Y-119846038D01*
X120861331Y-120090631D01*
X121268075Y-120259110D01*
X121699872Y-120345000D01*
X122140128Y-120345000D01*
X122571925Y-120259110D01*
X122978669Y-120090631D01*
X123344729Y-119846038D01*
X123656038Y-119534729D01*
X123900631Y-119168669D01*
X124069110Y-118761925D01*
X124155000Y-118330128D01*
X124155000Y-117889872D01*
X124095352Y-117590000D01*
X136657857Y-117590000D01*
X136657857Y-121410000D01*
X155442143Y-121410000D01*
X155442143Y-117889872D01*
X165405000Y-117889872D01*
X165405000Y-118330128D01*
X165490890Y-118761925D01*
X165659369Y-119168669D01*
X165903962Y-119534729D01*
X166215271Y-119846038D01*
X166581331Y-120090631D01*
X166988075Y-120259110D01*
X167419872Y-120345000D01*
X167860128Y-120345000D01*
X168291925Y-120259110D01*
X168698669Y-120090631D01*
X169064729Y-119846038D01*
X169376038Y-119534729D01*
X169620631Y-119168669D01*
X169789110Y-118761925D01*
X169875000Y-118330128D01*
X169875000Y-117889872D01*
X169789110Y-117458075D01*
X169620631Y-117051331D01*
X169376038Y-116685271D01*
X169064729Y-116373962D01*
X168698669Y-116129369D01*
X168291925Y-115960890D01*
X167860128Y-115875000D01*
X167419872Y-115875000D01*
X166988075Y-115960890D01*
X166581331Y-116129369D01*
X166215271Y-116373962D01*
X165903962Y-116685271D01*
X165659369Y-117051331D01*
X165490890Y-117458075D01*
X165405000Y-117889872D01*
X155442143Y-117889872D01*
X155442143Y-117590000D01*
X136657857Y-117590000D01*
X124095352Y-117590000D01*
X124069110Y-117458075D01*
X123900631Y-117051331D01*
X123656038Y-116685271D01*
X123344729Y-116373962D01*
X122978669Y-116129369D01*
X122571925Y-115960890D01*
X122140128Y-115875000D01*
X121699872Y-115875000D01*
X121268075Y-115960890D01*
X120861331Y-116129369D01*
X120495271Y-116373962D01*
X120183962Y-116685271D01*
X119939369Y-117051331D01*
X119770890Y-117458075D01*
X119685000Y-117889872D01*
X117500000Y-117889872D01*
X117500000Y-110269872D01*
X120995001Y-110269872D01*
X120995001Y-110710128D01*
X121080891Y-111141925D01*
X121249370Y-111548669D01*
X121493963Y-111914729D01*
X121805272Y-112226038D01*
X122171332Y-112470631D01*
X122578076Y-112639110D01*
X123009873Y-112725000D01*
X123450129Y-112725000D01*
X123881926Y-112639110D01*
X124288670Y-112470631D01*
X124654730Y-112226038D01*
X124966039Y-111914729D01*
X125210632Y-111548669D01*
X125379111Y-111141925D01*
X125465001Y-110710128D01*
X125465001Y-110269872D01*
X141315001Y-110269872D01*
X141315001Y-110710128D01*
X141400891Y-111141925D01*
X141569370Y-111548669D01*
X141813963Y-111914729D01*
X142125272Y-112226038D01*
X142491332Y-112470631D01*
X142898076Y-112639110D01*
X143329873Y-112725000D01*
X143770129Y-112725000D01*
X144201926Y-112639110D01*
X144608670Y-112470631D01*
X144974730Y-112226038D01*
X145286039Y-111914729D01*
X145530632Y-111548669D01*
X145699111Y-111141925D01*
X145785001Y-110710128D01*
X145785001Y-110269872D01*
X145699111Y-109838075D01*
X145530632Y-109431331D01*
X145286039Y-109065271D01*
X144974730Y-108753962D01*
X144608670Y-108509369D01*
X144201926Y-108340890D01*
X143770129Y-108255000D01*
X143329873Y-108255000D01*
X142898076Y-108340890D01*
X142491332Y-108509369D01*
X142125272Y-108753962D01*
X141813963Y-109065271D01*
X141569370Y-109431331D01*
X141400891Y-109838075D01*
X141315001Y-110269872D01*
X125465001Y-110269872D01*
X125379111Y-109838075D01*
X125210632Y-109431331D01*
X124966039Y-109065271D01*
X124654730Y-108753962D01*
X124288670Y-108509369D01*
X123881926Y-108340890D01*
X123450129Y-108255000D01*
X123009873Y-108255000D01*
X122578076Y-108340890D01*
X122171332Y-108509369D01*
X121805272Y-108753962D01*
X121493963Y-109065271D01*
X121249370Y-109431331D01*
X121080891Y-109838075D01*
X120995001Y-110269872D01*
X117500000Y-110269872D01*
X117500000Y-105987974D01*
X117514436Y-106005564D01*
X117546418Y-106031811D01*
X118758193Y-107243587D01*
X118784436Y-107275564D01*
X118912068Y-107380309D01*
X119057683Y-107458142D01*
X119215684Y-107506071D01*
X119338830Y-107518200D01*
X119338839Y-107518200D01*
X119379999Y-107522254D01*
X119421159Y-107518200D01*
X120595764Y-107518200D01*
X120717200Y-107699941D01*
X120940060Y-107922801D01*
X121202117Y-108097902D01*
X121493298Y-108218513D01*
X121802415Y-108280000D01*
X122117587Y-108280000D01*
X122426704Y-108218513D01*
X122717885Y-108097902D01*
X122979942Y-107922801D01*
X123202802Y-107699941D01*
X123377903Y-107437884D01*
X123498514Y-107146703D01*
X123560001Y-106837586D01*
X123560001Y-106522414D01*
X143220001Y-106522414D01*
X143220001Y-106837586D01*
X143281488Y-107146703D01*
X143402099Y-107437884D01*
X143577200Y-107699941D01*
X143800060Y-107922801D01*
X144062117Y-108097902D01*
X144353298Y-108218513D01*
X144662415Y-108280000D01*
X144977587Y-108280000D01*
X145286704Y-108218513D01*
X145577885Y-108097902D01*
X145839942Y-107922801D01*
X146062802Y-107699941D01*
X146184238Y-107518200D01*
X167598837Y-107518200D01*
X167640000Y-107522254D01*
X167681163Y-107518200D01*
X167681170Y-107518200D01*
X167804316Y-107506071D01*
X167962317Y-107458142D01*
X168107932Y-107380309D01*
X168235564Y-107275564D01*
X168261811Y-107243582D01*
X170743588Y-104761806D01*
X170775564Y-104735564D01*
X170808314Y-104695659D01*
X170880309Y-104607932D01*
X170958141Y-104462318D01*
X170958142Y-104462317D01*
X171006071Y-104304316D01*
X171018200Y-104181170D01*
X171018200Y-104181161D01*
X171022254Y-104140001D01*
X171018200Y-104098841D01*
X171018200Y-92751163D01*
X171022254Y-92710000D01*
X171018200Y-92668837D01*
X171018200Y-92668830D01*
X171006071Y-92545684D01*
X170958142Y-92387683D01*
X170880309Y-92242068D01*
X170775564Y-92114436D01*
X170743589Y-92088195D01*
X165278200Y-86622807D01*
X165278200Y-85927644D01*
X165360450Y-85845394D01*
X165490134Y-85651308D01*
X165579461Y-85435652D01*
X165625000Y-85206712D01*
X165625000Y-84973288D01*
X165579461Y-84744348D01*
X165490134Y-84528692D01*
X165360450Y-84334606D01*
X165195394Y-84169550D01*
X165001308Y-84039866D01*
X164785652Y-83950539D01*
X164556712Y-83905000D01*
X164323288Y-83905000D01*
X164094348Y-83950539D01*
X163878692Y-84039866D01*
X163684606Y-84169550D01*
X163519550Y-84334606D01*
X163389866Y-84528692D01*
X163300539Y-84744348D01*
X163255000Y-84973288D01*
X163255000Y-85206712D01*
X163300539Y-85435652D01*
X163389866Y-85651308D01*
X163519550Y-85845394D01*
X163601800Y-85927644D01*
X163601801Y-86928828D01*
X163597746Y-86970000D01*
X163613929Y-87134315D01*
X163661858Y-87292316D01*
X163698831Y-87361487D01*
X163739692Y-87437932D01*
X163844437Y-87565564D01*
X163876413Y-87591806D01*
X169341800Y-93057194D01*
X169341801Y-103792805D01*
X167292807Y-105841800D01*
X146184238Y-105841800D01*
X146062802Y-105660059D01*
X145839942Y-105437199D01*
X145714682Y-105353503D01*
X145750848Y-105250452D01*
X144820001Y-104319605D01*
X143889154Y-105250452D01*
X143925320Y-105353503D01*
X143800060Y-105437199D01*
X143577200Y-105660059D01*
X143402099Y-105922116D01*
X143281488Y-106213297D01*
X143220001Y-106522414D01*
X123560001Y-106522414D01*
X123498514Y-106213297D01*
X123377903Y-105922116D01*
X123202802Y-105660059D01*
X122979942Y-105437199D01*
X122939236Y-105410000D01*
X122979942Y-105382801D01*
X123202802Y-105159941D01*
X123377903Y-104897884D01*
X123498514Y-104606703D01*
X123560001Y-104297586D01*
X123560001Y-104203980D01*
X143213531Y-104203980D01*
X143256881Y-104516157D01*
X143360301Y-104813879D01*
X143448726Y-104979309D01*
X143709549Y-105070847D01*
X144640396Y-104140000D01*
X144999606Y-104140000D01*
X145930453Y-105070847D01*
X146191276Y-104979309D01*
X146328669Y-104695659D01*
X146408084Y-104390656D01*
X146426471Y-104076020D01*
X146383121Y-103763843D01*
X146279701Y-103466121D01*
X146191276Y-103300691D01*
X145930453Y-103209153D01*
X144999606Y-104140000D01*
X144640396Y-104140000D01*
X143709549Y-103209153D01*
X143448726Y-103300691D01*
X143311333Y-103584341D01*
X143231918Y-103889344D01*
X143213531Y-104203980D01*
X123560001Y-104203980D01*
X123560001Y-103982414D01*
X123498514Y-103673297D01*
X123377903Y-103382116D01*
X123202802Y-103120059D01*
X122979942Y-102897199D01*
X122939236Y-102870000D01*
X122979942Y-102842801D01*
X123202802Y-102619941D01*
X123377903Y-102357884D01*
X123498514Y-102066703D01*
X123560001Y-101757586D01*
X123560001Y-101442414D01*
X123498514Y-101133297D01*
X123377903Y-100842116D01*
X123202802Y-100580059D01*
X122979942Y-100357199D01*
X122939236Y-100330000D01*
X122979942Y-100302801D01*
X123202802Y-100079941D01*
X123377903Y-99817884D01*
X123498514Y-99526703D01*
X123560001Y-99217586D01*
X123560001Y-98902414D01*
X123498514Y-98593297D01*
X123377903Y-98302116D01*
X123202802Y-98040059D01*
X122979942Y-97817199D01*
X122939236Y-97790000D01*
X122979942Y-97762801D01*
X123202802Y-97539941D01*
X123377903Y-97277884D01*
X123498514Y-96986703D01*
X123560001Y-96677586D01*
X123560001Y-96362414D01*
X123498514Y-96053297D01*
X123377903Y-95762116D01*
X123202802Y-95500059D01*
X122979942Y-95277199D01*
X122939236Y-95250000D01*
X122979942Y-95222801D01*
X123202802Y-94999941D01*
X123377903Y-94737884D01*
X123498514Y-94446703D01*
X123560001Y-94137586D01*
X123560001Y-93822414D01*
X123498514Y-93513297D01*
X123377903Y-93222116D01*
X123202802Y-92960059D01*
X122979942Y-92737199D01*
X122939236Y-92710000D01*
X122979942Y-92682801D01*
X123202802Y-92459941D01*
X123377903Y-92197884D01*
X123498514Y-91906703D01*
X123560001Y-91597586D01*
X123560001Y-91282414D01*
X123498514Y-90973297D01*
X123377903Y-90682116D01*
X123202802Y-90420059D01*
X122979942Y-90197199D01*
X122939236Y-90170000D01*
X122979942Y-90142801D01*
X123202802Y-89919941D01*
X123377903Y-89657884D01*
X123498514Y-89366703D01*
X123560001Y-89057586D01*
X123560001Y-88742414D01*
X123498514Y-88433297D01*
X123377903Y-88142116D01*
X123202802Y-87880059D01*
X122979942Y-87657199D01*
X122939236Y-87630000D01*
X122979942Y-87602801D01*
X123202802Y-87379941D01*
X123377903Y-87117884D01*
X123498514Y-86826703D01*
X123560001Y-86517586D01*
X123560001Y-86202414D01*
X123498514Y-85893297D01*
X123377903Y-85602116D01*
X123202802Y-85340059D01*
X122979942Y-85117199D01*
X122939236Y-85090000D01*
X122979942Y-85062801D01*
X123202802Y-84839941D01*
X123377903Y-84577884D01*
X123498514Y-84286703D01*
X123560001Y-83977586D01*
X123560001Y-83662414D01*
X123498514Y-83353297D01*
X123377903Y-83062116D01*
X123202802Y-82800059D01*
X122979942Y-82577199D01*
X122939236Y-82550000D01*
X122979942Y-82522801D01*
X123202802Y-82299941D01*
X123377903Y-82037884D01*
X123498514Y-81746703D01*
X123560001Y-81437586D01*
X123560001Y-81122414D01*
X123498514Y-80813297D01*
X123377903Y-80522116D01*
X123202802Y-80260059D01*
X122979942Y-80037199D01*
X122939236Y-80010000D01*
X122979942Y-79982801D01*
X123202802Y-79759941D01*
X123377903Y-79497884D01*
X123498514Y-79206703D01*
X123560001Y-78897586D01*
X123560001Y-78582414D01*
X123498514Y-78273297D01*
X123377903Y-77982116D01*
X123202802Y-77720059D01*
X122979942Y-77497199D01*
X122939236Y-77470000D01*
X122979942Y-77442801D01*
X123202802Y-77219941D01*
X123377903Y-76957884D01*
X123498514Y-76666703D01*
X123560001Y-76357586D01*
X123560001Y-76042414D01*
X123498514Y-75733297D01*
X123377903Y-75442116D01*
X123202802Y-75180059D01*
X122979942Y-74957199D01*
X122939236Y-74930000D01*
X122979942Y-74902801D01*
X123202802Y-74679941D01*
X123377903Y-74417884D01*
X123498514Y-74126703D01*
X123560001Y-73817586D01*
X123560001Y-73502414D01*
X123498514Y-73193297D01*
X123377903Y-72902116D01*
X123210912Y-72652196D01*
X123279495Y-72615537D01*
X123376186Y-72536185D01*
X123455538Y-72439494D01*
X123514503Y-72329180D01*
X123550813Y-72209482D01*
X123563073Y-72085000D01*
X123563073Y-70155000D01*
X123550813Y-70030518D01*
X123514503Y-69910820D01*
X123455538Y-69800506D01*
X123376186Y-69703815D01*
X123279495Y-69624463D01*
X123169181Y-69565498D01*
X123101608Y-69545000D01*
X123450129Y-69545000D01*
X123881926Y-69459110D01*
X124288670Y-69290631D01*
X124654730Y-69046038D01*
X124966039Y-68734729D01*
X125210632Y-68368669D01*
X125379111Y-67961925D01*
X125465001Y-67530128D01*
X125465001Y-67089872D01*
X125379111Y-66658075D01*
X125210632Y-66251331D01*
X124966039Y-65885271D01*
X124654730Y-65573962D01*
X124288670Y-65329369D01*
X123881926Y-65160890D01*
X123450129Y-65075000D01*
X123009873Y-65075000D01*
X122578076Y-65160890D01*
X122171332Y-65329369D01*
X121805272Y-65573962D01*
X121493963Y-65885271D01*
X121249370Y-66251331D01*
X121080891Y-66658075D01*
X120995001Y-67089872D01*
X120995001Y-67530128D01*
X121080891Y-67961925D01*
X121249370Y-68368669D01*
X121493963Y-68734729D01*
X121805272Y-69046038D01*
X122171332Y-69290631D01*
X122578076Y-69459110D01*
X122868746Y-69516928D01*
X120995001Y-69516928D01*
X120870519Y-69529188D01*
X120750821Y-69565498D01*
X120640507Y-69624463D01*
X120543816Y-69703815D01*
X120464464Y-69800506D01*
X120405499Y-69910820D01*
X120369189Y-70030518D01*
X120356929Y-70155000D01*
X120356929Y-72085000D01*
X120369189Y-72209482D01*
X120405499Y-72329180D01*
X120464464Y-72439494D01*
X120543816Y-72536185D01*
X120640507Y-72615537D01*
X120709090Y-72652196D01*
X120542099Y-72902116D01*
X120421488Y-73193297D01*
X120360001Y-73502414D01*
X120360001Y-73817586D01*
X120421488Y-74126703D01*
X120542099Y-74417884D01*
X120717200Y-74679941D01*
X120940060Y-74902801D01*
X120980766Y-74930000D01*
X120940060Y-74957199D01*
X120717200Y-75180059D01*
X120542099Y-75442116D01*
X120421488Y-75733297D01*
X120360001Y-76042414D01*
X120360001Y-76357586D01*
X120421488Y-76666703D01*
X120542099Y-76957884D01*
X120717200Y-77219941D01*
X120940060Y-77442801D01*
X120980766Y-77470000D01*
X120940060Y-77497199D01*
X120717200Y-77720059D01*
X120542099Y-77982116D01*
X120421488Y-78273297D01*
X120360001Y-78582414D01*
X120360001Y-78897586D01*
X120421488Y-79206703D01*
X120542099Y-79497884D01*
X120717200Y-79759941D01*
X120940060Y-79982801D01*
X120980766Y-80010000D01*
X120940060Y-80037199D01*
X120717200Y-80260059D01*
X120542099Y-80522116D01*
X120421488Y-80813297D01*
X120360001Y-81122414D01*
X120360001Y-81437586D01*
X120421488Y-81746703D01*
X120542099Y-82037884D01*
X120717200Y-82299941D01*
X120940060Y-82522801D01*
X120980766Y-82550000D01*
X120940060Y-82577199D01*
X120717200Y-82800059D01*
X120542099Y-83062116D01*
X120421488Y-83353297D01*
X120360001Y-83662414D01*
X120360001Y-83977586D01*
X120421488Y-84286703D01*
X120542099Y-84577884D01*
X120717200Y-84839941D01*
X120940060Y-85062801D01*
X120980766Y-85090000D01*
X120940060Y-85117199D01*
X120717200Y-85340059D01*
X120542099Y-85602116D01*
X120421488Y-85893297D01*
X120360001Y-86202414D01*
X120360001Y-86517586D01*
X120421488Y-86826703D01*
X120542099Y-87117884D01*
X120717200Y-87379941D01*
X120940060Y-87602801D01*
X120980766Y-87630000D01*
X120940060Y-87657199D01*
X120717200Y-87880059D01*
X120542099Y-88142116D01*
X120421488Y-88433297D01*
X120360001Y-88742414D01*
X120360001Y-89057586D01*
X120421488Y-89366703D01*
X120542099Y-89657884D01*
X120717200Y-89919941D01*
X120940060Y-90142801D01*
X120980766Y-90170000D01*
X120940060Y-90197199D01*
X120717200Y-90420059D01*
X120542099Y-90682116D01*
X120421488Y-90973297D01*
X120360001Y-91282414D01*
X120360001Y-91597586D01*
X120421488Y-91906703D01*
X120542099Y-92197884D01*
X120717200Y-92459941D01*
X120940060Y-92682801D01*
X120980766Y-92710000D01*
X120940060Y-92737199D01*
X120717200Y-92960059D01*
X120542099Y-93222116D01*
X120421488Y-93513297D01*
X120360001Y-93822414D01*
X120360001Y-94137586D01*
X120421488Y-94446703D01*
X120542099Y-94737884D01*
X120717200Y-94999941D01*
X120940060Y-95222801D01*
X120980766Y-95250000D01*
X120940060Y-95277199D01*
X120717200Y-95500059D01*
X120542099Y-95762116D01*
X120421488Y-96053297D01*
X120360001Y-96362414D01*
X120360001Y-96677586D01*
X120421488Y-96986703D01*
X120542099Y-97277884D01*
X120717200Y-97539941D01*
X120940060Y-97762801D01*
X120980766Y-97790000D01*
X120940060Y-97817199D01*
X120717200Y-98040059D01*
X120542099Y-98302116D01*
X120421488Y-98593297D01*
X120360001Y-98902414D01*
X120360001Y-99217586D01*
X120421488Y-99526703D01*
X120542099Y-99817884D01*
X120717200Y-100079941D01*
X120940060Y-100302801D01*
X120980766Y-100330000D01*
X120940060Y-100357199D01*
X120717200Y-100580059D01*
X120542099Y-100842116D01*
X120421488Y-101133297D01*
X120360001Y-101442414D01*
X120360001Y-101757586D01*
X120421488Y-102066703D01*
X120542099Y-102357884D01*
X120717200Y-102619941D01*
X120940060Y-102842801D01*
X120980766Y-102870000D01*
X120940060Y-102897199D01*
X120717200Y-103120059D01*
X120542099Y-103382116D01*
X120421488Y-103673297D01*
X120360001Y-103982414D01*
X120360001Y-104297586D01*
X120421488Y-104606703D01*
X120542099Y-104897884D01*
X120717200Y-105159941D01*
X120940060Y-105382801D01*
X120980766Y-105410000D01*
X120940060Y-105437199D01*
X120717200Y-105660059D01*
X120595764Y-105841800D01*
X119727194Y-105841800D01*
X118948200Y-105062807D01*
X118948200Y-65117193D01*
X119727194Y-64338200D01*
X157132807Y-64338200D01*
X157911800Y-65117194D01*
G37*
%TD.AperFunction*%
%TD*%
M02*
