%TF.GenerationSoftware,KiCad,Pcbnew,(5.1.12)-1*%
%TF.CreationDate,2021-12-20T17:02:30+01:00*%
%TF.ProjectId,PCB_Chair_tracker,5043425f-4368-4616-9972-5f747261636b,rev?*%
%TF.SameCoordinates,Original*%
%TF.FileFunction,Legend,Top*%
%TF.FilePolarity,Positive*%
%FSLAX46Y46*%
G04 Gerber Fmt 4.6, Leading zero omitted, Abs format (unit mm)*
G04 Created by KiCad (PCBNEW (5.1.12)-1) date 2021-12-20 17:02:30*
%MOMM*%
%LPD*%
G01*
G04 APERTURE LIST*
%ADD10C,0.120000*%
%ADD11C,0.127000*%
%ADD12C,0.200000*%
%ADD13C,0.150000*%
G04 APERTURE END LIST*
D10*
%TO.C,tp2*%
X149800000Y-96460000D02*
X149800000Y-99120000D01*
X152400000Y-96460000D02*
X149800000Y-96460000D01*
X152400000Y-99120000D02*
X149800000Y-99120000D01*
X152400000Y-96460000D02*
X152400000Y-99120000D01*
X153670000Y-96460000D02*
X155000000Y-96460000D01*
X155000000Y-96460000D02*
X155000000Y-97790000D01*
D11*
%TO.C,ESP1*%
X120690001Y-110490000D02*
X120690001Y-67310000D01*
X123230001Y-64770000D02*
X143550001Y-64770000D01*
X146090001Y-67310000D02*
X146090001Y-110490000D01*
X143550001Y-113030000D02*
X123230001Y-113030000D01*
D12*
X119680001Y-71120000D02*
G75*
G03*
X119680001Y-71120000I-100000J0D01*
G01*
X147300001Y-71120000D02*
G75*
G03*
X147300001Y-71120000I-100000J0D01*
G01*
D11*
X120690001Y-67310000D02*
G75*
G02*
X123230001Y-64770000I2540000J0D01*
G01*
X120690001Y-110490000D02*
G75*
G03*
X123230001Y-113030000I2540000J0D01*
G01*
X143550001Y-64770000D02*
G75*
G02*
X146090001Y-67310000I0J-2540000D01*
G01*
X146090001Y-110490000D02*
G75*
G02*
X143550001Y-113030000I-2540000J0D01*
G01*
D10*
%TO.C,Prox1*%
X166310000Y-74990000D02*
X168970000Y-74990000D01*
X166310000Y-67310000D02*
X166310000Y-74990000D01*
X168970000Y-67310000D02*
X168970000Y-74990000D01*
X166310000Y-67310000D02*
X168970000Y-67310000D01*
X166310000Y-66040000D02*
X166310000Y-64710000D01*
X166310000Y-64710000D02*
X167640000Y-64710000D01*
%TO.C,Vib1*%
X156270000Y-67370000D02*
X156270000Y-64710000D01*
X151130000Y-67370000D02*
X156270000Y-67370000D01*
X151130000Y-64710000D02*
X156270000Y-64710000D01*
X151130000Y-67370000D02*
X151130000Y-64710000D01*
X149860000Y-67370000D02*
X148530000Y-67370000D01*
X148530000Y-67370000D02*
X148530000Y-66040000D01*
%TO.C,bat1*%
X156150000Y-91380000D02*
X156150000Y-94040000D01*
X158750000Y-91380000D02*
X156150000Y-91380000D01*
X158750000Y-94040000D02*
X156150000Y-94040000D01*
X158750000Y-91380000D02*
X158750000Y-94040000D01*
X160020000Y-91380000D02*
X161350000Y-91380000D01*
X161350000Y-91380000D02*
X161350000Y-92710000D01*
%TO.C,tp1*%
X161230000Y-99120000D02*
X161230000Y-97790000D01*
X162560000Y-99120000D02*
X161230000Y-99120000D01*
X163830000Y-99120000D02*
X163830000Y-96460000D01*
X163830000Y-96460000D02*
X166430000Y-96460000D01*
X163830000Y-99120000D02*
X166430000Y-99120000D01*
X166430000Y-99120000D02*
X166430000Y-96460000D01*
%TO.C,led1*%
X165040000Y-81340000D02*
X165040000Y-80010000D01*
X166370000Y-81340000D02*
X165040000Y-81340000D01*
X167640000Y-81340000D02*
X167640000Y-78680000D01*
X167640000Y-78680000D02*
X170240000Y-78680000D01*
X167640000Y-81340000D02*
X170240000Y-81340000D01*
X170240000Y-81340000D02*
X170240000Y-78680000D01*
D11*
%TO.C,Alt1*%
X162210000Y-81280000D02*
G75*
G03*
X162210000Y-81280000I-6000000J0D01*
G01*
%TO.C,R1*%
X165170000Y-85090000D02*
X165790000Y-85090000D01*
X165790000Y-85090000D02*
X165790000Y-84090000D01*
X165790000Y-84090000D02*
X166410000Y-84090000D01*
X165790000Y-85090000D02*
X165790000Y-86090000D01*
X165790000Y-86090000D02*
X166410000Y-86090000D01*
X170110000Y-85090000D02*
X169490000Y-85090000D01*
X169490000Y-85090000D02*
X169490000Y-84090000D01*
X169490000Y-84090000D02*
X168870000Y-84090000D01*
X169490000Y-85090000D02*
X169490000Y-86090000D01*
X169490000Y-86090000D02*
X168870000Y-86090000D01*
%TO.C,H1*%
D13*
X166878095Y-114362380D02*
X166878095Y-113362380D01*
X166878095Y-113838571D02*
X167449523Y-113838571D01*
X167449523Y-114362380D02*
X167449523Y-113362380D01*
X168449523Y-114362380D02*
X167878095Y-114362380D01*
X168163809Y-114362380D02*
X168163809Y-113362380D01*
X168068571Y-113505238D01*
X167973333Y-113600476D01*
X167878095Y-113648095D01*
%TO.C,H2*%
X121158095Y-55942380D02*
X121158095Y-54942380D01*
X121158095Y-55418571D02*
X121729523Y-55418571D01*
X121729523Y-55942380D02*
X121729523Y-54942380D01*
X122158095Y-55037619D02*
X122205714Y-54990000D01*
X122300952Y-54942380D01*
X122539047Y-54942380D01*
X122634285Y-54990000D01*
X122681904Y-55037619D01*
X122729523Y-55132857D01*
X122729523Y-55228095D01*
X122681904Y-55370952D01*
X122110476Y-55942380D01*
X122729523Y-55942380D01*
%TO.C,tp2*%
X155785714Y-98909047D02*
X155785714Y-98528095D01*
X155452380Y-98766190D02*
X156309523Y-98766190D01*
X156404761Y-98718571D01*
X156452380Y-98623333D01*
X156452380Y-98528095D01*
X155785714Y-98194761D02*
X156785714Y-98194761D01*
X155833333Y-98194761D02*
X155785714Y-98099523D01*
X155785714Y-97909047D01*
X155833333Y-97813809D01*
X155880952Y-97766190D01*
X155976190Y-97718571D01*
X156261904Y-97718571D01*
X156357142Y-97766190D01*
X156404761Y-97813809D01*
X156452380Y-97909047D01*
X156452380Y-98099523D01*
X156404761Y-98194761D01*
X155547619Y-97337619D02*
X155500000Y-97290000D01*
X155452380Y-97194761D01*
X155452380Y-96956666D01*
X155500000Y-96861428D01*
X155547619Y-96813809D01*
X155642857Y-96766190D01*
X155738095Y-96766190D01*
X155880952Y-96813809D01*
X156452380Y-97385238D01*
X156452380Y-96766190D01*
%TO.C,ESP1*%
X122801667Y-62511000D02*
X123268334Y-62511000D01*
X123468334Y-63244333D02*
X122801667Y-63244333D01*
X122801667Y-61844333D01*
X123468334Y-61844333D01*
X124001667Y-63177666D02*
X124201667Y-63244333D01*
X124535001Y-63244333D01*
X124668334Y-63177666D01*
X124735001Y-63111000D01*
X124801667Y-62977666D01*
X124801667Y-62844333D01*
X124735001Y-62711000D01*
X124668334Y-62644333D01*
X124535001Y-62577666D01*
X124268334Y-62511000D01*
X124135001Y-62444333D01*
X124068334Y-62377666D01*
X124001667Y-62244333D01*
X124001667Y-62111000D01*
X124068334Y-61977666D01*
X124135001Y-61911000D01*
X124268334Y-61844333D01*
X124601667Y-61844333D01*
X124801667Y-61911000D01*
X125401667Y-63244333D02*
X125401667Y-61844333D01*
X125935001Y-61844333D01*
X126068334Y-61911000D01*
X126135001Y-61977666D01*
X126201667Y-62111000D01*
X126201667Y-62311000D01*
X126135001Y-62444333D01*
X126068334Y-62511000D01*
X125935001Y-62577666D01*
X125401667Y-62577666D01*
X127535001Y-63244333D02*
X126735001Y-63244333D01*
X127135001Y-63244333D02*
X127135001Y-61844333D01*
X127001667Y-62044333D01*
X126868334Y-62177666D01*
X126735001Y-62244333D01*
%TO.C,Prox1*%
X165735238Y-64162380D02*
X165735238Y-63162380D01*
X166116190Y-63162380D01*
X166211428Y-63210000D01*
X166259047Y-63257619D01*
X166306666Y-63352857D01*
X166306666Y-63495714D01*
X166259047Y-63590952D01*
X166211428Y-63638571D01*
X166116190Y-63686190D01*
X165735238Y-63686190D01*
X166735238Y-64162380D02*
X166735238Y-63495714D01*
X166735238Y-63686190D02*
X166782857Y-63590952D01*
X166830476Y-63543333D01*
X166925714Y-63495714D01*
X167020952Y-63495714D01*
X167497142Y-64162380D02*
X167401904Y-64114761D01*
X167354285Y-64067142D01*
X167306666Y-63971904D01*
X167306666Y-63686190D01*
X167354285Y-63590952D01*
X167401904Y-63543333D01*
X167497142Y-63495714D01*
X167640000Y-63495714D01*
X167735238Y-63543333D01*
X167782857Y-63590952D01*
X167830476Y-63686190D01*
X167830476Y-63971904D01*
X167782857Y-64067142D01*
X167735238Y-64114761D01*
X167640000Y-64162380D01*
X167497142Y-64162380D01*
X168163809Y-64162380D02*
X168687619Y-63495714D01*
X168163809Y-63495714D02*
X168687619Y-64162380D01*
X169592380Y-64162380D02*
X169020952Y-64162380D01*
X169306666Y-64162380D02*
X169306666Y-63162380D01*
X169211428Y-63305238D01*
X169116190Y-63400476D01*
X169020952Y-63448095D01*
%TO.C,Vib1*%
X146982380Y-67540000D02*
X147982380Y-67206666D01*
X146982380Y-66873333D01*
X147982380Y-66540000D02*
X147315714Y-66540000D01*
X146982380Y-66540000D02*
X147030000Y-66587619D01*
X147077619Y-66540000D01*
X147030000Y-66492380D01*
X146982380Y-66540000D01*
X147077619Y-66540000D01*
X147982380Y-66063809D02*
X146982380Y-66063809D01*
X147363333Y-66063809D02*
X147315714Y-65968571D01*
X147315714Y-65778095D01*
X147363333Y-65682857D01*
X147410952Y-65635238D01*
X147506190Y-65587619D01*
X147791904Y-65587619D01*
X147887142Y-65635238D01*
X147934761Y-65682857D01*
X147982380Y-65778095D01*
X147982380Y-65968571D01*
X147934761Y-66063809D01*
X147982380Y-64635238D02*
X147982380Y-65206666D01*
X147982380Y-64920952D02*
X146982380Y-64920952D01*
X147125238Y-65016190D01*
X147220476Y-65111428D01*
X147268095Y-65206666D01*
%TO.C,bat1*%
X162802380Y-94138571D02*
X161802380Y-94138571D01*
X162183333Y-94138571D02*
X162135714Y-94043333D01*
X162135714Y-93852857D01*
X162183333Y-93757619D01*
X162230952Y-93710000D01*
X162326190Y-93662380D01*
X162611904Y-93662380D01*
X162707142Y-93710000D01*
X162754761Y-93757619D01*
X162802380Y-93852857D01*
X162802380Y-94043333D01*
X162754761Y-94138571D01*
X162802380Y-92805238D02*
X162278571Y-92805238D01*
X162183333Y-92852857D01*
X162135714Y-92948095D01*
X162135714Y-93138571D01*
X162183333Y-93233809D01*
X162754761Y-92805238D02*
X162802380Y-92900476D01*
X162802380Y-93138571D01*
X162754761Y-93233809D01*
X162659523Y-93281428D01*
X162564285Y-93281428D01*
X162469047Y-93233809D01*
X162421428Y-93138571D01*
X162421428Y-92900476D01*
X162373809Y-92805238D01*
X162135714Y-92471904D02*
X162135714Y-92090952D01*
X161802380Y-92329047D02*
X162659523Y-92329047D01*
X162754761Y-92281428D01*
X162802380Y-92186190D01*
X162802380Y-92090952D01*
X162802380Y-91233809D02*
X162802380Y-91805238D01*
X162802380Y-91519523D02*
X161802380Y-91519523D01*
X161945238Y-91614761D01*
X162040476Y-91710000D01*
X162088095Y-91805238D01*
%TO.C,tp1*%
X160015714Y-98909047D02*
X160015714Y-98528095D01*
X159682380Y-98766190D02*
X160539523Y-98766190D01*
X160634761Y-98718571D01*
X160682380Y-98623333D01*
X160682380Y-98528095D01*
X160015714Y-98194761D02*
X161015714Y-98194761D01*
X160063333Y-98194761D02*
X160015714Y-98099523D01*
X160015714Y-97909047D01*
X160063333Y-97813809D01*
X160110952Y-97766190D01*
X160206190Y-97718571D01*
X160491904Y-97718571D01*
X160587142Y-97766190D01*
X160634761Y-97813809D01*
X160682380Y-97909047D01*
X160682380Y-98099523D01*
X160634761Y-98194761D01*
X160682380Y-96766190D02*
X160682380Y-97337619D01*
X160682380Y-97051904D02*
X159682380Y-97051904D01*
X159825238Y-97147142D01*
X159920476Y-97242380D01*
X159968095Y-97337619D01*
%TO.C,led1*%
X164492380Y-81248095D02*
X164444761Y-81343333D01*
X164349523Y-81390952D01*
X163492380Y-81390952D01*
X164444761Y-80486190D02*
X164492380Y-80581428D01*
X164492380Y-80771904D01*
X164444761Y-80867142D01*
X164349523Y-80914761D01*
X163968571Y-80914761D01*
X163873333Y-80867142D01*
X163825714Y-80771904D01*
X163825714Y-80581428D01*
X163873333Y-80486190D01*
X163968571Y-80438571D01*
X164063809Y-80438571D01*
X164159047Y-80914761D01*
X164492380Y-79581428D02*
X163492380Y-79581428D01*
X164444761Y-79581428D02*
X164492380Y-79676666D01*
X164492380Y-79867142D01*
X164444761Y-79962380D01*
X164397142Y-80010000D01*
X164301904Y-80057619D01*
X164016190Y-80057619D01*
X163920952Y-80010000D01*
X163873333Y-79962380D01*
X163825714Y-79867142D01*
X163825714Y-79676666D01*
X163873333Y-79581428D01*
X164492380Y-78581428D02*
X164492380Y-79152857D01*
X164492380Y-78867142D02*
X163492380Y-78867142D01*
X163635238Y-78962380D01*
X163730476Y-79057619D01*
X163778095Y-79152857D01*
%TO.C,Alt1*%
X155321911Y-73901766D02*
X155798743Y-73901766D01*
X155226545Y-74187864D02*
X155560327Y-73186518D01*
X155894109Y-74187864D01*
X156370940Y-74187864D02*
X156275574Y-74140181D01*
X156227891Y-74044815D01*
X156227891Y-73186518D01*
X156609356Y-73520300D02*
X156990821Y-73520300D01*
X156752406Y-73186518D02*
X156752406Y-74044815D01*
X156800089Y-74140181D01*
X156895455Y-74187864D01*
X156990821Y-74187864D01*
X157849118Y-74187864D02*
X157276920Y-74187864D01*
X157563019Y-74187864D02*
X157563019Y-73186518D01*
X157467653Y-73329568D01*
X157372286Y-73424934D01*
X157276920Y-73472617D01*
X148173015Y-81922713D02*
X148936444Y-81922713D01*
X148554730Y-82304427D02*
X148554730Y-81540999D01*
X162436130Y-81922437D02*
X163199229Y-81922437D01*
%TO.C,R1*%
X167472952Y-82361163D02*
X167138858Y-81883886D01*
X166900219Y-82361163D02*
X166900219Y-81358880D01*
X167282041Y-81358880D01*
X167377497Y-81406608D01*
X167425225Y-81454336D01*
X167472952Y-81549791D01*
X167472952Y-81692975D01*
X167425225Y-81788430D01*
X167377497Y-81836158D01*
X167282041Y-81883886D01*
X166900219Y-81883886D01*
X168427508Y-82361163D02*
X167854774Y-82361163D01*
X168141141Y-82361163D02*
X168141141Y-81358880D01*
X168045685Y-81502064D01*
X167950230Y-81597519D01*
X167854774Y-81645247D01*
%TO.C,H1*%
X166878095Y-55942380D02*
X166878095Y-54942380D01*
X166878095Y-55418571D02*
X167449523Y-55418571D01*
X167449523Y-55942380D02*
X167449523Y-54942380D01*
X168449523Y-55942380D02*
X167878095Y-55942380D01*
X168163809Y-55942380D02*
X168163809Y-54942380D01*
X168068571Y-55085238D01*
X167973333Y-55180476D01*
X167878095Y-55228095D01*
%TO.C,H2*%
X121158095Y-114362380D02*
X121158095Y-113362380D01*
X121158095Y-113838571D02*
X121729523Y-113838571D01*
X121729523Y-114362380D02*
X121729523Y-113362380D01*
X122158095Y-113457619D02*
X122205714Y-113410000D01*
X122300952Y-113362380D01*
X122539047Y-113362380D01*
X122634285Y-113410000D01*
X122681904Y-113457619D01*
X122729523Y-113552857D01*
X122729523Y-113648095D01*
X122681904Y-113790952D01*
X122110476Y-114362380D01*
X122729523Y-114362380D01*
%TD*%
M02*
