%TF.GenerationSoftware,KiCad,Pcbnew,(5.1.12)-1*%
%TF.CreationDate,2021-12-07T17:24:08+01:00*%
%TF.ProjectId,PCB_Chair_tracker,5043425f-4368-4616-9972-5f747261636b,rev?*%
%TF.SameCoordinates,Original*%
%TF.FileFunction,Other,User*%
%FSLAX46Y46*%
G04 Gerber Fmt 4.6, Leading zero omitted, Abs format (unit mm)*
G04 Created by KiCad (PCBNEW (5.1.12)-1) date 2021-12-07 17:24:08*
%MOMM*%
%LPD*%
G01*
G04 APERTURE LIST*
%ADD10C,0.050000*%
G04 APERTURE END LIST*
D10*
%TO.C,H1*%
X171090000Y-118110000D02*
G75*
G03*
X171090000Y-118110000I-3450000J0D01*
G01*
%TO.C,H2*%
X125370000Y-59690000D02*
G75*
G03*
X125370000Y-59690000I-3450000J0D01*
G01*
%TO.C,tp2*%
X165840000Y-99590000D02*
X169440000Y-99590000D01*
X165840000Y-93440000D02*
X165840000Y-99590000D01*
X169440000Y-93440000D02*
X165840000Y-93440000D01*
X169440000Y-99590000D02*
X169440000Y-93440000D01*
%TO.C,ESP1*%
X146340001Y-67310000D02*
X146340001Y-110490000D01*
X123230001Y-64520000D02*
X143550001Y-64520000D01*
X120440001Y-110490000D02*
X120440001Y-67310000D01*
X143550001Y-113280000D02*
X123230001Y-113280000D01*
X123230001Y-113280000D02*
G75*
G02*
X120440001Y-110490000I0J2790000D01*
G01*
X120440001Y-67310000D02*
G75*
G02*
X123230001Y-64520000I2790000J0D01*
G01*
X143550001Y-64520000D02*
G75*
G02*
X146340001Y-67310000I0J-2790000D01*
G01*
X146340001Y-110490000D02*
G75*
G02*
X143550001Y-113280000I-2790000J0D01*
G01*
%TO.C,Prox1*%
X169440000Y-76940000D02*
X165840000Y-76940000D01*
X169440000Y-88140000D02*
X169440000Y-76940000D01*
X165840000Y-88140000D02*
X169440000Y-88140000D01*
X165840000Y-76940000D02*
X165840000Y-88140000D01*
%TO.C,Vib1*%
X169440000Y-65510000D02*
X165840000Y-65510000D01*
X169440000Y-74160000D02*
X169440000Y-65510000D01*
X165840000Y-74160000D02*
X169440000Y-74160000D01*
X165840000Y-65510000D02*
X165840000Y-74160000D01*
%TO.C,bat1*%
X158220000Y-105940000D02*
X161820000Y-105940000D01*
X158220000Y-99790000D02*
X158220000Y-105940000D01*
X161820000Y-99790000D02*
X158220000Y-99790000D01*
X161820000Y-105940000D02*
X161820000Y-99790000D01*
%TO.C,tp1*%
X165840000Y-106150000D02*
X165840000Y-112300000D01*
X165840000Y-112300000D02*
X169440000Y-112300000D01*
X169440000Y-112300000D02*
X169440000Y-106150000D01*
X169440000Y-106150000D02*
X165840000Y-106150000D01*
%TO.C,led1*%
X153140000Y-103610000D02*
X153140000Y-109760000D01*
X153140000Y-109760000D02*
X156740000Y-109760000D01*
X156740000Y-109760000D02*
X156740000Y-103610000D01*
X156740000Y-103610000D02*
X153140000Y-103610000D01*
%TO.C,Alt1*%
X159920000Y-88900000D02*
G75*
G03*
X159920000Y-88900000I-6250000J0D01*
G01*
%TO.C,R1*%
X148610000Y-107120000D02*
X149060000Y-107120000D01*
X148610000Y-111320000D02*
X148610000Y-107120000D01*
X149060000Y-111320000D02*
X148610000Y-111320000D01*
X149060000Y-113220000D02*
X149060000Y-111320000D01*
X150660000Y-113220000D02*
X149060000Y-113220000D01*
X150660000Y-111320000D02*
X150660000Y-113220000D01*
X151110000Y-111320000D02*
X150660000Y-111320000D01*
X151110000Y-107120000D02*
X151110000Y-111320000D01*
X150660000Y-107120000D02*
X151110000Y-107120000D01*
X150660000Y-105220000D02*
X150660000Y-107120000D01*
X149060000Y-105220000D02*
X150660000Y-105220000D01*
X149060000Y-107120000D02*
X149060000Y-105220000D01*
%TO.C,H1*%
X171090000Y-59690000D02*
G75*
G03*
X171090000Y-59690000I-3450000J0D01*
G01*
%TO.C,H2*%
X125370000Y-118110000D02*
G75*
G03*
X125370000Y-118110000I-3450000J0D01*
G01*
%TD*%
M02*
