%TF.GenerationSoftware,KiCad,Pcbnew,(5.1.12)-1*%
%TF.CreationDate,2021-12-07T17:24:08+01:00*%
%TF.ProjectId,PCB_Chair_tracker,5043425f-4368-4616-9972-5f747261636b,rev?*%
%TF.SameCoordinates,Original*%
%TF.FileFunction,Soldermask,Top*%
%TF.FilePolarity,Negative*%
%FSLAX46Y46*%
G04 Gerber Fmt 4.6, Leading zero omitted, Abs format (unit mm)*
G04 Created by KiCad (PCBNEW (5.1.12)-1) date 2021-12-07 17:24:08*
%MOMM*%
%LPD*%
G01*
G04 APERTURE LIST*
%ADD10C,3.200000*%
%ADD11R,1.700000X1.700000*%
%ADD12O,1.700000X1.700000*%
%ADD13R,1.930000X1.930000*%
%ADD14C,1.930000*%
%ADD15C,1.308000*%
%ADD16C,1.100000*%
G04 APERTURE END LIST*
D10*
%TO.C,H1*%
X167640000Y-118110000D03*
%TD*%
%TO.C,H2*%
X121920000Y-59690000D03*
%TD*%
D11*
%TO.C,tp2*%
X167640000Y-97790000D03*
D12*
X167640000Y-95250000D03*
%TD*%
D13*
%TO.C,ESP1*%
X121960001Y-71120000D03*
D14*
X121960001Y-73660000D03*
X121960001Y-76200000D03*
X121960001Y-78740000D03*
X121960001Y-81280000D03*
X121960001Y-83820000D03*
X121960001Y-86360000D03*
X121960001Y-88900000D03*
X121960001Y-91440000D03*
X121960001Y-93980000D03*
X121960001Y-96520000D03*
X121960001Y-99060000D03*
X121960001Y-101600000D03*
X121960001Y-104140000D03*
X121960001Y-106680000D03*
D13*
X144820001Y-71120000D03*
D14*
X144820001Y-73660000D03*
X144820001Y-76200000D03*
X144820001Y-78740000D03*
X144820001Y-81280000D03*
X144820001Y-83820000D03*
X144820001Y-86360000D03*
X144820001Y-88900000D03*
X144820001Y-91440000D03*
X144820001Y-93980000D03*
X144820001Y-96520000D03*
X144820001Y-99060000D03*
X144820001Y-101600000D03*
X144820001Y-104140000D03*
X144820001Y-106680000D03*
D10*
X123230001Y-67310000D03*
X143550001Y-67310000D03*
X143550001Y-110490000D03*
X123230001Y-110490000D03*
%TD*%
D11*
%TO.C,Prox1*%
X167640000Y-78740000D03*
D12*
X167640000Y-81280000D03*
X167640000Y-83820000D03*
X167640000Y-86360000D03*
%TD*%
D11*
%TO.C,Vib1*%
X167640000Y-67310000D03*
D12*
X167640000Y-69850000D03*
X167640000Y-72390000D03*
%TD*%
D11*
%TO.C,bat1*%
X160020000Y-104140000D03*
D12*
X160020000Y-101600000D03*
%TD*%
%TO.C,tp1*%
X167640000Y-110490000D03*
D11*
X167640000Y-107950000D03*
%TD*%
D12*
%TO.C,led1*%
X154940000Y-107950000D03*
D11*
X154940000Y-105410000D03*
%TD*%
D15*
%TO.C,Alt1*%
X150420000Y-88900000D03*
X156920000Y-88900000D03*
%TD*%
D16*
%TO.C,R1*%
X149860000Y-106020000D03*
X149860000Y-112420000D03*
%TD*%
D10*
%TO.C,H1*%
X167640000Y-59690000D03*
%TD*%
%TO.C,H2*%
X121920000Y-118110000D03*
%TD*%
M02*
