M48
; DRILL file {KiCad (5.1.12)-1} date 12/07/21 17:22:26
; FORMAT={-:-/ absolute / metric / decimal}
; #@! TF.CreationDate,2021-12-07T17:22:26+01:00
; #@! TF.GenerationSoftware,Kicad,Pcbnew,(5.1.12)-1
; #@! TF.FileFunction,Plated,1,2,PTH
FMAT,2
METRIC
T1C0.700
T2C0.800
T3C0.889
T4C1.000
%
G90
G05
T1
X149.86Y-106.02
X149.86Y-112.42
T2
X150.42Y-88.9
X156.92Y-88.9
T3
X121.96Y-71.12
X121.96Y-73.66
X121.96Y-76.2
X121.96Y-78.74
X121.96Y-81.28
X121.96Y-83.82
X121.96Y-86.36
X121.96Y-88.9
X121.96Y-91.44
X121.96Y-93.98
X121.96Y-96.52
X121.96Y-99.06
X121.96Y-101.6
X121.96Y-104.14
X121.96Y-106.68
X144.82Y-71.12
X144.82Y-73.66
X144.82Y-76.2
X144.82Y-78.74
X144.82Y-81.28
X144.82Y-83.82
X144.82Y-86.36
X144.82Y-88.9
X144.82Y-91.44
X144.82Y-93.98
X144.82Y-96.52
X144.82Y-99.06
X144.82Y-101.6
X144.82Y-104.14
X144.82Y-106.68
T4
X154.94Y-105.41
X154.94Y-107.95
X160.02Y-101.6
X160.02Y-104.14
X167.64Y-67.31
X167.64Y-69.85
X167.64Y-72.39
X167.64Y-78.74
X167.64Y-81.28
X167.64Y-83.82
X167.64Y-86.36
X167.64Y-95.25
X167.64Y-97.79
X167.64Y-107.95
X167.64Y-110.49
T0
M30
