%TF.GenerationSoftware,KiCad,Pcbnew,(5.1.12)-1*%
%TF.CreationDate,2021-12-07T17:24:08+01:00*%
%TF.ProjectId,PCB_Chair_tracker,5043425f-4368-4616-9972-5f747261636b,rev?*%
%TF.SameCoordinates,Original*%
%TF.FileFunction,Copper,L2,Bot*%
%TF.FilePolarity,Positive*%
%FSLAX46Y46*%
G04 Gerber Fmt 4.6, Leading zero omitted, Abs format (unit mm)*
G04 Created by KiCad (PCBNEW (5.1.12)-1) date 2021-12-07 17:24:08*
%MOMM*%
%LPD*%
G01*
G04 APERTURE LIST*
%TA.AperFunction,NonConductor*%
%ADD10C,0.300000*%
%TD*%
%TA.AperFunction,ComponentPad*%
%ADD11R,1.700000X1.700000*%
%TD*%
%TA.AperFunction,ComponentPad*%
%ADD12O,1.700000X1.700000*%
%TD*%
%TA.AperFunction,ComponentPad*%
%ADD13R,1.930000X1.930000*%
%TD*%
%TA.AperFunction,ComponentPad*%
%ADD14C,1.930000*%
%TD*%
%TA.AperFunction,ComponentPad*%
%ADD15C,1.308000*%
%TD*%
%TA.AperFunction,ComponentPad*%
%ADD16C,1.100000*%
%TD*%
%TA.AperFunction,Conductor*%
%ADD17C,0.406400*%
%TD*%
%TA.AperFunction,Conductor*%
%ADD18C,0.254000*%
%TD*%
%TA.AperFunction,Conductor*%
%ADD19C,0.100000*%
%TD*%
G04 APERTURE END LIST*
D10*
X153871428Y-118558571D02*
X153871428Y-119630000D01*
X153942857Y-119844285D01*
X154085714Y-119987142D01*
X154300000Y-120058571D01*
X154442857Y-120058571D01*
X153157142Y-119915714D02*
X153085714Y-119987142D01*
X153157142Y-120058571D01*
X153228571Y-119987142D01*
X153157142Y-119915714D01*
X153157142Y-120058571D01*
X152514285Y-119630000D02*
X151800000Y-119630000D01*
X152657142Y-120058571D02*
X152157142Y-118558571D01*
X151657142Y-120058571D01*
X151157142Y-119915714D02*
X151085714Y-119987142D01*
X151157142Y-120058571D01*
X151228571Y-119987142D01*
X151157142Y-119915714D01*
X151157142Y-120058571D01*
X150514285Y-119987142D02*
X150300000Y-120058571D01*
X149942857Y-120058571D01*
X149800000Y-119987142D01*
X149728571Y-119915714D01*
X149657142Y-119772857D01*
X149657142Y-119630000D01*
X149728571Y-119487142D01*
X149800000Y-119415714D01*
X149942857Y-119344285D01*
X150228571Y-119272857D01*
X150371428Y-119201428D01*
X150442857Y-119130000D01*
X150514285Y-118987142D01*
X150514285Y-118844285D01*
X150442857Y-118701428D01*
X150371428Y-118630000D01*
X150228571Y-118558571D01*
X149871428Y-118558571D01*
X149657142Y-118630000D01*
X146657142Y-120058571D02*
X146728571Y-120058571D01*
X146871428Y-119987142D01*
X147085714Y-119772857D01*
X147442857Y-119344285D01*
X147585714Y-119130000D01*
X147657142Y-118915714D01*
X147657142Y-118772857D01*
X147585714Y-118630000D01*
X147442857Y-118558571D01*
X147371428Y-118558571D01*
X147228571Y-118630000D01*
X147157142Y-118772857D01*
X147157142Y-118844285D01*
X147228571Y-118987142D01*
X147300000Y-119058571D01*
X147728571Y-119344285D01*
X147800000Y-119415714D01*
X147871428Y-119558571D01*
X147871428Y-119772857D01*
X147800000Y-119915714D01*
X147728571Y-119987142D01*
X147585714Y-120058571D01*
X147371428Y-120058571D01*
X147228571Y-119987142D01*
X147157142Y-119915714D01*
X146942857Y-119630000D01*
X146871428Y-119415714D01*
X146871428Y-119272857D01*
X144442857Y-118558571D02*
X144442857Y-119630000D01*
X144514285Y-119844285D01*
X144657142Y-119987142D01*
X144871428Y-120058571D01*
X145014285Y-120058571D01*
X143728571Y-119915714D02*
X143657142Y-119987142D01*
X143728571Y-120058571D01*
X143800000Y-119987142D01*
X143728571Y-119915714D01*
X143728571Y-120058571D01*
X143085714Y-119630000D02*
X142371428Y-119630000D01*
X143228571Y-120058571D02*
X142728571Y-118558571D01*
X142228571Y-120058571D01*
X141728571Y-119915714D02*
X141657142Y-119987142D01*
X141728571Y-120058571D01*
X141800000Y-119987142D01*
X141728571Y-119915714D01*
X141728571Y-120058571D01*
X140228571Y-118630000D02*
X140371428Y-118558571D01*
X140585714Y-118558571D01*
X140800000Y-118630000D01*
X140942857Y-118772857D01*
X141014285Y-118915714D01*
X141085714Y-119201428D01*
X141085714Y-119415714D01*
X141014285Y-119701428D01*
X140942857Y-119844285D01*
X140800000Y-119987142D01*
X140585714Y-120058571D01*
X140442857Y-120058571D01*
X140228571Y-119987142D01*
X140157142Y-119915714D01*
X140157142Y-119415714D01*
X140442857Y-119415714D01*
X139514285Y-119915714D02*
X139442857Y-119987142D01*
X139514285Y-120058571D01*
X139585714Y-119987142D01*
X139514285Y-119915714D01*
X139514285Y-120058571D01*
X138800000Y-120058571D02*
X138800000Y-118558571D01*
X138300000Y-119630000D01*
X137800000Y-118558571D01*
X137800000Y-120058571D01*
X152315714Y-60225714D02*
X152387142Y-60297142D01*
X152601428Y-60368571D01*
X152744285Y-60368571D01*
X152958571Y-60297142D01*
X153101428Y-60154285D01*
X153172857Y-60011428D01*
X153244285Y-59725714D01*
X153244285Y-59511428D01*
X153172857Y-59225714D01*
X153101428Y-59082857D01*
X152958571Y-58940000D01*
X152744285Y-58868571D01*
X152601428Y-58868571D01*
X152387142Y-58940000D01*
X152315714Y-59011428D01*
X151672857Y-60368571D02*
X151672857Y-58868571D01*
X151672857Y-59582857D02*
X150815714Y-59582857D01*
X150815714Y-60368571D02*
X150815714Y-58868571D01*
X150172857Y-59940000D02*
X149458571Y-59940000D01*
X150315714Y-60368571D02*
X149815714Y-58868571D01*
X149315714Y-60368571D01*
X148815714Y-60368571D02*
X148815714Y-58868571D01*
X147244285Y-60368571D02*
X147744285Y-59654285D01*
X148101428Y-60368571D02*
X148101428Y-58868571D01*
X147530000Y-58868571D01*
X147387142Y-58940000D01*
X147315714Y-59011428D01*
X147244285Y-59154285D01*
X147244285Y-59368571D01*
X147315714Y-59511428D01*
X147387142Y-59582857D01*
X147530000Y-59654285D01*
X148101428Y-59654285D01*
X145672857Y-58868571D02*
X144815714Y-58868571D01*
X145244285Y-60368571D02*
X145244285Y-58868571D01*
X143458571Y-60368571D02*
X143958571Y-59654285D01*
X144315714Y-60368571D02*
X144315714Y-58868571D01*
X143744285Y-58868571D01*
X143601428Y-58940000D01*
X143530000Y-59011428D01*
X143458571Y-59154285D01*
X143458571Y-59368571D01*
X143530000Y-59511428D01*
X143601428Y-59582857D01*
X143744285Y-59654285D01*
X144315714Y-59654285D01*
X142887142Y-59940000D02*
X142172857Y-59940000D01*
X143030000Y-60368571D02*
X142530000Y-58868571D01*
X142030000Y-60368571D01*
X140672857Y-60225714D02*
X140744285Y-60297142D01*
X140958571Y-60368571D01*
X141101428Y-60368571D01*
X141315714Y-60297142D01*
X141458571Y-60154285D01*
X141530000Y-60011428D01*
X141601428Y-59725714D01*
X141601428Y-59511428D01*
X141530000Y-59225714D01*
X141458571Y-59082857D01*
X141315714Y-58940000D01*
X141101428Y-58868571D01*
X140958571Y-58868571D01*
X140744285Y-58940000D01*
X140672857Y-59011428D01*
X140030000Y-60368571D02*
X140030000Y-58868571D01*
X139172857Y-60368571D02*
X139815714Y-59511428D01*
X139172857Y-58868571D02*
X140030000Y-59725714D01*
X138530000Y-59582857D02*
X138030000Y-59582857D01*
X137815714Y-60368571D02*
X138530000Y-60368571D01*
X138530000Y-58868571D01*
X137815714Y-58868571D01*
X136315714Y-60368571D02*
X136815714Y-59654285D01*
X137172857Y-60368571D02*
X137172857Y-58868571D01*
X136601428Y-58868571D01*
X136458571Y-58940000D01*
X136387142Y-59011428D01*
X136315714Y-59154285D01*
X136315714Y-59368571D01*
X136387142Y-59511428D01*
X136458571Y-59582857D01*
X136601428Y-59654285D01*
X137172857Y-59654285D01*
D11*
%TO.P,tp2,1*%
%TO.N,/VIN*%
X167640000Y-97790000D03*
D12*
%TO.P,tp2,2*%
%TO.N,/B+*%
X167640000Y-95250000D03*
%TD*%
D13*
%TO.P,ESP1,J1_1*%
%TO.N,N/C*%
X121960001Y-71120000D03*
D14*
%TO.P,ESP1,J1_2*%
X121960001Y-73660000D03*
%TO.P,ESP1,J1_3*%
X121960001Y-76200000D03*
%TO.P,ESP1,J1_4*%
X121960001Y-78740000D03*
%TO.P,ESP1,J1_5*%
X121960001Y-81280000D03*
%TO.P,ESP1,J1_6*%
X121960001Y-83820000D03*
%TO.P,ESP1,J1_7*%
X121960001Y-86360000D03*
%TO.P,ESP1,J1_8*%
X121960001Y-88900000D03*
%TO.P,ESP1,J1_9*%
X121960001Y-91440000D03*
%TO.P,ESP1,J1_10*%
X121960001Y-93980000D03*
%TO.P,ESP1,J1_11*%
X121960001Y-96520000D03*
%TO.P,ESP1,J1_12*%
X121960001Y-99060000D03*
%TO.P,ESP1,J1_13*%
X121960001Y-101600000D03*
%TO.P,ESP1,J1_14*%
X121960001Y-104140000D03*
%TO.P,ESP1,J1_15*%
%TO.N,/VIN*%
X121960001Y-106680000D03*
D13*
%TO.P,ESP1,J2_1*%
%TO.N,/VIBRADOR_PIN*%
X144820001Y-71120000D03*
D14*
%TO.P,ESP1,J2_2*%
%TO.N,/TRIGGER_PIN*%
X144820001Y-73660000D03*
%TO.P,ESP1,J2_3*%
%TO.N,/ECHO_PIN*%
X144820001Y-76200000D03*
%TO.P,ESP1,J2_4*%
%TO.N,/ALARMA_PIN*%
X144820001Y-78740000D03*
%TO.P,ESP1,J2_5*%
%TO.N,N/C*%
X144820001Y-81280000D03*
%TO.P,ESP1,J2_6*%
X144820001Y-83820000D03*
%TO.P,ESP1,J2_7*%
X144820001Y-86360000D03*
%TO.P,ESP1,J2_8*%
X144820001Y-88900000D03*
%TO.P,ESP1,J2_9*%
X144820001Y-91440000D03*
%TO.P,ESP1,J2_10*%
X144820001Y-93980000D03*
%TO.P,ESP1,J2_11*%
X144820001Y-96520000D03*
%TO.P,ESP1,J2_12*%
X144820001Y-99060000D03*
%TO.P,ESP1,J2_13*%
X144820001Y-101600000D03*
%TO.P,ESP1,J2_14*%
%TO.N,/GND*%
X144820001Y-104140000D03*
%TO.P,ESP1,J2_15*%
%TO.N,/3V3*%
X144820001Y-106680000D03*
%TD*%
D11*
%TO.P,Prox1,1*%
%TO.N,/VIN*%
X167640000Y-78740000D03*
D12*
%TO.P,Prox1,2*%
%TO.N,/TRIGGER_PIN*%
X167640000Y-81280000D03*
%TO.P,Prox1,3*%
%TO.N,/ECHO_PIN*%
X167640000Y-83820000D03*
%TO.P,Prox1,4*%
%TO.N,/GND*%
X167640000Y-86360000D03*
%TD*%
D11*
%TO.P,Vib1,1*%
%TO.N,/VIBRADOR_PIN*%
X167640000Y-67310000D03*
D12*
%TO.P,Vib1,2*%
%TO.N,/VIN*%
X167640000Y-69850000D03*
%TO.P,Vib1,3*%
%TO.N,/GND*%
X167640000Y-72390000D03*
%TD*%
D11*
%TO.P,bat1,1*%
%TO.N,/B-*%
X160020000Y-104140000D03*
D12*
%TO.P,bat1,2*%
%TO.N,/B+*%
X160020000Y-101600000D03*
%TD*%
%TO.P,tp1,2*%
%TO.N,/GND*%
X167640000Y-110490000D03*
D11*
%TO.P,tp1,1*%
%TO.N,/B-*%
X167640000Y-107950000D03*
%TD*%
D12*
%TO.P,led1,2*%
%TO.N,Net-(R1-Pad2)*%
X154940000Y-107950000D03*
D11*
%TO.P,led1,1*%
%TO.N,/GND*%
X154940000Y-105410000D03*
%TD*%
D15*
%TO.P,Alt1,P*%
%TO.N,/ALARMA_PIN*%
X150420000Y-88900000D03*
%TO.P,Alt1,N*%
%TO.N,/GND*%
X156920000Y-88900000D03*
%TD*%
D16*
%TO.P,R1,1*%
%TO.N,/3V3*%
X149860000Y-106020000D03*
%TO.P,R1,2*%
%TO.N,Net-(R1-Pad2)*%
X149860000Y-112420000D03*
%TD*%
D17*
%TO.N,/VIN*%
X170180000Y-97790000D02*
X167640000Y-97790000D01*
X171450000Y-113030000D02*
X171450000Y-99060000D01*
X171450000Y-99060000D02*
X170180000Y-97790000D01*
X170180000Y-114300000D02*
X171450000Y-113030000D01*
X118110000Y-114300000D02*
X170180000Y-114300000D01*
X118110000Y-107950000D02*
X118110000Y-114300000D01*
X119380000Y-106680000D02*
X118110000Y-107950000D01*
X121960001Y-106680000D02*
X119380000Y-106680000D01*
X171450000Y-99060000D02*
X171450000Y-80010000D01*
X171450000Y-80010000D02*
X170180000Y-78740000D01*
X170180000Y-78740000D02*
X167640000Y-78740000D01*
X165100000Y-69850000D02*
X167640000Y-69850000D01*
X163830000Y-71120000D02*
X165100000Y-69850000D01*
X163830000Y-74930000D02*
X163830000Y-71120000D01*
X167640000Y-78740000D02*
X163830000Y-74930000D01*
%TO.N,/VIBRADOR_PIN*%
X148630001Y-67310000D02*
X167640000Y-67310000D01*
X144820001Y-71120000D02*
X148630001Y-67310000D01*
%TO.N,/TRIGGER_PIN*%
X160020000Y-73660000D02*
X167640000Y-81280000D01*
X144820001Y-73660000D02*
X160020000Y-73660000D01*
%TO.N,/ECHO_PIN*%
X160020000Y-76200000D02*
X167640000Y-83820000D01*
X144820001Y-76200000D02*
X160020000Y-76200000D01*
%TO.N,/ALARMA_PIN*%
X150420000Y-84339999D02*
X150420000Y-88900000D01*
X144820001Y-78740000D02*
X150420000Y-84339999D01*
%TO.N,/3V3*%
X149200000Y-106680000D02*
X149860000Y-106020000D01*
X144820001Y-106680000D02*
X149200000Y-106680000D01*
%TO.N,/B-*%
X163830000Y-107950000D02*
X160020000Y-104140000D01*
X167640000Y-107950000D02*
X163830000Y-107950000D01*
%TO.N,/B+*%
X166370000Y-95250000D02*
X160020000Y-101600000D01*
X167640000Y-95250000D02*
X166370000Y-95250000D01*
%TO.N,Net-(R1-Pad2)*%
X154330000Y-107950000D02*
X154940000Y-107950000D01*
X149860000Y-112420000D02*
X154330000Y-107950000D01*
%TD*%
D18*
%TO.N,/GND*%
X172060000Y-79432027D02*
X172045564Y-79414436D01*
X172013587Y-79388193D01*
X170801811Y-78176418D01*
X170775564Y-78144436D01*
X170647932Y-78039691D01*
X170502317Y-77961858D01*
X170344316Y-77913929D01*
X170221170Y-77901800D01*
X170221163Y-77901800D01*
X170180000Y-77897746D01*
X170138837Y-77901800D01*
X169128072Y-77901800D01*
X169128072Y-77890000D01*
X169115812Y-77765518D01*
X169079502Y-77645820D01*
X169020537Y-77535506D01*
X168941185Y-77438815D01*
X168844494Y-77359463D01*
X168734180Y-77300498D01*
X168614482Y-77264188D01*
X168490000Y-77251928D01*
X167337322Y-77251928D01*
X164668200Y-74582807D01*
X164668200Y-72746890D01*
X166198524Y-72746890D01*
X166243175Y-72894099D01*
X166368359Y-73156920D01*
X166542412Y-73390269D01*
X166758645Y-73585178D01*
X167008748Y-73734157D01*
X167283109Y-73831481D01*
X167513000Y-73710814D01*
X167513000Y-72517000D01*
X167767000Y-72517000D01*
X167767000Y-73710814D01*
X167996891Y-73831481D01*
X168271252Y-73734157D01*
X168521355Y-73585178D01*
X168737588Y-73390269D01*
X168911641Y-73156920D01*
X169036825Y-72894099D01*
X169081476Y-72746890D01*
X168960155Y-72517000D01*
X167767000Y-72517000D01*
X167513000Y-72517000D01*
X166319845Y-72517000D01*
X166198524Y-72746890D01*
X164668200Y-72746890D01*
X164668200Y-71467193D01*
X165447194Y-70688200D01*
X166414073Y-70688200D01*
X166486525Y-70796632D01*
X166693368Y-71003475D01*
X166875534Y-71125195D01*
X166758645Y-71194822D01*
X166542412Y-71389731D01*
X166368359Y-71623080D01*
X166243175Y-71885901D01*
X166198524Y-72033110D01*
X166319845Y-72263000D01*
X167513000Y-72263000D01*
X167513000Y-72243000D01*
X167767000Y-72243000D01*
X167767000Y-72263000D01*
X168960155Y-72263000D01*
X169081476Y-72033110D01*
X169036825Y-71885901D01*
X168911641Y-71623080D01*
X168737588Y-71389731D01*
X168521355Y-71194822D01*
X168404466Y-71125195D01*
X168586632Y-71003475D01*
X168793475Y-70796632D01*
X168955990Y-70553411D01*
X169067932Y-70283158D01*
X169125000Y-69996260D01*
X169125000Y-69703740D01*
X169067932Y-69416842D01*
X168955990Y-69146589D01*
X168793475Y-68903368D01*
X168661620Y-68771513D01*
X168734180Y-68749502D01*
X168844494Y-68690537D01*
X168941185Y-68611185D01*
X169020537Y-68514494D01*
X169079502Y-68404180D01*
X169115812Y-68284482D01*
X169128072Y-68160000D01*
X169128072Y-66460000D01*
X169115812Y-66335518D01*
X169079502Y-66215820D01*
X169020537Y-66105506D01*
X168941185Y-66008815D01*
X168844494Y-65929463D01*
X168734180Y-65870498D01*
X168614482Y-65834188D01*
X168490000Y-65821928D01*
X166790000Y-65821928D01*
X166665518Y-65834188D01*
X166545820Y-65870498D01*
X166435506Y-65929463D01*
X166338815Y-66008815D01*
X166259463Y-66105506D01*
X166200498Y-66215820D01*
X166164188Y-66335518D01*
X166151928Y-66460000D01*
X166151928Y-66471800D01*
X148671164Y-66471800D01*
X148630001Y-66467746D01*
X148588838Y-66471800D01*
X148588831Y-66471800D01*
X148465685Y-66483929D01*
X148307684Y-66531858D01*
X148162069Y-66609691D01*
X148034437Y-66714436D01*
X148008195Y-66746412D01*
X145237680Y-69516928D01*
X143911256Y-69516928D01*
X144201926Y-69459110D01*
X144608670Y-69290631D01*
X144974730Y-69046038D01*
X145286039Y-68734729D01*
X145530632Y-68368669D01*
X145699111Y-67961925D01*
X145785001Y-67530128D01*
X145785001Y-67089872D01*
X145699111Y-66658075D01*
X145530632Y-66251331D01*
X145286039Y-65885271D01*
X144974730Y-65573962D01*
X144608670Y-65329369D01*
X144201926Y-65160890D01*
X143770129Y-65075000D01*
X143329873Y-65075000D01*
X142898076Y-65160890D01*
X142491332Y-65329369D01*
X142125272Y-65573962D01*
X141813963Y-65885271D01*
X141569370Y-66251331D01*
X141400891Y-66658075D01*
X141315001Y-67089872D01*
X141315001Y-67530128D01*
X141400891Y-67961925D01*
X141569370Y-68368669D01*
X141813963Y-68734729D01*
X142125272Y-69046038D01*
X142491332Y-69290631D01*
X142898076Y-69459110D01*
X143329873Y-69545000D01*
X143678394Y-69545000D01*
X143610821Y-69565498D01*
X143500507Y-69624463D01*
X143403816Y-69703815D01*
X143324464Y-69800506D01*
X143265499Y-69910820D01*
X143229189Y-70030518D01*
X143216929Y-70155000D01*
X143216929Y-72085000D01*
X143229189Y-72209482D01*
X143265499Y-72329180D01*
X143324464Y-72439494D01*
X143403816Y-72536185D01*
X143500507Y-72615537D01*
X143569090Y-72652196D01*
X143402099Y-72902116D01*
X143281488Y-73193297D01*
X143220001Y-73502414D01*
X143220001Y-73817586D01*
X143281488Y-74126703D01*
X143402099Y-74417884D01*
X143577200Y-74679941D01*
X143800060Y-74902801D01*
X143840766Y-74930000D01*
X143800060Y-74957199D01*
X143577200Y-75180059D01*
X143402099Y-75442116D01*
X143281488Y-75733297D01*
X143220001Y-76042414D01*
X143220001Y-76357586D01*
X143281488Y-76666703D01*
X143402099Y-76957884D01*
X143577200Y-77219941D01*
X143800060Y-77442801D01*
X143840766Y-77470000D01*
X143800060Y-77497199D01*
X143577200Y-77720059D01*
X143402099Y-77982116D01*
X143281488Y-78273297D01*
X143220001Y-78582414D01*
X143220001Y-78897586D01*
X143281488Y-79206703D01*
X143402099Y-79497884D01*
X143577200Y-79759941D01*
X143800060Y-79982801D01*
X143840766Y-80010000D01*
X143800060Y-80037199D01*
X143577200Y-80260059D01*
X143402099Y-80522116D01*
X143281488Y-80813297D01*
X143220001Y-81122414D01*
X143220001Y-81437586D01*
X143281488Y-81746703D01*
X143402099Y-82037884D01*
X143577200Y-82299941D01*
X143800060Y-82522801D01*
X143840766Y-82550000D01*
X143800060Y-82577199D01*
X143577200Y-82800059D01*
X143402099Y-83062116D01*
X143281488Y-83353297D01*
X143220001Y-83662414D01*
X143220001Y-83977586D01*
X143281488Y-84286703D01*
X143402099Y-84577884D01*
X143577200Y-84839941D01*
X143800060Y-85062801D01*
X143840766Y-85090000D01*
X143800060Y-85117199D01*
X143577200Y-85340059D01*
X143402099Y-85602116D01*
X143281488Y-85893297D01*
X143220001Y-86202414D01*
X143220001Y-86517586D01*
X143281488Y-86826703D01*
X143402099Y-87117884D01*
X143577200Y-87379941D01*
X143800060Y-87602801D01*
X143840766Y-87630000D01*
X143800060Y-87657199D01*
X143577200Y-87880059D01*
X143402099Y-88142116D01*
X143281488Y-88433297D01*
X143220001Y-88742414D01*
X143220001Y-89057586D01*
X143281488Y-89366703D01*
X143402099Y-89657884D01*
X143577200Y-89919941D01*
X143800060Y-90142801D01*
X143840766Y-90170000D01*
X143800060Y-90197199D01*
X143577200Y-90420059D01*
X143402099Y-90682116D01*
X143281488Y-90973297D01*
X143220001Y-91282414D01*
X143220001Y-91597586D01*
X143281488Y-91906703D01*
X143402099Y-92197884D01*
X143577200Y-92459941D01*
X143800060Y-92682801D01*
X143840766Y-92710000D01*
X143800060Y-92737199D01*
X143577200Y-92960059D01*
X143402099Y-93222116D01*
X143281488Y-93513297D01*
X143220001Y-93822414D01*
X143220001Y-94137586D01*
X143281488Y-94446703D01*
X143402099Y-94737884D01*
X143577200Y-94999941D01*
X143800060Y-95222801D01*
X143840766Y-95250000D01*
X143800060Y-95277199D01*
X143577200Y-95500059D01*
X143402099Y-95762116D01*
X143281488Y-96053297D01*
X143220001Y-96362414D01*
X143220001Y-96677586D01*
X143281488Y-96986703D01*
X143402099Y-97277884D01*
X143577200Y-97539941D01*
X143800060Y-97762801D01*
X143840766Y-97790000D01*
X143800060Y-97817199D01*
X143577200Y-98040059D01*
X143402099Y-98302116D01*
X143281488Y-98593297D01*
X143220001Y-98902414D01*
X143220001Y-99217586D01*
X143281488Y-99526703D01*
X143402099Y-99817884D01*
X143577200Y-100079941D01*
X143800060Y-100302801D01*
X143840766Y-100330000D01*
X143800060Y-100357199D01*
X143577200Y-100580059D01*
X143402099Y-100842116D01*
X143281488Y-101133297D01*
X143220001Y-101442414D01*
X143220001Y-101757586D01*
X143281488Y-102066703D01*
X143402099Y-102357884D01*
X143577200Y-102619941D01*
X143800060Y-102842801D01*
X143925320Y-102926497D01*
X143889154Y-103029548D01*
X144820001Y-103960395D01*
X145750848Y-103029548D01*
X145714682Y-102926497D01*
X145839942Y-102842801D01*
X146062802Y-102619941D01*
X146237903Y-102357884D01*
X146358514Y-102066703D01*
X146420001Y-101757586D01*
X146420001Y-101442414D01*
X146358514Y-101133297D01*
X146237903Y-100842116D01*
X146062802Y-100580059D01*
X145839942Y-100357199D01*
X145799236Y-100330000D01*
X145839942Y-100302801D01*
X146062802Y-100079941D01*
X146237903Y-99817884D01*
X146358514Y-99526703D01*
X146420001Y-99217586D01*
X146420001Y-98902414D01*
X146358514Y-98593297D01*
X146237903Y-98302116D01*
X146062802Y-98040059D01*
X145839942Y-97817199D01*
X145799236Y-97790000D01*
X145839942Y-97762801D01*
X146062802Y-97539941D01*
X146237903Y-97277884D01*
X146358514Y-96986703D01*
X146420001Y-96677586D01*
X146420001Y-96362414D01*
X146358514Y-96053297D01*
X146237903Y-95762116D01*
X146062802Y-95500059D01*
X145839942Y-95277199D01*
X145799236Y-95250000D01*
X145839942Y-95222801D01*
X146062802Y-94999941D01*
X146237903Y-94737884D01*
X146358514Y-94446703D01*
X146420001Y-94137586D01*
X146420001Y-93822414D01*
X146358514Y-93513297D01*
X146237903Y-93222116D01*
X146062802Y-92960059D01*
X145839942Y-92737199D01*
X145799236Y-92710000D01*
X145839942Y-92682801D01*
X146062802Y-92459941D01*
X146237903Y-92197884D01*
X146358514Y-91906703D01*
X146420001Y-91597586D01*
X146420001Y-91282414D01*
X146358514Y-90973297D01*
X146237903Y-90682116D01*
X146062802Y-90420059D01*
X145839942Y-90197199D01*
X145799236Y-90170000D01*
X145839942Y-90142801D01*
X146062802Y-89919941D01*
X146237903Y-89657884D01*
X146358514Y-89366703D01*
X146420001Y-89057586D01*
X146420001Y-88742414D01*
X146358514Y-88433297D01*
X146237903Y-88142116D01*
X146062802Y-87880059D01*
X145839942Y-87657199D01*
X145799236Y-87630000D01*
X145839942Y-87602801D01*
X146062802Y-87379941D01*
X146237903Y-87117884D01*
X146358514Y-86826703D01*
X146420001Y-86517586D01*
X146420001Y-86202414D01*
X146358514Y-85893297D01*
X146237903Y-85602116D01*
X146062802Y-85340059D01*
X145839942Y-85117199D01*
X145799236Y-85090000D01*
X145839942Y-85062801D01*
X146062802Y-84839941D01*
X146237903Y-84577884D01*
X146358514Y-84286703D01*
X146420001Y-83977586D01*
X146420001Y-83662414D01*
X146358514Y-83353297D01*
X146237903Y-83062116D01*
X146062802Y-82800059D01*
X145839942Y-82577199D01*
X145799236Y-82550000D01*
X145839942Y-82522801D01*
X146062802Y-82299941D01*
X146237903Y-82037884D01*
X146358514Y-81746703D01*
X146405433Y-81510825D01*
X149581800Y-84687192D01*
X149581801Y-87915277D01*
X149418768Y-88078310D01*
X149277703Y-88289430D01*
X149180535Y-88524013D01*
X149131000Y-88773045D01*
X149131000Y-89026955D01*
X149180535Y-89275987D01*
X149277703Y-89510570D01*
X149418768Y-89721690D01*
X149598310Y-89901232D01*
X149809430Y-90042297D01*
X150044013Y-90139465D01*
X150293045Y-90189000D01*
X150546955Y-90189000D01*
X150795987Y-90139465D01*
X151030570Y-90042297D01*
X151241690Y-89901232D01*
X151354535Y-89788387D01*
X156211218Y-89788387D01*
X156265093Y-90017468D01*
X156495684Y-90123763D01*
X156742581Y-90183028D01*
X156996296Y-90192988D01*
X157247079Y-90153259D01*
X157485293Y-90065368D01*
X157574907Y-90017468D01*
X157628782Y-89788387D01*
X156920000Y-89079605D01*
X156211218Y-89788387D01*
X151354535Y-89788387D01*
X151421232Y-89721690D01*
X151562297Y-89510570D01*
X151659465Y-89275987D01*
X151709000Y-89026955D01*
X151709000Y-88976296D01*
X155627012Y-88976296D01*
X155666741Y-89227079D01*
X155754632Y-89465293D01*
X155802532Y-89554907D01*
X156031613Y-89608782D01*
X156740395Y-88900000D01*
X157099605Y-88900000D01*
X157808387Y-89608782D01*
X158037468Y-89554907D01*
X158143763Y-89324316D01*
X158203028Y-89077419D01*
X158212988Y-88823704D01*
X158173259Y-88572921D01*
X158085368Y-88334707D01*
X158037468Y-88245093D01*
X157808387Y-88191218D01*
X157099605Y-88900000D01*
X156740395Y-88900000D01*
X156031613Y-88191218D01*
X155802532Y-88245093D01*
X155696237Y-88475684D01*
X155636972Y-88722581D01*
X155627012Y-88976296D01*
X151709000Y-88976296D01*
X151709000Y-88773045D01*
X151659465Y-88524013D01*
X151562297Y-88289430D01*
X151421232Y-88078310D01*
X151354535Y-88011613D01*
X156211218Y-88011613D01*
X156920000Y-88720395D01*
X157628782Y-88011613D01*
X157574907Y-87782532D01*
X157344316Y-87676237D01*
X157097419Y-87616972D01*
X156843704Y-87607012D01*
X156592921Y-87646741D01*
X156354707Y-87734632D01*
X156265093Y-87782532D01*
X156211218Y-88011613D01*
X151354535Y-88011613D01*
X151258200Y-87915278D01*
X151258200Y-86716890D01*
X166198524Y-86716890D01*
X166243175Y-86864099D01*
X166368359Y-87126920D01*
X166542412Y-87360269D01*
X166758645Y-87555178D01*
X167008748Y-87704157D01*
X167283109Y-87801481D01*
X167513000Y-87680814D01*
X167513000Y-86487000D01*
X167767000Y-86487000D01*
X167767000Y-87680814D01*
X167996891Y-87801481D01*
X168271252Y-87704157D01*
X168521355Y-87555178D01*
X168737588Y-87360269D01*
X168911641Y-87126920D01*
X169036825Y-86864099D01*
X169081476Y-86716890D01*
X168960155Y-86487000D01*
X167767000Y-86487000D01*
X167513000Y-86487000D01*
X166319845Y-86487000D01*
X166198524Y-86716890D01*
X151258200Y-86716890D01*
X151258200Y-84381169D01*
X151262255Y-84339999D01*
X151246071Y-84175683D01*
X151198142Y-84017682D01*
X151120309Y-83872067D01*
X151077578Y-83819999D01*
X151015564Y-83744435D01*
X150983583Y-83718189D01*
X146377359Y-79111965D01*
X146420001Y-78897586D01*
X146420001Y-78582414D01*
X146358514Y-78273297D01*
X146237903Y-77982116D01*
X146062802Y-77720059D01*
X145839942Y-77497199D01*
X145799236Y-77470000D01*
X145839942Y-77442801D01*
X146062802Y-77219941D01*
X146184238Y-77038200D01*
X159672807Y-77038200D01*
X166180442Y-83545836D01*
X166155000Y-83673740D01*
X166155000Y-83966260D01*
X166212068Y-84253158D01*
X166324010Y-84523411D01*
X166486525Y-84766632D01*
X166693368Y-84973475D01*
X166875534Y-85095195D01*
X166758645Y-85164822D01*
X166542412Y-85359731D01*
X166368359Y-85593080D01*
X166243175Y-85855901D01*
X166198524Y-86003110D01*
X166319845Y-86233000D01*
X167513000Y-86233000D01*
X167513000Y-86213000D01*
X167767000Y-86213000D01*
X167767000Y-86233000D01*
X168960155Y-86233000D01*
X169081476Y-86003110D01*
X169036825Y-85855901D01*
X168911641Y-85593080D01*
X168737588Y-85359731D01*
X168521355Y-85164822D01*
X168404466Y-85095195D01*
X168586632Y-84973475D01*
X168793475Y-84766632D01*
X168955990Y-84523411D01*
X169067932Y-84253158D01*
X169125000Y-83966260D01*
X169125000Y-83673740D01*
X169067932Y-83386842D01*
X168955990Y-83116589D01*
X168793475Y-82873368D01*
X168586632Y-82666525D01*
X168412240Y-82550000D01*
X168586632Y-82433475D01*
X168793475Y-82226632D01*
X168955990Y-81983411D01*
X169067932Y-81713158D01*
X169125000Y-81426260D01*
X169125000Y-81133740D01*
X169067932Y-80846842D01*
X168955990Y-80576589D01*
X168793475Y-80333368D01*
X168661620Y-80201513D01*
X168734180Y-80179502D01*
X168844494Y-80120537D01*
X168941185Y-80041185D01*
X169020537Y-79944494D01*
X169079502Y-79834180D01*
X169115812Y-79714482D01*
X169128072Y-79590000D01*
X169128072Y-79578200D01*
X169832807Y-79578200D01*
X170611801Y-80357195D01*
X170611800Y-97070378D01*
X170502317Y-97011858D01*
X170344316Y-96963929D01*
X170221170Y-96951800D01*
X170221163Y-96951800D01*
X170180000Y-96947746D01*
X170138837Y-96951800D01*
X169128072Y-96951800D01*
X169128072Y-96940000D01*
X169115812Y-96815518D01*
X169079502Y-96695820D01*
X169020537Y-96585506D01*
X168941185Y-96488815D01*
X168844494Y-96409463D01*
X168734180Y-96350498D01*
X168661620Y-96328487D01*
X168793475Y-96196632D01*
X168955990Y-95953411D01*
X169067932Y-95683158D01*
X169125000Y-95396260D01*
X169125000Y-95103740D01*
X169067932Y-94816842D01*
X168955990Y-94546589D01*
X168793475Y-94303368D01*
X168586632Y-94096525D01*
X168343411Y-93934010D01*
X168073158Y-93822068D01*
X167786260Y-93765000D01*
X167493740Y-93765000D01*
X167206842Y-93822068D01*
X166936589Y-93934010D01*
X166693368Y-94096525D01*
X166486525Y-94303368D01*
X166414073Y-94411800D01*
X166411162Y-94411800D01*
X166369999Y-94407746D01*
X166328836Y-94411800D01*
X166328830Y-94411800D01*
X166205684Y-94423929D01*
X166047683Y-94471858D01*
X165902068Y-94549691D01*
X165774436Y-94654436D01*
X165748194Y-94686412D01*
X160294165Y-100140442D01*
X160166260Y-100115000D01*
X159873740Y-100115000D01*
X159586842Y-100172068D01*
X159316589Y-100284010D01*
X159073368Y-100446525D01*
X158866525Y-100653368D01*
X158704010Y-100896589D01*
X158592068Y-101166842D01*
X158535000Y-101453740D01*
X158535000Y-101746260D01*
X158592068Y-102033158D01*
X158704010Y-102303411D01*
X158866525Y-102546632D01*
X158998380Y-102678487D01*
X158925820Y-102700498D01*
X158815506Y-102759463D01*
X158718815Y-102838815D01*
X158639463Y-102935506D01*
X158580498Y-103045820D01*
X158544188Y-103165518D01*
X158531928Y-103290000D01*
X158531928Y-104990000D01*
X158544188Y-105114482D01*
X158580498Y-105234180D01*
X158639463Y-105344494D01*
X158718815Y-105441185D01*
X158815506Y-105520537D01*
X158925820Y-105579502D01*
X159045518Y-105615812D01*
X159170000Y-105628072D01*
X160322679Y-105628072D01*
X163208192Y-108513586D01*
X163234436Y-108545564D01*
X163362068Y-108650309D01*
X163507683Y-108728142D01*
X163665684Y-108776071D01*
X163788830Y-108788200D01*
X163788837Y-108788200D01*
X163830000Y-108792254D01*
X163871163Y-108788200D01*
X166151928Y-108788200D01*
X166151928Y-108800000D01*
X166164188Y-108924482D01*
X166200498Y-109044180D01*
X166259463Y-109154494D01*
X166338815Y-109251185D01*
X166435506Y-109330537D01*
X166545820Y-109389502D01*
X166626466Y-109413966D01*
X166542412Y-109489731D01*
X166368359Y-109723080D01*
X166243175Y-109985901D01*
X166198524Y-110133110D01*
X166319845Y-110363000D01*
X167513000Y-110363000D01*
X167513000Y-110343000D01*
X167767000Y-110343000D01*
X167767000Y-110363000D01*
X168960155Y-110363000D01*
X169081476Y-110133110D01*
X169036825Y-109985901D01*
X168911641Y-109723080D01*
X168737588Y-109489731D01*
X168653534Y-109413966D01*
X168734180Y-109389502D01*
X168844494Y-109330537D01*
X168941185Y-109251185D01*
X169020537Y-109154494D01*
X169079502Y-109044180D01*
X169115812Y-108924482D01*
X169128072Y-108800000D01*
X169128072Y-107100000D01*
X169115812Y-106975518D01*
X169079502Y-106855820D01*
X169020537Y-106745506D01*
X168941185Y-106648815D01*
X168844494Y-106569463D01*
X168734180Y-106510498D01*
X168614482Y-106474188D01*
X168490000Y-106461928D01*
X166790000Y-106461928D01*
X166665518Y-106474188D01*
X166545820Y-106510498D01*
X166435506Y-106569463D01*
X166338815Y-106648815D01*
X166259463Y-106745506D01*
X166200498Y-106855820D01*
X166164188Y-106975518D01*
X166151928Y-107100000D01*
X166151928Y-107111800D01*
X164177194Y-107111800D01*
X161508072Y-104442679D01*
X161508072Y-103290000D01*
X161495812Y-103165518D01*
X161459502Y-103045820D01*
X161400537Y-102935506D01*
X161321185Y-102838815D01*
X161224494Y-102759463D01*
X161114180Y-102700498D01*
X161041620Y-102678487D01*
X161173475Y-102546632D01*
X161335990Y-102303411D01*
X161447932Y-102033158D01*
X161505000Y-101746260D01*
X161505000Y-101453740D01*
X161479558Y-101325835D01*
X166547643Y-96257750D01*
X166618380Y-96328487D01*
X166545820Y-96350498D01*
X166435506Y-96409463D01*
X166338815Y-96488815D01*
X166259463Y-96585506D01*
X166200498Y-96695820D01*
X166164188Y-96815518D01*
X166151928Y-96940000D01*
X166151928Y-98640000D01*
X166164188Y-98764482D01*
X166200498Y-98884180D01*
X166259463Y-98994494D01*
X166338815Y-99091185D01*
X166435506Y-99170537D01*
X166545820Y-99229502D01*
X166665518Y-99265812D01*
X166790000Y-99278072D01*
X168490000Y-99278072D01*
X168614482Y-99265812D01*
X168734180Y-99229502D01*
X168844494Y-99170537D01*
X168941185Y-99091185D01*
X169020537Y-98994494D01*
X169079502Y-98884180D01*
X169115812Y-98764482D01*
X169128072Y-98640000D01*
X169128072Y-98628200D01*
X169832807Y-98628200D01*
X170611801Y-99407195D01*
X170611800Y-112682806D01*
X169832807Y-113461800D01*
X150433781Y-113461800D01*
X150615394Y-113340450D01*
X150780450Y-113175394D01*
X150910134Y-112981308D01*
X150999461Y-112765652D01*
X151045000Y-112536712D01*
X151045000Y-112420393D01*
X152618503Y-110846890D01*
X166198524Y-110846890D01*
X166243175Y-110994099D01*
X166368359Y-111256920D01*
X166542412Y-111490269D01*
X166758645Y-111685178D01*
X167008748Y-111834157D01*
X167283109Y-111931481D01*
X167513000Y-111810814D01*
X167513000Y-110617000D01*
X167767000Y-110617000D01*
X167767000Y-111810814D01*
X167996891Y-111931481D01*
X168271252Y-111834157D01*
X168521355Y-111685178D01*
X168737588Y-111490269D01*
X168911641Y-111256920D01*
X169036825Y-110994099D01*
X169081476Y-110846890D01*
X168960155Y-110617000D01*
X167767000Y-110617000D01*
X167513000Y-110617000D01*
X166319845Y-110617000D01*
X166198524Y-110846890D01*
X152618503Y-110846890D01*
X154214298Y-109251096D01*
X154236589Y-109265990D01*
X154506842Y-109377932D01*
X154793740Y-109435000D01*
X155086260Y-109435000D01*
X155373158Y-109377932D01*
X155643411Y-109265990D01*
X155886632Y-109103475D01*
X156093475Y-108896632D01*
X156255990Y-108653411D01*
X156367932Y-108383158D01*
X156425000Y-108096260D01*
X156425000Y-107803740D01*
X156367932Y-107516842D01*
X156255990Y-107246589D01*
X156093475Y-107003368D01*
X155961620Y-106871513D01*
X156034180Y-106849502D01*
X156144494Y-106790537D01*
X156241185Y-106711185D01*
X156320537Y-106614494D01*
X156379502Y-106504180D01*
X156415812Y-106384482D01*
X156428072Y-106260000D01*
X156425000Y-105695750D01*
X156266250Y-105537000D01*
X155067000Y-105537000D01*
X155067000Y-105557000D01*
X154813000Y-105557000D01*
X154813000Y-105537000D01*
X153613750Y-105537000D01*
X153455000Y-105695750D01*
X153451928Y-106260000D01*
X153464188Y-106384482D01*
X153500498Y-106504180D01*
X153559463Y-106614494D01*
X153638815Y-106711185D01*
X153735506Y-106790537D01*
X153845820Y-106849502D01*
X153918380Y-106871513D01*
X153786525Y-107003368D01*
X153624010Y-107246589D01*
X153512068Y-107516842D01*
X153495755Y-107598851D01*
X149859607Y-111235000D01*
X149743288Y-111235000D01*
X149514348Y-111280539D01*
X149298692Y-111369866D01*
X149104606Y-111499550D01*
X148939550Y-111664606D01*
X148809866Y-111858692D01*
X148720539Y-112074348D01*
X148675000Y-112303288D01*
X148675000Y-112536712D01*
X148720539Y-112765652D01*
X148809866Y-112981308D01*
X148939550Y-113175394D01*
X149104606Y-113340450D01*
X149286219Y-113461800D01*
X118948200Y-113461800D01*
X118948200Y-110269872D01*
X120995001Y-110269872D01*
X120995001Y-110710128D01*
X121080891Y-111141925D01*
X121249370Y-111548669D01*
X121493963Y-111914729D01*
X121805272Y-112226038D01*
X122171332Y-112470631D01*
X122578076Y-112639110D01*
X123009873Y-112725000D01*
X123450129Y-112725000D01*
X123881926Y-112639110D01*
X124288670Y-112470631D01*
X124654730Y-112226038D01*
X124966039Y-111914729D01*
X125210632Y-111548669D01*
X125379111Y-111141925D01*
X125465001Y-110710128D01*
X125465001Y-110269872D01*
X141315001Y-110269872D01*
X141315001Y-110710128D01*
X141400891Y-111141925D01*
X141569370Y-111548669D01*
X141813963Y-111914729D01*
X142125272Y-112226038D01*
X142491332Y-112470631D01*
X142898076Y-112639110D01*
X143329873Y-112725000D01*
X143770129Y-112725000D01*
X144201926Y-112639110D01*
X144608670Y-112470631D01*
X144974730Y-112226038D01*
X145286039Y-111914729D01*
X145530632Y-111548669D01*
X145699111Y-111141925D01*
X145785001Y-110710128D01*
X145785001Y-110269872D01*
X145699111Y-109838075D01*
X145530632Y-109431331D01*
X145286039Y-109065271D01*
X144974730Y-108753962D01*
X144608670Y-108509369D01*
X144201926Y-108340890D01*
X143770129Y-108255000D01*
X143329873Y-108255000D01*
X142898076Y-108340890D01*
X142491332Y-108509369D01*
X142125272Y-108753962D01*
X141813963Y-109065271D01*
X141569370Y-109431331D01*
X141400891Y-109838075D01*
X141315001Y-110269872D01*
X125465001Y-110269872D01*
X125379111Y-109838075D01*
X125210632Y-109431331D01*
X124966039Y-109065271D01*
X124654730Y-108753962D01*
X124288670Y-108509369D01*
X123881926Y-108340890D01*
X123450129Y-108255000D01*
X123009873Y-108255000D01*
X122578076Y-108340890D01*
X122171332Y-108509369D01*
X121805272Y-108753962D01*
X121493963Y-109065271D01*
X121249370Y-109431331D01*
X121080891Y-109838075D01*
X120995001Y-110269872D01*
X118948200Y-110269872D01*
X118948200Y-108297193D01*
X119727194Y-107518200D01*
X120595764Y-107518200D01*
X120717200Y-107699941D01*
X120940060Y-107922801D01*
X121202117Y-108097902D01*
X121493298Y-108218513D01*
X121802415Y-108280000D01*
X122117587Y-108280000D01*
X122426704Y-108218513D01*
X122717885Y-108097902D01*
X122979942Y-107922801D01*
X123202802Y-107699941D01*
X123377903Y-107437884D01*
X123498514Y-107146703D01*
X123560001Y-106837586D01*
X123560001Y-106522414D01*
X143220001Y-106522414D01*
X143220001Y-106837586D01*
X143281488Y-107146703D01*
X143402099Y-107437884D01*
X143577200Y-107699941D01*
X143800060Y-107922801D01*
X144062117Y-108097902D01*
X144353298Y-108218513D01*
X144662415Y-108280000D01*
X144977587Y-108280000D01*
X145286704Y-108218513D01*
X145577885Y-108097902D01*
X145839942Y-107922801D01*
X146062802Y-107699941D01*
X146184238Y-107518200D01*
X149158837Y-107518200D01*
X149200000Y-107522254D01*
X149241163Y-107518200D01*
X149241170Y-107518200D01*
X149364316Y-107506071D01*
X149522317Y-107458142D01*
X149667932Y-107380309D01*
X149795564Y-107275564D01*
X149821811Y-107243583D01*
X149860393Y-107205000D01*
X149976712Y-107205000D01*
X150205652Y-107159461D01*
X150421308Y-107070134D01*
X150615394Y-106940450D01*
X150780450Y-106775394D01*
X150910134Y-106581308D01*
X150999461Y-106365652D01*
X151045000Y-106136712D01*
X151045000Y-105903288D01*
X150999461Y-105674348D01*
X150910134Y-105458692D01*
X150780450Y-105264606D01*
X150615394Y-105099550D01*
X150421308Y-104969866D01*
X150205652Y-104880539D01*
X149976712Y-104835000D01*
X149743288Y-104835000D01*
X149514348Y-104880539D01*
X149298692Y-104969866D01*
X149104606Y-105099550D01*
X148939550Y-105264606D01*
X148809866Y-105458692D01*
X148720539Y-105674348D01*
X148687231Y-105841800D01*
X146184238Y-105841800D01*
X146062802Y-105660059D01*
X145839942Y-105437199D01*
X145714682Y-105353503D01*
X145750848Y-105250452D01*
X144820001Y-104319605D01*
X143889154Y-105250452D01*
X143925320Y-105353503D01*
X143800060Y-105437199D01*
X143577200Y-105660059D01*
X143402099Y-105922116D01*
X143281488Y-106213297D01*
X143220001Y-106522414D01*
X123560001Y-106522414D01*
X123498514Y-106213297D01*
X123377903Y-105922116D01*
X123202802Y-105660059D01*
X122979942Y-105437199D01*
X122939236Y-105410000D01*
X122979942Y-105382801D01*
X123202802Y-105159941D01*
X123377903Y-104897884D01*
X123498514Y-104606703D01*
X123560001Y-104297586D01*
X123560001Y-104203980D01*
X143213531Y-104203980D01*
X143256881Y-104516157D01*
X143360301Y-104813879D01*
X143448726Y-104979309D01*
X143709549Y-105070847D01*
X144640396Y-104140000D01*
X144999606Y-104140000D01*
X145930453Y-105070847D01*
X146191276Y-104979309D01*
X146328669Y-104695659D01*
X146363991Y-104560000D01*
X153451928Y-104560000D01*
X153455000Y-105124250D01*
X153613750Y-105283000D01*
X154813000Y-105283000D01*
X154813000Y-104083750D01*
X155067000Y-104083750D01*
X155067000Y-105283000D01*
X156266250Y-105283000D01*
X156425000Y-105124250D01*
X156428072Y-104560000D01*
X156415812Y-104435518D01*
X156379502Y-104315820D01*
X156320537Y-104205506D01*
X156241185Y-104108815D01*
X156144494Y-104029463D01*
X156034180Y-103970498D01*
X155914482Y-103934188D01*
X155790000Y-103921928D01*
X155225750Y-103925000D01*
X155067000Y-104083750D01*
X154813000Y-104083750D01*
X154654250Y-103925000D01*
X154090000Y-103921928D01*
X153965518Y-103934188D01*
X153845820Y-103970498D01*
X153735506Y-104029463D01*
X153638815Y-104108815D01*
X153559463Y-104205506D01*
X153500498Y-104315820D01*
X153464188Y-104435518D01*
X153451928Y-104560000D01*
X146363991Y-104560000D01*
X146408084Y-104390656D01*
X146426471Y-104076020D01*
X146383121Y-103763843D01*
X146279701Y-103466121D01*
X146191276Y-103300691D01*
X145930453Y-103209153D01*
X144999606Y-104140000D01*
X144640396Y-104140000D01*
X143709549Y-103209153D01*
X143448726Y-103300691D01*
X143311333Y-103584341D01*
X143231918Y-103889344D01*
X143213531Y-104203980D01*
X123560001Y-104203980D01*
X123560001Y-103982414D01*
X123498514Y-103673297D01*
X123377903Y-103382116D01*
X123202802Y-103120059D01*
X122979942Y-102897199D01*
X122939236Y-102870000D01*
X122979942Y-102842801D01*
X123202802Y-102619941D01*
X123377903Y-102357884D01*
X123498514Y-102066703D01*
X123560001Y-101757586D01*
X123560001Y-101442414D01*
X123498514Y-101133297D01*
X123377903Y-100842116D01*
X123202802Y-100580059D01*
X122979942Y-100357199D01*
X122939236Y-100330000D01*
X122979942Y-100302801D01*
X123202802Y-100079941D01*
X123377903Y-99817884D01*
X123498514Y-99526703D01*
X123560001Y-99217586D01*
X123560001Y-98902414D01*
X123498514Y-98593297D01*
X123377903Y-98302116D01*
X123202802Y-98040059D01*
X122979942Y-97817199D01*
X122939236Y-97790000D01*
X122979942Y-97762801D01*
X123202802Y-97539941D01*
X123377903Y-97277884D01*
X123498514Y-96986703D01*
X123560001Y-96677586D01*
X123560001Y-96362414D01*
X123498514Y-96053297D01*
X123377903Y-95762116D01*
X123202802Y-95500059D01*
X122979942Y-95277199D01*
X122939236Y-95250000D01*
X122979942Y-95222801D01*
X123202802Y-94999941D01*
X123377903Y-94737884D01*
X123498514Y-94446703D01*
X123560001Y-94137586D01*
X123560001Y-93822414D01*
X123498514Y-93513297D01*
X123377903Y-93222116D01*
X123202802Y-92960059D01*
X122979942Y-92737199D01*
X122939236Y-92710000D01*
X122979942Y-92682801D01*
X123202802Y-92459941D01*
X123377903Y-92197884D01*
X123498514Y-91906703D01*
X123560001Y-91597586D01*
X123560001Y-91282414D01*
X123498514Y-90973297D01*
X123377903Y-90682116D01*
X123202802Y-90420059D01*
X122979942Y-90197199D01*
X122939236Y-90170000D01*
X122979942Y-90142801D01*
X123202802Y-89919941D01*
X123377903Y-89657884D01*
X123498514Y-89366703D01*
X123560001Y-89057586D01*
X123560001Y-88742414D01*
X123498514Y-88433297D01*
X123377903Y-88142116D01*
X123202802Y-87880059D01*
X122979942Y-87657199D01*
X122939236Y-87630000D01*
X122979942Y-87602801D01*
X123202802Y-87379941D01*
X123377903Y-87117884D01*
X123498514Y-86826703D01*
X123560001Y-86517586D01*
X123560001Y-86202414D01*
X123498514Y-85893297D01*
X123377903Y-85602116D01*
X123202802Y-85340059D01*
X122979942Y-85117199D01*
X122939236Y-85090000D01*
X122979942Y-85062801D01*
X123202802Y-84839941D01*
X123377903Y-84577884D01*
X123498514Y-84286703D01*
X123560001Y-83977586D01*
X123560001Y-83662414D01*
X123498514Y-83353297D01*
X123377903Y-83062116D01*
X123202802Y-82800059D01*
X122979942Y-82577199D01*
X122939236Y-82550000D01*
X122979942Y-82522801D01*
X123202802Y-82299941D01*
X123377903Y-82037884D01*
X123498514Y-81746703D01*
X123560001Y-81437586D01*
X123560001Y-81122414D01*
X123498514Y-80813297D01*
X123377903Y-80522116D01*
X123202802Y-80260059D01*
X122979942Y-80037199D01*
X122939236Y-80010000D01*
X122979942Y-79982801D01*
X123202802Y-79759941D01*
X123377903Y-79497884D01*
X123498514Y-79206703D01*
X123560001Y-78897586D01*
X123560001Y-78582414D01*
X123498514Y-78273297D01*
X123377903Y-77982116D01*
X123202802Y-77720059D01*
X122979942Y-77497199D01*
X122939236Y-77470000D01*
X122979942Y-77442801D01*
X123202802Y-77219941D01*
X123377903Y-76957884D01*
X123498514Y-76666703D01*
X123560001Y-76357586D01*
X123560001Y-76042414D01*
X123498514Y-75733297D01*
X123377903Y-75442116D01*
X123202802Y-75180059D01*
X122979942Y-74957199D01*
X122939236Y-74930000D01*
X122979942Y-74902801D01*
X123202802Y-74679941D01*
X123377903Y-74417884D01*
X123498514Y-74126703D01*
X123560001Y-73817586D01*
X123560001Y-73502414D01*
X123498514Y-73193297D01*
X123377903Y-72902116D01*
X123210912Y-72652196D01*
X123279495Y-72615537D01*
X123376186Y-72536185D01*
X123455538Y-72439494D01*
X123514503Y-72329180D01*
X123550813Y-72209482D01*
X123563073Y-72085000D01*
X123563073Y-70155000D01*
X123550813Y-70030518D01*
X123514503Y-69910820D01*
X123455538Y-69800506D01*
X123376186Y-69703815D01*
X123279495Y-69624463D01*
X123169181Y-69565498D01*
X123101608Y-69545000D01*
X123450129Y-69545000D01*
X123881926Y-69459110D01*
X124288670Y-69290631D01*
X124654730Y-69046038D01*
X124966039Y-68734729D01*
X125210632Y-68368669D01*
X125379111Y-67961925D01*
X125465001Y-67530128D01*
X125465001Y-67089872D01*
X125379111Y-66658075D01*
X125210632Y-66251331D01*
X124966039Y-65885271D01*
X124654730Y-65573962D01*
X124288670Y-65329369D01*
X123881926Y-65160890D01*
X123450129Y-65075000D01*
X123009873Y-65075000D01*
X122578076Y-65160890D01*
X122171332Y-65329369D01*
X121805272Y-65573962D01*
X121493963Y-65885271D01*
X121249370Y-66251331D01*
X121080891Y-66658075D01*
X120995001Y-67089872D01*
X120995001Y-67530128D01*
X121080891Y-67961925D01*
X121249370Y-68368669D01*
X121493963Y-68734729D01*
X121805272Y-69046038D01*
X122171332Y-69290631D01*
X122578076Y-69459110D01*
X122868746Y-69516928D01*
X120995001Y-69516928D01*
X120870519Y-69529188D01*
X120750821Y-69565498D01*
X120640507Y-69624463D01*
X120543816Y-69703815D01*
X120464464Y-69800506D01*
X120405499Y-69910820D01*
X120369189Y-70030518D01*
X120356929Y-70155000D01*
X120356929Y-72085000D01*
X120369189Y-72209482D01*
X120405499Y-72329180D01*
X120464464Y-72439494D01*
X120543816Y-72536185D01*
X120640507Y-72615537D01*
X120709090Y-72652196D01*
X120542099Y-72902116D01*
X120421488Y-73193297D01*
X120360001Y-73502414D01*
X120360001Y-73817586D01*
X120421488Y-74126703D01*
X120542099Y-74417884D01*
X120717200Y-74679941D01*
X120940060Y-74902801D01*
X120980766Y-74930000D01*
X120940060Y-74957199D01*
X120717200Y-75180059D01*
X120542099Y-75442116D01*
X120421488Y-75733297D01*
X120360001Y-76042414D01*
X120360001Y-76357586D01*
X120421488Y-76666703D01*
X120542099Y-76957884D01*
X120717200Y-77219941D01*
X120940060Y-77442801D01*
X120980766Y-77470000D01*
X120940060Y-77497199D01*
X120717200Y-77720059D01*
X120542099Y-77982116D01*
X120421488Y-78273297D01*
X120360001Y-78582414D01*
X120360001Y-78897586D01*
X120421488Y-79206703D01*
X120542099Y-79497884D01*
X120717200Y-79759941D01*
X120940060Y-79982801D01*
X120980766Y-80010000D01*
X120940060Y-80037199D01*
X120717200Y-80260059D01*
X120542099Y-80522116D01*
X120421488Y-80813297D01*
X120360001Y-81122414D01*
X120360001Y-81437586D01*
X120421488Y-81746703D01*
X120542099Y-82037884D01*
X120717200Y-82299941D01*
X120940060Y-82522801D01*
X120980766Y-82550000D01*
X120940060Y-82577199D01*
X120717200Y-82800059D01*
X120542099Y-83062116D01*
X120421488Y-83353297D01*
X120360001Y-83662414D01*
X120360001Y-83977586D01*
X120421488Y-84286703D01*
X120542099Y-84577884D01*
X120717200Y-84839941D01*
X120940060Y-85062801D01*
X120980766Y-85090000D01*
X120940060Y-85117199D01*
X120717200Y-85340059D01*
X120542099Y-85602116D01*
X120421488Y-85893297D01*
X120360001Y-86202414D01*
X120360001Y-86517586D01*
X120421488Y-86826703D01*
X120542099Y-87117884D01*
X120717200Y-87379941D01*
X120940060Y-87602801D01*
X120980766Y-87630000D01*
X120940060Y-87657199D01*
X120717200Y-87880059D01*
X120542099Y-88142116D01*
X120421488Y-88433297D01*
X120360001Y-88742414D01*
X120360001Y-89057586D01*
X120421488Y-89366703D01*
X120542099Y-89657884D01*
X120717200Y-89919941D01*
X120940060Y-90142801D01*
X120980766Y-90170000D01*
X120940060Y-90197199D01*
X120717200Y-90420059D01*
X120542099Y-90682116D01*
X120421488Y-90973297D01*
X120360001Y-91282414D01*
X120360001Y-91597586D01*
X120421488Y-91906703D01*
X120542099Y-92197884D01*
X120717200Y-92459941D01*
X120940060Y-92682801D01*
X120980766Y-92710000D01*
X120940060Y-92737199D01*
X120717200Y-92960059D01*
X120542099Y-93222116D01*
X120421488Y-93513297D01*
X120360001Y-93822414D01*
X120360001Y-94137586D01*
X120421488Y-94446703D01*
X120542099Y-94737884D01*
X120717200Y-94999941D01*
X120940060Y-95222801D01*
X120980766Y-95250000D01*
X120940060Y-95277199D01*
X120717200Y-95500059D01*
X120542099Y-95762116D01*
X120421488Y-96053297D01*
X120360001Y-96362414D01*
X120360001Y-96677586D01*
X120421488Y-96986703D01*
X120542099Y-97277884D01*
X120717200Y-97539941D01*
X120940060Y-97762801D01*
X120980766Y-97790000D01*
X120940060Y-97817199D01*
X120717200Y-98040059D01*
X120542099Y-98302116D01*
X120421488Y-98593297D01*
X120360001Y-98902414D01*
X120360001Y-99217586D01*
X120421488Y-99526703D01*
X120542099Y-99817884D01*
X120717200Y-100079941D01*
X120940060Y-100302801D01*
X120980766Y-100330000D01*
X120940060Y-100357199D01*
X120717200Y-100580059D01*
X120542099Y-100842116D01*
X120421488Y-101133297D01*
X120360001Y-101442414D01*
X120360001Y-101757586D01*
X120421488Y-102066703D01*
X120542099Y-102357884D01*
X120717200Y-102619941D01*
X120940060Y-102842801D01*
X120980766Y-102870000D01*
X120940060Y-102897199D01*
X120717200Y-103120059D01*
X120542099Y-103382116D01*
X120421488Y-103673297D01*
X120360001Y-103982414D01*
X120360001Y-104297586D01*
X120421488Y-104606703D01*
X120542099Y-104897884D01*
X120717200Y-105159941D01*
X120940060Y-105382801D01*
X120980766Y-105410000D01*
X120940060Y-105437199D01*
X120717200Y-105660059D01*
X120595764Y-105841800D01*
X119421159Y-105841800D01*
X119379999Y-105837746D01*
X119338839Y-105841800D01*
X119338830Y-105841800D01*
X119215684Y-105853929D01*
X119057683Y-105901858D01*
X118912068Y-105979691D01*
X118784436Y-106084436D01*
X118758193Y-106116413D01*
X117546418Y-107328189D01*
X117514436Y-107354436D01*
X117500000Y-107372026D01*
X117500000Y-59469872D01*
X119685000Y-59469872D01*
X119685000Y-59910128D01*
X119770890Y-60341925D01*
X119939369Y-60748669D01*
X120183962Y-61114729D01*
X120495271Y-61426038D01*
X120861331Y-61670631D01*
X121268075Y-61839110D01*
X121699872Y-61925000D01*
X122140128Y-61925000D01*
X122571925Y-61839110D01*
X122978669Y-61670631D01*
X123344729Y-61426038D01*
X123656038Y-61114729D01*
X123900631Y-60748669D01*
X124069110Y-60341925D01*
X124155000Y-59910128D01*
X124155000Y-59469872D01*
X124069110Y-59038075D01*
X123900631Y-58631331D01*
X123656038Y-58265271D01*
X123344729Y-57953962D01*
X123263970Y-57900000D01*
X135245000Y-57900000D01*
X135245000Y-61720000D01*
X154315000Y-61720000D01*
X154315000Y-59469872D01*
X165405000Y-59469872D01*
X165405000Y-59910128D01*
X165490890Y-60341925D01*
X165659369Y-60748669D01*
X165903962Y-61114729D01*
X166215271Y-61426038D01*
X166581331Y-61670631D01*
X166988075Y-61839110D01*
X167419872Y-61925000D01*
X167860128Y-61925000D01*
X168291925Y-61839110D01*
X168698669Y-61670631D01*
X169064729Y-61426038D01*
X169376038Y-61114729D01*
X169620631Y-60748669D01*
X169789110Y-60341925D01*
X169875000Y-59910128D01*
X169875000Y-59469872D01*
X169789110Y-59038075D01*
X169620631Y-58631331D01*
X169376038Y-58265271D01*
X169064729Y-57953962D01*
X168698669Y-57709369D01*
X168291925Y-57540890D01*
X167860128Y-57455000D01*
X167419872Y-57455000D01*
X166988075Y-57540890D01*
X166581331Y-57709369D01*
X166215271Y-57953962D01*
X165903962Y-58265271D01*
X165659369Y-58631331D01*
X165490890Y-59038075D01*
X165405000Y-59469872D01*
X154315000Y-59469872D01*
X154315000Y-57900000D01*
X135245000Y-57900000D01*
X123263970Y-57900000D01*
X122978669Y-57709369D01*
X122571925Y-57540890D01*
X122140128Y-57455000D01*
X121699872Y-57455000D01*
X121268075Y-57540890D01*
X120861331Y-57709369D01*
X120495271Y-57953962D01*
X120183962Y-58265271D01*
X119939369Y-58631331D01*
X119770890Y-59038075D01*
X119685000Y-59469872D01*
X117500000Y-59469872D01*
X117500000Y-55270000D01*
X172060000Y-55270000D01*
X172060000Y-79432027D01*
%TA.AperFunction,Conductor*%
D19*
G36*
X172060000Y-79432027D02*
G01*
X172045564Y-79414436D01*
X172013587Y-79388193D01*
X170801811Y-78176418D01*
X170775564Y-78144436D01*
X170647932Y-78039691D01*
X170502317Y-77961858D01*
X170344316Y-77913929D01*
X170221170Y-77901800D01*
X170221163Y-77901800D01*
X170180000Y-77897746D01*
X170138837Y-77901800D01*
X169128072Y-77901800D01*
X169128072Y-77890000D01*
X169115812Y-77765518D01*
X169079502Y-77645820D01*
X169020537Y-77535506D01*
X168941185Y-77438815D01*
X168844494Y-77359463D01*
X168734180Y-77300498D01*
X168614482Y-77264188D01*
X168490000Y-77251928D01*
X167337322Y-77251928D01*
X164668200Y-74582807D01*
X164668200Y-72746890D01*
X166198524Y-72746890D01*
X166243175Y-72894099D01*
X166368359Y-73156920D01*
X166542412Y-73390269D01*
X166758645Y-73585178D01*
X167008748Y-73734157D01*
X167283109Y-73831481D01*
X167513000Y-73710814D01*
X167513000Y-72517000D01*
X167767000Y-72517000D01*
X167767000Y-73710814D01*
X167996891Y-73831481D01*
X168271252Y-73734157D01*
X168521355Y-73585178D01*
X168737588Y-73390269D01*
X168911641Y-73156920D01*
X169036825Y-72894099D01*
X169081476Y-72746890D01*
X168960155Y-72517000D01*
X167767000Y-72517000D01*
X167513000Y-72517000D01*
X166319845Y-72517000D01*
X166198524Y-72746890D01*
X164668200Y-72746890D01*
X164668200Y-71467193D01*
X165447194Y-70688200D01*
X166414073Y-70688200D01*
X166486525Y-70796632D01*
X166693368Y-71003475D01*
X166875534Y-71125195D01*
X166758645Y-71194822D01*
X166542412Y-71389731D01*
X166368359Y-71623080D01*
X166243175Y-71885901D01*
X166198524Y-72033110D01*
X166319845Y-72263000D01*
X167513000Y-72263000D01*
X167513000Y-72243000D01*
X167767000Y-72243000D01*
X167767000Y-72263000D01*
X168960155Y-72263000D01*
X169081476Y-72033110D01*
X169036825Y-71885901D01*
X168911641Y-71623080D01*
X168737588Y-71389731D01*
X168521355Y-71194822D01*
X168404466Y-71125195D01*
X168586632Y-71003475D01*
X168793475Y-70796632D01*
X168955990Y-70553411D01*
X169067932Y-70283158D01*
X169125000Y-69996260D01*
X169125000Y-69703740D01*
X169067932Y-69416842D01*
X168955990Y-69146589D01*
X168793475Y-68903368D01*
X168661620Y-68771513D01*
X168734180Y-68749502D01*
X168844494Y-68690537D01*
X168941185Y-68611185D01*
X169020537Y-68514494D01*
X169079502Y-68404180D01*
X169115812Y-68284482D01*
X169128072Y-68160000D01*
X169128072Y-66460000D01*
X169115812Y-66335518D01*
X169079502Y-66215820D01*
X169020537Y-66105506D01*
X168941185Y-66008815D01*
X168844494Y-65929463D01*
X168734180Y-65870498D01*
X168614482Y-65834188D01*
X168490000Y-65821928D01*
X166790000Y-65821928D01*
X166665518Y-65834188D01*
X166545820Y-65870498D01*
X166435506Y-65929463D01*
X166338815Y-66008815D01*
X166259463Y-66105506D01*
X166200498Y-66215820D01*
X166164188Y-66335518D01*
X166151928Y-66460000D01*
X166151928Y-66471800D01*
X148671164Y-66471800D01*
X148630001Y-66467746D01*
X148588838Y-66471800D01*
X148588831Y-66471800D01*
X148465685Y-66483929D01*
X148307684Y-66531858D01*
X148162069Y-66609691D01*
X148034437Y-66714436D01*
X148008195Y-66746412D01*
X145237680Y-69516928D01*
X143911256Y-69516928D01*
X144201926Y-69459110D01*
X144608670Y-69290631D01*
X144974730Y-69046038D01*
X145286039Y-68734729D01*
X145530632Y-68368669D01*
X145699111Y-67961925D01*
X145785001Y-67530128D01*
X145785001Y-67089872D01*
X145699111Y-66658075D01*
X145530632Y-66251331D01*
X145286039Y-65885271D01*
X144974730Y-65573962D01*
X144608670Y-65329369D01*
X144201926Y-65160890D01*
X143770129Y-65075000D01*
X143329873Y-65075000D01*
X142898076Y-65160890D01*
X142491332Y-65329369D01*
X142125272Y-65573962D01*
X141813963Y-65885271D01*
X141569370Y-66251331D01*
X141400891Y-66658075D01*
X141315001Y-67089872D01*
X141315001Y-67530128D01*
X141400891Y-67961925D01*
X141569370Y-68368669D01*
X141813963Y-68734729D01*
X142125272Y-69046038D01*
X142491332Y-69290631D01*
X142898076Y-69459110D01*
X143329873Y-69545000D01*
X143678394Y-69545000D01*
X143610821Y-69565498D01*
X143500507Y-69624463D01*
X143403816Y-69703815D01*
X143324464Y-69800506D01*
X143265499Y-69910820D01*
X143229189Y-70030518D01*
X143216929Y-70155000D01*
X143216929Y-72085000D01*
X143229189Y-72209482D01*
X143265499Y-72329180D01*
X143324464Y-72439494D01*
X143403816Y-72536185D01*
X143500507Y-72615537D01*
X143569090Y-72652196D01*
X143402099Y-72902116D01*
X143281488Y-73193297D01*
X143220001Y-73502414D01*
X143220001Y-73817586D01*
X143281488Y-74126703D01*
X143402099Y-74417884D01*
X143577200Y-74679941D01*
X143800060Y-74902801D01*
X143840766Y-74930000D01*
X143800060Y-74957199D01*
X143577200Y-75180059D01*
X143402099Y-75442116D01*
X143281488Y-75733297D01*
X143220001Y-76042414D01*
X143220001Y-76357586D01*
X143281488Y-76666703D01*
X143402099Y-76957884D01*
X143577200Y-77219941D01*
X143800060Y-77442801D01*
X143840766Y-77470000D01*
X143800060Y-77497199D01*
X143577200Y-77720059D01*
X143402099Y-77982116D01*
X143281488Y-78273297D01*
X143220001Y-78582414D01*
X143220001Y-78897586D01*
X143281488Y-79206703D01*
X143402099Y-79497884D01*
X143577200Y-79759941D01*
X143800060Y-79982801D01*
X143840766Y-80010000D01*
X143800060Y-80037199D01*
X143577200Y-80260059D01*
X143402099Y-80522116D01*
X143281488Y-80813297D01*
X143220001Y-81122414D01*
X143220001Y-81437586D01*
X143281488Y-81746703D01*
X143402099Y-82037884D01*
X143577200Y-82299941D01*
X143800060Y-82522801D01*
X143840766Y-82550000D01*
X143800060Y-82577199D01*
X143577200Y-82800059D01*
X143402099Y-83062116D01*
X143281488Y-83353297D01*
X143220001Y-83662414D01*
X143220001Y-83977586D01*
X143281488Y-84286703D01*
X143402099Y-84577884D01*
X143577200Y-84839941D01*
X143800060Y-85062801D01*
X143840766Y-85090000D01*
X143800060Y-85117199D01*
X143577200Y-85340059D01*
X143402099Y-85602116D01*
X143281488Y-85893297D01*
X143220001Y-86202414D01*
X143220001Y-86517586D01*
X143281488Y-86826703D01*
X143402099Y-87117884D01*
X143577200Y-87379941D01*
X143800060Y-87602801D01*
X143840766Y-87630000D01*
X143800060Y-87657199D01*
X143577200Y-87880059D01*
X143402099Y-88142116D01*
X143281488Y-88433297D01*
X143220001Y-88742414D01*
X143220001Y-89057586D01*
X143281488Y-89366703D01*
X143402099Y-89657884D01*
X143577200Y-89919941D01*
X143800060Y-90142801D01*
X143840766Y-90170000D01*
X143800060Y-90197199D01*
X143577200Y-90420059D01*
X143402099Y-90682116D01*
X143281488Y-90973297D01*
X143220001Y-91282414D01*
X143220001Y-91597586D01*
X143281488Y-91906703D01*
X143402099Y-92197884D01*
X143577200Y-92459941D01*
X143800060Y-92682801D01*
X143840766Y-92710000D01*
X143800060Y-92737199D01*
X143577200Y-92960059D01*
X143402099Y-93222116D01*
X143281488Y-93513297D01*
X143220001Y-93822414D01*
X143220001Y-94137586D01*
X143281488Y-94446703D01*
X143402099Y-94737884D01*
X143577200Y-94999941D01*
X143800060Y-95222801D01*
X143840766Y-95250000D01*
X143800060Y-95277199D01*
X143577200Y-95500059D01*
X143402099Y-95762116D01*
X143281488Y-96053297D01*
X143220001Y-96362414D01*
X143220001Y-96677586D01*
X143281488Y-96986703D01*
X143402099Y-97277884D01*
X143577200Y-97539941D01*
X143800060Y-97762801D01*
X143840766Y-97790000D01*
X143800060Y-97817199D01*
X143577200Y-98040059D01*
X143402099Y-98302116D01*
X143281488Y-98593297D01*
X143220001Y-98902414D01*
X143220001Y-99217586D01*
X143281488Y-99526703D01*
X143402099Y-99817884D01*
X143577200Y-100079941D01*
X143800060Y-100302801D01*
X143840766Y-100330000D01*
X143800060Y-100357199D01*
X143577200Y-100580059D01*
X143402099Y-100842116D01*
X143281488Y-101133297D01*
X143220001Y-101442414D01*
X143220001Y-101757586D01*
X143281488Y-102066703D01*
X143402099Y-102357884D01*
X143577200Y-102619941D01*
X143800060Y-102842801D01*
X143925320Y-102926497D01*
X143889154Y-103029548D01*
X144820001Y-103960395D01*
X145750848Y-103029548D01*
X145714682Y-102926497D01*
X145839942Y-102842801D01*
X146062802Y-102619941D01*
X146237903Y-102357884D01*
X146358514Y-102066703D01*
X146420001Y-101757586D01*
X146420001Y-101442414D01*
X146358514Y-101133297D01*
X146237903Y-100842116D01*
X146062802Y-100580059D01*
X145839942Y-100357199D01*
X145799236Y-100330000D01*
X145839942Y-100302801D01*
X146062802Y-100079941D01*
X146237903Y-99817884D01*
X146358514Y-99526703D01*
X146420001Y-99217586D01*
X146420001Y-98902414D01*
X146358514Y-98593297D01*
X146237903Y-98302116D01*
X146062802Y-98040059D01*
X145839942Y-97817199D01*
X145799236Y-97790000D01*
X145839942Y-97762801D01*
X146062802Y-97539941D01*
X146237903Y-97277884D01*
X146358514Y-96986703D01*
X146420001Y-96677586D01*
X146420001Y-96362414D01*
X146358514Y-96053297D01*
X146237903Y-95762116D01*
X146062802Y-95500059D01*
X145839942Y-95277199D01*
X145799236Y-95250000D01*
X145839942Y-95222801D01*
X146062802Y-94999941D01*
X146237903Y-94737884D01*
X146358514Y-94446703D01*
X146420001Y-94137586D01*
X146420001Y-93822414D01*
X146358514Y-93513297D01*
X146237903Y-93222116D01*
X146062802Y-92960059D01*
X145839942Y-92737199D01*
X145799236Y-92710000D01*
X145839942Y-92682801D01*
X146062802Y-92459941D01*
X146237903Y-92197884D01*
X146358514Y-91906703D01*
X146420001Y-91597586D01*
X146420001Y-91282414D01*
X146358514Y-90973297D01*
X146237903Y-90682116D01*
X146062802Y-90420059D01*
X145839942Y-90197199D01*
X145799236Y-90170000D01*
X145839942Y-90142801D01*
X146062802Y-89919941D01*
X146237903Y-89657884D01*
X146358514Y-89366703D01*
X146420001Y-89057586D01*
X146420001Y-88742414D01*
X146358514Y-88433297D01*
X146237903Y-88142116D01*
X146062802Y-87880059D01*
X145839942Y-87657199D01*
X145799236Y-87630000D01*
X145839942Y-87602801D01*
X146062802Y-87379941D01*
X146237903Y-87117884D01*
X146358514Y-86826703D01*
X146420001Y-86517586D01*
X146420001Y-86202414D01*
X146358514Y-85893297D01*
X146237903Y-85602116D01*
X146062802Y-85340059D01*
X145839942Y-85117199D01*
X145799236Y-85090000D01*
X145839942Y-85062801D01*
X146062802Y-84839941D01*
X146237903Y-84577884D01*
X146358514Y-84286703D01*
X146420001Y-83977586D01*
X146420001Y-83662414D01*
X146358514Y-83353297D01*
X146237903Y-83062116D01*
X146062802Y-82800059D01*
X145839942Y-82577199D01*
X145799236Y-82550000D01*
X145839942Y-82522801D01*
X146062802Y-82299941D01*
X146237903Y-82037884D01*
X146358514Y-81746703D01*
X146405433Y-81510825D01*
X149581800Y-84687192D01*
X149581801Y-87915277D01*
X149418768Y-88078310D01*
X149277703Y-88289430D01*
X149180535Y-88524013D01*
X149131000Y-88773045D01*
X149131000Y-89026955D01*
X149180535Y-89275987D01*
X149277703Y-89510570D01*
X149418768Y-89721690D01*
X149598310Y-89901232D01*
X149809430Y-90042297D01*
X150044013Y-90139465D01*
X150293045Y-90189000D01*
X150546955Y-90189000D01*
X150795987Y-90139465D01*
X151030570Y-90042297D01*
X151241690Y-89901232D01*
X151354535Y-89788387D01*
X156211218Y-89788387D01*
X156265093Y-90017468D01*
X156495684Y-90123763D01*
X156742581Y-90183028D01*
X156996296Y-90192988D01*
X157247079Y-90153259D01*
X157485293Y-90065368D01*
X157574907Y-90017468D01*
X157628782Y-89788387D01*
X156920000Y-89079605D01*
X156211218Y-89788387D01*
X151354535Y-89788387D01*
X151421232Y-89721690D01*
X151562297Y-89510570D01*
X151659465Y-89275987D01*
X151709000Y-89026955D01*
X151709000Y-88976296D01*
X155627012Y-88976296D01*
X155666741Y-89227079D01*
X155754632Y-89465293D01*
X155802532Y-89554907D01*
X156031613Y-89608782D01*
X156740395Y-88900000D01*
X157099605Y-88900000D01*
X157808387Y-89608782D01*
X158037468Y-89554907D01*
X158143763Y-89324316D01*
X158203028Y-89077419D01*
X158212988Y-88823704D01*
X158173259Y-88572921D01*
X158085368Y-88334707D01*
X158037468Y-88245093D01*
X157808387Y-88191218D01*
X157099605Y-88900000D01*
X156740395Y-88900000D01*
X156031613Y-88191218D01*
X155802532Y-88245093D01*
X155696237Y-88475684D01*
X155636972Y-88722581D01*
X155627012Y-88976296D01*
X151709000Y-88976296D01*
X151709000Y-88773045D01*
X151659465Y-88524013D01*
X151562297Y-88289430D01*
X151421232Y-88078310D01*
X151354535Y-88011613D01*
X156211218Y-88011613D01*
X156920000Y-88720395D01*
X157628782Y-88011613D01*
X157574907Y-87782532D01*
X157344316Y-87676237D01*
X157097419Y-87616972D01*
X156843704Y-87607012D01*
X156592921Y-87646741D01*
X156354707Y-87734632D01*
X156265093Y-87782532D01*
X156211218Y-88011613D01*
X151354535Y-88011613D01*
X151258200Y-87915278D01*
X151258200Y-86716890D01*
X166198524Y-86716890D01*
X166243175Y-86864099D01*
X166368359Y-87126920D01*
X166542412Y-87360269D01*
X166758645Y-87555178D01*
X167008748Y-87704157D01*
X167283109Y-87801481D01*
X167513000Y-87680814D01*
X167513000Y-86487000D01*
X167767000Y-86487000D01*
X167767000Y-87680814D01*
X167996891Y-87801481D01*
X168271252Y-87704157D01*
X168521355Y-87555178D01*
X168737588Y-87360269D01*
X168911641Y-87126920D01*
X169036825Y-86864099D01*
X169081476Y-86716890D01*
X168960155Y-86487000D01*
X167767000Y-86487000D01*
X167513000Y-86487000D01*
X166319845Y-86487000D01*
X166198524Y-86716890D01*
X151258200Y-86716890D01*
X151258200Y-84381169D01*
X151262255Y-84339999D01*
X151246071Y-84175683D01*
X151198142Y-84017682D01*
X151120309Y-83872067D01*
X151077578Y-83819999D01*
X151015564Y-83744435D01*
X150983583Y-83718189D01*
X146377359Y-79111965D01*
X146420001Y-78897586D01*
X146420001Y-78582414D01*
X146358514Y-78273297D01*
X146237903Y-77982116D01*
X146062802Y-77720059D01*
X145839942Y-77497199D01*
X145799236Y-77470000D01*
X145839942Y-77442801D01*
X146062802Y-77219941D01*
X146184238Y-77038200D01*
X159672807Y-77038200D01*
X166180442Y-83545836D01*
X166155000Y-83673740D01*
X166155000Y-83966260D01*
X166212068Y-84253158D01*
X166324010Y-84523411D01*
X166486525Y-84766632D01*
X166693368Y-84973475D01*
X166875534Y-85095195D01*
X166758645Y-85164822D01*
X166542412Y-85359731D01*
X166368359Y-85593080D01*
X166243175Y-85855901D01*
X166198524Y-86003110D01*
X166319845Y-86233000D01*
X167513000Y-86233000D01*
X167513000Y-86213000D01*
X167767000Y-86213000D01*
X167767000Y-86233000D01*
X168960155Y-86233000D01*
X169081476Y-86003110D01*
X169036825Y-85855901D01*
X168911641Y-85593080D01*
X168737588Y-85359731D01*
X168521355Y-85164822D01*
X168404466Y-85095195D01*
X168586632Y-84973475D01*
X168793475Y-84766632D01*
X168955990Y-84523411D01*
X169067932Y-84253158D01*
X169125000Y-83966260D01*
X169125000Y-83673740D01*
X169067932Y-83386842D01*
X168955990Y-83116589D01*
X168793475Y-82873368D01*
X168586632Y-82666525D01*
X168412240Y-82550000D01*
X168586632Y-82433475D01*
X168793475Y-82226632D01*
X168955990Y-81983411D01*
X169067932Y-81713158D01*
X169125000Y-81426260D01*
X169125000Y-81133740D01*
X169067932Y-80846842D01*
X168955990Y-80576589D01*
X168793475Y-80333368D01*
X168661620Y-80201513D01*
X168734180Y-80179502D01*
X168844494Y-80120537D01*
X168941185Y-80041185D01*
X169020537Y-79944494D01*
X169079502Y-79834180D01*
X169115812Y-79714482D01*
X169128072Y-79590000D01*
X169128072Y-79578200D01*
X169832807Y-79578200D01*
X170611801Y-80357195D01*
X170611800Y-97070378D01*
X170502317Y-97011858D01*
X170344316Y-96963929D01*
X170221170Y-96951800D01*
X170221163Y-96951800D01*
X170180000Y-96947746D01*
X170138837Y-96951800D01*
X169128072Y-96951800D01*
X169128072Y-96940000D01*
X169115812Y-96815518D01*
X169079502Y-96695820D01*
X169020537Y-96585506D01*
X168941185Y-96488815D01*
X168844494Y-96409463D01*
X168734180Y-96350498D01*
X168661620Y-96328487D01*
X168793475Y-96196632D01*
X168955990Y-95953411D01*
X169067932Y-95683158D01*
X169125000Y-95396260D01*
X169125000Y-95103740D01*
X169067932Y-94816842D01*
X168955990Y-94546589D01*
X168793475Y-94303368D01*
X168586632Y-94096525D01*
X168343411Y-93934010D01*
X168073158Y-93822068D01*
X167786260Y-93765000D01*
X167493740Y-93765000D01*
X167206842Y-93822068D01*
X166936589Y-93934010D01*
X166693368Y-94096525D01*
X166486525Y-94303368D01*
X166414073Y-94411800D01*
X166411162Y-94411800D01*
X166369999Y-94407746D01*
X166328836Y-94411800D01*
X166328830Y-94411800D01*
X166205684Y-94423929D01*
X166047683Y-94471858D01*
X165902068Y-94549691D01*
X165774436Y-94654436D01*
X165748194Y-94686412D01*
X160294165Y-100140442D01*
X160166260Y-100115000D01*
X159873740Y-100115000D01*
X159586842Y-100172068D01*
X159316589Y-100284010D01*
X159073368Y-100446525D01*
X158866525Y-100653368D01*
X158704010Y-100896589D01*
X158592068Y-101166842D01*
X158535000Y-101453740D01*
X158535000Y-101746260D01*
X158592068Y-102033158D01*
X158704010Y-102303411D01*
X158866525Y-102546632D01*
X158998380Y-102678487D01*
X158925820Y-102700498D01*
X158815506Y-102759463D01*
X158718815Y-102838815D01*
X158639463Y-102935506D01*
X158580498Y-103045820D01*
X158544188Y-103165518D01*
X158531928Y-103290000D01*
X158531928Y-104990000D01*
X158544188Y-105114482D01*
X158580498Y-105234180D01*
X158639463Y-105344494D01*
X158718815Y-105441185D01*
X158815506Y-105520537D01*
X158925820Y-105579502D01*
X159045518Y-105615812D01*
X159170000Y-105628072D01*
X160322679Y-105628072D01*
X163208192Y-108513586D01*
X163234436Y-108545564D01*
X163362068Y-108650309D01*
X163507683Y-108728142D01*
X163665684Y-108776071D01*
X163788830Y-108788200D01*
X163788837Y-108788200D01*
X163830000Y-108792254D01*
X163871163Y-108788200D01*
X166151928Y-108788200D01*
X166151928Y-108800000D01*
X166164188Y-108924482D01*
X166200498Y-109044180D01*
X166259463Y-109154494D01*
X166338815Y-109251185D01*
X166435506Y-109330537D01*
X166545820Y-109389502D01*
X166626466Y-109413966D01*
X166542412Y-109489731D01*
X166368359Y-109723080D01*
X166243175Y-109985901D01*
X166198524Y-110133110D01*
X166319845Y-110363000D01*
X167513000Y-110363000D01*
X167513000Y-110343000D01*
X167767000Y-110343000D01*
X167767000Y-110363000D01*
X168960155Y-110363000D01*
X169081476Y-110133110D01*
X169036825Y-109985901D01*
X168911641Y-109723080D01*
X168737588Y-109489731D01*
X168653534Y-109413966D01*
X168734180Y-109389502D01*
X168844494Y-109330537D01*
X168941185Y-109251185D01*
X169020537Y-109154494D01*
X169079502Y-109044180D01*
X169115812Y-108924482D01*
X169128072Y-108800000D01*
X169128072Y-107100000D01*
X169115812Y-106975518D01*
X169079502Y-106855820D01*
X169020537Y-106745506D01*
X168941185Y-106648815D01*
X168844494Y-106569463D01*
X168734180Y-106510498D01*
X168614482Y-106474188D01*
X168490000Y-106461928D01*
X166790000Y-106461928D01*
X166665518Y-106474188D01*
X166545820Y-106510498D01*
X166435506Y-106569463D01*
X166338815Y-106648815D01*
X166259463Y-106745506D01*
X166200498Y-106855820D01*
X166164188Y-106975518D01*
X166151928Y-107100000D01*
X166151928Y-107111800D01*
X164177194Y-107111800D01*
X161508072Y-104442679D01*
X161508072Y-103290000D01*
X161495812Y-103165518D01*
X161459502Y-103045820D01*
X161400537Y-102935506D01*
X161321185Y-102838815D01*
X161224494Y-102759463D01*
X161114180Y-102700498D01*
X161041620Y-102678487D01*
X161173475Y-102546632D01*
X161335990Y-102303411D01*
X161447932Y-102033158D01*
X161505000Y-101746260D01*
X161505000Y-101453740D01*
X161479558Y-101325835D01*
X166547643Y-96257750D01*
X166618380Y-96328487D01*
X166545820Y-96350498D01*
X166435506Y-96409463D01*
X166338815Y-96488815D01*
X166259463Y-96585506D01*
X166200498Y-96695820D01*
X166164188Y-96815518D01*
X166151928Y-96940000D01*
X166151928Y-98640000D01*
X166164188Y-98764482D01*
X166200498Y-98884180D01*
X166259463Y-98994494D01*
X166338815Y-99091185D01*
X166435506Y-99170537D01*
X166545820Y-99229502D01*
X166665518Y-99265812D01*
X166790000Y-99278072D01*
X168490000Y-99278072D01*
X168614482Y-99265812D01*
X168734180Y-99229502D01*
X168844494Y-99170537D01*
X168941185Y-99091185D01*
X169020537Y-98994494D01*
X169079502Y-98884180D01*
X169115812Y-98764482D01*
X169128072Y-98640000D01*
X169128072Y-98628200D01*
X169832807Y-98628200D01*
X170611801Y-99407195D01*
X170611800Y-112682806D01*
X169832807Y-113461800D01*
X150433781Y-113461800D01*
X150615394Y-113340450D01*
X150780450Y-113175394D01*
X150910134Y-112981308D01*
X150999461Y-112765652D01*
X151045000Y-112536712D01*
X151045000Y-112420393D01*
X152618503Y-110846890D01*
X166198524Y-110846890D01*
X166243175Y-110994099D01*
X166368359Y-111256920D01*
X166542412Y-111490269D01*
X166758645Y-111685178D01*
X167008748Y-111834157D01*
X167283109Y-111931481D01*
X167513000Y-111810814D01*
X167513000Y-110617000D01*
X167767000Y-110617000D01*
X167767000Y-111810814D01*
X167996891Y-111931481D01*
X168271252Y-111834157D01*
X168521355Y-111685178D01*
X168737588Y-111490269D01*
X168911641Y-111256920D01*
X169036825Y-110994099D01*
X169081476Y-110846890D01*
X168960155Y-110617000D01*
X167767000Y-110617000D01*
X167513000Y-110617000D01*
X166319845Y-110617000D01*
X166198524Y-110846890D01*
X152618503Y-110846890D01*
X154214298Y-109251096D01*
X154236589Y-109265990D01*
X154506842Y-109377932D01*
X154793740Y-109435000D01*
X155086260Y-109435000D01*
X155373158Y-109377932D01*
X155643411Y-109265990D01*
X155886632Y-109103475D01*
X156093475Y-108896632D01*
X156255990Y-108653411D01*
X156367932Y-108383158D01*
X156425000Y-108096260D01*
X156425000Y-107803740D01*
X156367932Y-107516842D01*
X156255990Y-107246589D01*
X156093475Y-107003368D01*
X155961620Y-106871513D01*
X156034180Y-106849502D01*
X156144494Y-106790537D01*
X156241185Y-106711185D01*
X156320537Y-106614494D01*
X156379502Y-106504180D01*
X156415812Y-106384482D01*
X156428072Y-106260000D01*
X156425000Y-105695750D01*
X156266250Y-105537000D01*
X155067000Y-105537000D01*
X155067000Y-105557000D01*
X154813000Y-105557000D01*
X154813000Y-105537000D01*
X153613750Y-105537000D01*
X153455000Y-105695750D01*
X153451928Y-106260000D01*
X153464188Y-106384482D01*
X153500498Y-106504180D01*
X153559463Y-106614494D01*
X153638815Y-106711185D01*
X153735506Y-106790537D01*
X153845820Y-106849502D01*
X153918380Y-106871513D01*
X153786525Y-107003368D01*
X153624010Y-107246589D01*
X153512068Y-107516842D01*
X153495755Y-107598851D01*
X149859607Y-111235000D01*
X149743288Y-111235000D01*
X149514348Y-111280539D01*
X149298692Y-111369866D01*
X149104606Y-111499550D01*
X148939550Y-111664606D01*
X148809866Y-111858692D01*
X148720539Y-112074348D01*
X148675000Y-112303288D01*
X148675000Y-112536712D01*
X148720539Y-112765652D01*
X148809866Y-112981308D01*
X148939550Y-113175394D01*
X149104606Y-113340450D01*
X149286219Y-113461800D01*
X118948200Y-113461800D01*
X118948200Y-110269872D01*
X120995001Y-110269872D01*
X120995001Y-110710128D01*
X121080891Y-111141925D01*
X121249370Y-111548669D01*
X121493963Y-111914729D01*
X121805272Y-112226038D01*
X122171332Y-112470631D01*
X122578076Y-112639110D01*
X123009873Y-112725000D01*
X123450129Y-112725000D01*
X123881926Y-112639110D01*
X124288670Y-112470631D01*
X124654730Y-112226038D01*
X124966039Y-111914729D01*
X125210632Y-111548669D01*
X125379111Y-111141925D01*
X125465001Y-110710128D01*
X125465001Y-110269872D01*
X141315001Y-110269872D01*
X141315001Y-110710128D01*
X141400891Y-111141925D01*
X141569370Y-111548669D01*
X141813963Y-111914729D01*
X142125272Y-112226038D01*
X142491332Y-112470631D01*
X142898076Y-112639110D01*
X143329873Y-112725000D01*
X143770129Y-112725000D01*
X144201926Y-112639110D01*
X144608670Y-112470631D01*
X144974730Y-112226038D01*
X145286039Y-111914729D01*
X145530632Y-111548669D01*
X145699111Y-111141925D01*
X145785001Y-110710128D01*
X145785001Y-110269872D01*
X145699111Y-109838075D01*
X145530632Y-109431331D01*
X145286039Y-109065271D01*
X144974730Y-108753962D01*
X144608670Y-108509369D01*
X144201926Y-108340890D01*
X143770129Y-108255000D01*
X143329873Y-108255000D01*
X142898076Y-108340890D01*
X142491332Y-108509369D01*
X142125272Y-108753962D01*
X141813963Y-109065271D01*
X141569370Y-109431331D01*
X141400891Y-109838075D01*
X141315001Y-110269872D01*
X125465001Y-110269872D01*
X125379111Y-109838075D01*
X125210632Y-109431331D01*
X124966039Y-109065271D01*
X124654730Y-108753962D01*
X124288670Y-108509369D01*
X123881926Y-108340890D01*
X123450129Y-108255000D01*
X123009873Y-108255000D01*
X122578076Y-108340890D01*
X122171332Y-108509369D01*
X121805272Y-108753962D01*
X121493963Y-109065271D01*
X121249370Y-109431331D01*
X121080891Y-109838075D01*
X120995001Y-110269872D01*
X118948200Y-110269872D01*
X118948200Y-108297193D01*
X119727194Y-107518200D01*
X120595764Y-107518200D01*
X120717200Y-107699941D01*
X120940060Y-107922801D01*
X121202117Y-108097902D01*
X121493298Y-108218513D01*
X121802415Y-108280000D01*
X122117587Y-108280000D01*
X122426704Y-108218513D01*
X122717885Y-108097902D01*
X122979942Y-107922801D01*
X123202802Y-107699941D01*
X123377903Y-107437884D01*
X123498514Y-107146703D01*
X123560001Y-106837586D01*
X123560001Y-106522414D01*
X143220001Y-106522414D01*
X143220001Y-106837586D01*
X143281488Y-107146703D01*
X143402099Y-107437884D01*
X143577200Y-107699941D01*
X143800060Y-107922801D01*
X144062117Y-108097902D01*
X144353298Y-108218513D01*
X144662415Y-108280000D01*
X144977587Y-108280000D01*
X145286704Y-108218513D01*
X145577885Y-108097902D01*
X145839942Y-107922801D01*
X146062802Y-107699941D01*
X146184238Y-107518200D01*
X149158837Y-107518200D01*
X149200000Y-107522254D01*
X149241163Y-107518200D01*
X149241170Y-107518200D01*
X149364316Y-107506071D01*
X149522317Y-107458142D01*
X149667932Y-107380309D01*
X149795564Y-107275564D01*
X149821811Y-107243583D01*
X149860393Y-107205000D01*
X149976712Y-107205000D01*
X150205652Y-107159461D01*
X150421308Y-107070134D01*
X150615394Y-106940450D01*
X150780450Y-106775394D01*
X150910134Y-106581308D01*
X150999461Y-106365652D01*
X151045000Y-106136712D01*
X151045000Y-105903288D01*
X150999461Y-105674348D01*
X150910134Y-105458692D01*
X150780450Y-105264606D01*
X150615394Y-105099550D01*
X150421308Y-104969866D01*
X150205652Y-104880539D01*
X149976712Y-104835000D01*
X149743288Y-104835000D01*
X149514348Y-104880539D01*
X149298692Y-104969866D01*
X149104606Y-105099550D01*
X148939550Y-105264606D01*
X148809866Y-105458692D01*
X148720539Y-105674348D01*
X148687231Y-105841800D01*
X146184238Y-105841800D01*
X146062802Y-105660059D01*
X145839942Y-105437199D01*
X145714682Y-105353503D01*
X145750848Y-105250452D01*
X144820001Y-104319605D01*
X143889154Y-105250452D01*
X143925320Y-105353503D01*
X143800060Y-105437199D01*
X143577200Y-105660059D01*
X143402099Y-105922116D01*
X143281488Y-106213297D01*
X143220001Y-106522414D01*
X123560001Y-106522414D01*
X123498514Y-106213297D01*
X123377903Y-105922116D01*
X123202802Y-105660059D01*
X122979942Y-105437199D01*
X122939236Y-105410000D01*
X122979942Y-105382801D01*
X123202802Y-105159941D01*
X123377903Y-104897884D01*
X123498514Y-104606703D01*
X123560001Y-104297586D01*
X123560001Y-104203980D01*
X143213531Y-104203980D01*
X143256881Y-104516157D01*
X143360301Y-104813879D01*
X143448726Y-104979309D01*
X143709549Y-105070847D01*
X144640396Y-104140000D01*
X144999606Y-104140000D01*
X145930453Y-105070847D01*
X146191276Y-104979309D01*
X146328669Y-104695659D01*
X146363991Y-104560000D01*
X153451928Y-104560000D01*
X153455000Y-105124250D01*
X153613750Y-105283000D01*
X154813000Y-105283000D01*
X154813000Y-104083750D01*
X155067000Y-104083750D01*
X155067000Y-105283000D01*
X156266250Y-105283000D01*
X156425000Y-105124250D01*
X156428072Y-104560000D01*
X156415812Y-104435518D01*
X156379502Y-104315820D01*
X156320537Y-104205506D01*
X156241185Y-104108815D01*
X156144494Y-104029463D01*
X156034180Y-103970498D01*
X155914482Y-103934188D01*
X155790000Y-103921928D01*
X155225750Y-103925000D01*
X155067000Y-104083750D01*
X154813000Y-104083750D01*
X154654250Y-103925000D01*
X154090000Y-103921928D01*
X153965518Y-103934188D01*
X153845820Y-103970498D01*
X153735506Y-104029463D01*
X153638815Y-104108815D01*
X153559463Y-104205506D01*
X153500498Y-104315820D01*
X153464188Y-104435518D01*
X153451928Y-104560000D01*
X146363991Y-104560000D01*
X146408084Y-104390656D01*
X146426471Y-104076020D01*
X146383121Y-103763843D01*
X146279701Y-103466121D01*
X146191276Y-103300691D01*
X145930453Y-103209153D01*
X144999606Y-104140000D01*
X144640396Y-104140000D01*
X143709549Y-103209153D01*
X143448726Y-103300691D01*
X143311333Y-103584341D01*
X143231918Y-103889344D01*
X143213531Y-104203980D01*
X123560001Y-104203980D01*
X123560001Y-103982414D01*
X123498514Y-103673297D01*
X123377903Y-103382116D01*
X123202802Y-103120059D01*
X122979942Y-102897199D01*
X122939236Y-102870000D01*
X122979942Y-102842801D01*
X123202802Y-102619941D01*
X123377903Y-102357884D01*
X123498514Y-102066703D01*
X123560001Y-101757586D01*
X123560001Y-101442414D01*
X123498514Y-101133297D01*
X123377903Y-100842116D01*
X123202802Y-100580059D01*
X122979942Y-100357199D01*
X122939236Y-100330000D01*
X122979942Y-100302801D01*
X123202802Y-100079941D01*
X123377903Y-99817884D01*
X123498514Y-99526703D01*
X123560001Y-99217586D01*
X123560001Y-98902414D01*
X123498514Y-98593297D01*
X123377903Y-98302116D01*
X123202802Y-98040059D01*
X122979942Y-97817199D01*
X122939236Y-97790000D01*
X122979942Y-97762801D01*
X123202802Y-97539941D01*
X123377903Y-97277884D01*
X123498514Y-96986703D01*
X123560001Y-96677586D01*
X123560001Y-96362414D01*
X123498514Y-96053297D01*
X123377903Y-95762116D01*
X123202802Y-95500059D01*
X122979942Y-95277199D01*
X122939236Y-95250000D01*
X122979942Y-95222801D01*
X123202802Y-94999941D01*
X123377903Y-94737884D01*
X123498514Y-94446703D01*
X123560001Y-94137586D01*
X123560001Y-93822414D01*
X123498514Y-93513297D01*
X123377903Y-93222116D01*
X123202802Y-92960059D01*
X122979942Y-92737199D01*
X122939236Y-92710000D01*
X122979942Y-92682801D01*
X123202802Y-92459941D01*
X123377903Y-92197884D01*
X123498514Y-91906703D01*
X123560001Y-91597586D01*
X123560001Y-91282414D01*
X123498514Y-90973297D01*
X123377903Y-90682116D01*
X123202802Y-90420059D01*
X122979942Y-90197199D01*
X122939236Y-90170000D01*
X122979942Y-90142801D01*
X123202802Y-89919941D01*
X123377903Y-89657884D01*
X123498514Y-89366703D01*
X123560001Y-89057586D01*
X123560001Y-88742414D01*
X123498514Y-88433297D01*
X123377903Y-88142116D01*
X123202802Y-87880059D01*
X122979942Y-87657199D01*
X122939236Y-87630000D01*
X122979942Y-87602801D01*
X123202802Y-87379941D01*
X123377903Y-87117884D01*
X123498514Y-86826703D01*
X123560001Y-86517586D01*
X123560001Y-86202414D01*
X123498514Y-85893297D01*
X123377903Y-85602116D01*
X123202802Y-85340059D01*
X122979942Y-85117199D01*
X122939236Y-85090000D01*
X122979942Y-85062801D01*
X123202802Y-84839941D01*
X123377903Y-84577884D01*
X123498514Y-84286703D01*
X123560001Y-83977586D01*
X123560001Y-83662414D01*
X123498514Y-83353297D01*
X123377903Y-83062116D01*
X123202802Y-82800059D01*
X122979942Y-82577199D01*
X122939236Y-82550000D01*
X122979942Y-82522801D01*
X123202802Y-82299941D01*
X123377903Y-82037884D01*
X123498514Y-81746703D01*
X123560001Y-81437586D01*
X123560001Y-81122414D01*
X123498514Y-80813297D01*
X123377903Y-80522116D01*
X123202802Y-80260059D01*
X122979942Y-80037199D01*
X122939236Y-80010000D01*
X122979942Y-79982801D01*
X123202802Y-79759941D01*
X123377903Y-79497884D01*
X123498514Y-79206703D01*
X123560001Y-78897586D01*
X123560001Y-78582414D01*
X123498514Y-78273297D01*
X123377903Y-77982116D01*
X123202802Y-77720059D01*
X122979942Y-77497199D01*
X122939236Y-77470000D01*
X122979942Y-77442801D01*
X123202802Y-77219941D01*
X123377903Y-76957884D01*
X123498514Y-76666703D01*
X123560001Y-76357586D01*
X123560001Y-76042414D01*
X123498514Y-75733297D01*
X123377903Y-75442116D01*
X123202802Y-75180059D01*
X122979942Y-74957199D01*
X122939236Y-74930000D01*
X122979942Y-74902801D01*
X123202802Y-74679941D01*
X123377903Y-74417884D01*
X123498514Y-74126703D01*
X123560001Y-73817586D01*
X123560001Y-73502414D01*
X123498514Y-73193297D01*
X123377903Y-72902116D01*
X123210912Y-72652196D01*
X123279495Y-72615537D01*
X123376186Y-72536185D01*
X123455538Y-72439494D01*
X123514503Y-72329180D01*
X123550813Y-72209482D01*
X123563073Y-72085000D01*
X123563073Y-70155000D01*
X123550813Y-70030518D01*
X123514503Y-69910820D01*
X123455538Y-69800506D01*
X123376186Y-69703815D01*
X123279495Y-69624463D01*
X123169181Y-69565498D01*
X123101608Y-69545000D01*
X123450129Y-69545000D01*
X123881926Y-69459110D01*
X124288670Y-69290631D01*
X124654730Y-69046038D01*
X124966039Y-68734729D01*
X125210632Y-68368669D01*
X125379111Y-67961925D01*
X125465001Y-67530128D01*
X125465001Y-67089872D01*
X125379111Y-66658075D01*
X125210632Y-66251331D01*
X124966039Y-65885271D01*
X124654730Y-65573962D01*
X124288670Y-65329369D01*
X123881926Y-65160890D01*
X123450129Y-65075000D01*
X123009873Y-65075000D01*
X122578076Y-65160890D01*
X122171332Y-65329369D01*
X121805272Y-65573962D01*
X121493963Y-65885271D01*
X121249370Y-66251331D01*
X121080891Y-66658075D01*
X120995001Y-67089872D01*
X120995001Y-67530128D01*
X121080891Y-67961925D01*
X121249370Y-68368669D01*
X121493963Y-68734729D01*
X121805272Y-69046038D01*
X122171332Y-69290631D01*
X122578076Y-69459110D01*
X122868746Y-69516928D01*
X120995001Y-69516928D01*
X120870519Y-69529188D01*
X120750821Y-69565498D01*
X120640507Y-69624463D01*
X120543816Y-69703815D01*
X120464464Y-69800506D01*
X120405499Y-69910820D01*
X120369189Y-70030518D01*
X120356929Y-70155000D01*
X120356929Y-72085000D01*
X120369189Y-72209482D01*
X120405499Y-72329180D01*
X120464464Y-72439494D01*
X120543816Y-72536185D01*
X120640507Y-72615537D01*
X120709090Y-72652196D01*
X120542099Y-72902116D01*
X120421488Y-73193297D01*
X120360001Y-73502414D01*
X120360001Y-73817586D01*
X120421488Y-74126703D01*
X120542099Y-74417884D01*
X120717200Y-74679941D01*
X120940060Y-74902801D01*
X120980766Y-74930000D01*
X120940060Y-74957199D01*
X120717200Y-75180059D01*
X120542099Y-75442116D01*
X120421488Y-75733297D01*
X120360001Y-76042414D01*
X120360001Y-76357586D01*
X120421488Y-76666703D01*
X120542099Y-76957884D01*
X120717200Y-77219941D01*
X120940060Y-77442801D01*
X120980766Y-77470000D01*
X120940060Y-77497199D01*
X120717200Y-77720059D01*
X120542099Y-77982116D01*
X120421488Y-78273297D01*
X120360001Y-78582414D01*
X120360001Y-78897586D01*
X120421488Y-79206703D01*
X120542099Y-79497884D01*
X120717200Y-79759941D01*
X120940060Y-79982801D01*
X120980766Y-80010000D01*
X120940060Y-80037199D01*
X120717200Y-80260059D01*
X120542099Y-80522116D01*
X120421488Y-80813297D01*
X120360001Y-81122414D01*
X120360001Y-81437586D01*
X120421488Y-81746703D01*
X120542099Y-82037884D01*
X120717200Y-82299941D01*
X120940060Y-82522801D01*
X120980766Y-82550000D01*
X120940060Y-82577199D01*
X120717200Y-82800059D01*
X120542099Y-83062116D01*
X120421488Y-83353297D01*
X120360001Y-83662414D01*
X120360001Y-83977586D01*
X120421488Y-84286703D01*
X120542099Y-84577884D01*
X120717200Y-84839941D01*
X120940060Y-85062801D01*
X120980766Y-85090000D01*
X120940060Y-85117199D01*
X120717200Y-85340059D01*
X120542099Y-85602116D01*
X120421488Y-85893297D01*
X120360001Y-86202414D01*
X120360001Y-86517586D01*
X120421488Y-86826703D01*
X120542099Y-87117884D01*
X120717200Y-87379941D01*
X120940060Y-87602801D01*
X120980766Y-87630000D01*
X120940060Y-87657199D01*
X120717200Y-87880059D01*
X120542099Y-88142116D01*
X120421488Y-88433297D01*
X120360001Y-88742414D01*
X120360001Y-89057586D01*
X120421488Y-89366703D01*
X120542099Y-89657884D01*
X120717200Y-89919941D01*
X120940060Y-90142801D01*
X120980766Y-90170000D01*
X120940060Y-90197199D01*
X120717200Y-90420059D01*
X120542099Y-90682116D01*
X120421488Y-90973297D01*
X120360001Y-91282414D01*
X120360001Y-91597586D01*
X120421488Y-91906703D01*
X120542099Y-92197884D01*
X120717200Y-92459941D01*
X120940060Y-92682801D01*
X120980766Y-92710000D01*
X120940060Y-92737199D01*
X120717200Y-92960059D01*
X120542099Y-93222116D01*
X120421488Y-93513297D01*
X120360001Y-93822414D01*
X120360001Y-94137586D01*
X120421488Y-94446703D01*
X120542099Y-94737884D01*
X120717200Y-94999941D01*
X120940060Y-95222801D01*
X120980766Y-95250000D01*
X120940060Y-95277199D01*
X120717200Y-95500059D01*
X120542099Y-95762116D01*
X120421488Y-96053297D01*
X120360001Y-96362414D01*
X120360001Y-96677586D01*
X120421488Y-96986703D01*
X120542099Y-97277884D01*
X120717200Y-97539941D01*
X120940060Y-97762801D01*
X120980766Y-97790000D01*
X120940060Y-97817199D01*
X120717200Y-98040059D01*
X120542099Y-98302116D01*
X120421488Y-98593297D01*
X120360001Y-98902414D01*
X120360001Y-99217586D01*
X120421488Y-99526703D01*
X120542099Y-99817884D01*
X120717200Y-100079941D01*
X120940060Y-100302801D01*
X120980766Y-100330000D01*
X120940060Y-100357199D01*
X120717200Y-100580059D01*
X120542099Y-100842116D01*
X120421488Y-101133297D01*
X120360001Y-101442414D01*
X120360001Y-101757586D01*
X120421488Y-102066703D01*
X120542099Y-102357884D01*
X120717200Y-102619941D01*
X120940060Y-102842801D01*
X120980766Y-102870000D01*
X120940060Y-102897199D01*
X120717200Y-103120059D01*
X120542099Y-103382116D01*
X120421488Y-103673297D01*
X120360001Y-103982414D01*
X120360001Y-104297586D01*
X120421488Y-104606703D01*
X120542099Y-104897884D01*
X120717200Y-105159941D01*
X120940060Y-105382801D01*
X120980766Y-105410000D01*
X120940060Y-105437199D01*
X120717200Y-105660059D01*
X120595764Y-105841800D01*
X119421159Y-105841800D01*
X119379999Y-105837746D01*
X119338839Y-105841800D01*
X119338830Y-105841800D01*
X119215684Y-105853929D01*
X119057683Y-105901858D01*
X118912068Y-105979691D01*
X118784436Y-106084436D01*
X118758193Y-106116413D01*
X117546418Y-107328189D01*
X117514436Y-107354436D01*
X117500000Y-107372026D01*
X117500000Y-59469872D01*
X119685000Y-59469872D01*
X119685000Y-59910128D01*
X119770890Y-60341925D01*
X119939369Y-60748669D01*
X120183962Y-61114729D01*
X120495271Y-61426038D01*
X120861331Y-61670631D01*
X121268075Y-61839110D01*
X121699872Y-61925000D01*
X122140128Y-61925000D01*
X122571925Y-61839110D01*
X122978669Y-61670631D01*
X123344729Y-61426038D01*
X123656038Y-61114729D01*
X123900631Y-60748669D01*
X124069110Y-60341925D01*
X124155000Y-59910128D01*
X124155000Y-59469872D01*
X124069110Y-59038075D01*
X123900631Y-58631331D01*
X123656038Y-58265271D01*
X123344729Y-57953962D01*
X123263970Y-57900000D01*
X135245000Y-57900000D01*
X135245000Y-61720000D01*
X154315000Y-61720000D01*
X154315000Y-59469872D01*
X165405000Y-59469872D01*
X165405000Y-59910128D01*
X165490890Y-60341925D01*
X165659369Y-60748669D01*
X165903962Y-61114729D01*
X166215271Y-61426038D01*
X166581331Y-61670631D01*
X166988075Y-61839110D01*
X167419872Y-61925000D01*
X167860128Y-61925000D01*
X168291925Y-61839110D01*
X168698669Y-61670631D01*
X169064729Y-61426038D01*
X169376038Y-61114729D01*
X169620631Y-60748669D01*
X169789110Y-60341925D01*
X169875000Y-59910128D01*
X169875000Y-59469872D01*
X169789110Y-59038075D01*
X169620631Y-58631331D01*
X169376038Y-58265271D01*
X169064729Y-57953962D01*
X168698669Y-57709369D01*
X168291925Y-57540890D01*
X167860128Y-57455000D01*
X167419872Y-57455000D01*
X166988075Y-57540890D01*
X166581331Y-57709369D01*
X166215271Y-57953962D01*
X165903962Y-58265271D01*
X165659369Y-58631331D01*
X165490890Y-59038075D01*
X165405000Y-59469872D01*
X154315000Y-59469872D01*
X154315000Y-57900000D01*
X135245000Y-57900000D01*
X123263970Y-57900000D01*
X122978669Y-57709369D01*
X122571925Y-57540890D01*
X122140128Y-57455000D01*
X121699872Y-57455000D01*
X121268075Y-57540890D01*
X120861331Y-57709369D01*
X120495271Y-57953962D01*
X120183962Y-58265271D01*
X119939369Y-58631331D01*
X119770890Y-59038075D01*
X119685000Y-59469872D01*
X117500000Y-59469872D01*
X117500000Y-55270000D01*
X172060000Y-55270000D01*
X172060000Y-79432027D01*
G37*
%TD.AperFunction*%
%TD*%
M02*
